<svg version="1.2" baseProfile="tiny-ps" xmlns="http://www.w3.org/2000/svg" viewBox="0 0 2000 672" width="2000" height="672">
	<title>img_title-svg</title>
	<style>
		tspan { white-space:pre }
		.shp0 { fill: #231815 } 
	</style>
	<g id="レイヤー_2">
		<g id="文字">
			<path id="Layer" class="shp0" d="M646.64 375.49L646.64 105.37L548.76 375.49L514.73 375.49L416.85 105.37L416.85 375.49L381.14 375.49L381.14 68.82L437.02 68.82L531.54 329.7L626.06 68.82L682.35 68.82L682.35 375.49L646.64 375.49Z" />
			<path id="Layer" class="shp0" d="M858.37 375.49L858.37 68.82L897.13 68.82L897.13 375.49L858.37 375.49Z" />
			<path id="Layer" class="shp0" d="M1160.43 383.79C1072.2 383.79 1025.99 312.48 1025.99 221.32C1025.99 133.94 1069.68 60.42 1165.05 60.42C1186.05 60.42 1239.4 64.62 1268.81 108.73C1271.41 112.7 1273.82 116.8 1276.01 121C1278.2 125.21 1280.19 129.53 1281.95 133.93C1283.71 138.34 1285.25 142.83 1286.57 147.39C1287.88 151.95 1288.96 156.58 1289.82 161.24L1249.49 161.24C1240.24 104.95 1196.97 91.93 1164.21 91.93C1071.36 91.93 1065.17 193.59 1065.17 222.58C1065.17 281.81 1088.69 352.81 1160.95 352.81C1233.21 352.81 1247.49 286.01 1251.27 270.47L1291.6 270.47C1277.21 334.32 1238.56 383.79 1160.43 383.79Z" />
			<path id="Layer" class="shp0" d="M1529.69 383.79C1504.07 383.79 1456.17 378.43 1427.19 338.53C1424.36 334.3 1421.84 329.87 1419.68 325.27C1417.51 320.68 1415.69 315.92 1414.23 311.05C1412.77 306.18 1411.68 301.21 1410.97 296.17C1410.25 291.14 1409.92 286.06 1409.96 280.97L1449.45 280.97C1449.36 285.93 1449.81 290.88 1450.8 295.74C1451.79 300.6 1453.32 305.33 1455.34 309.86C1457.37 314.38 1459.89 318.67 1462.86 322.65C1465.82 326.62 1469.22 330.25 1472.98 333.48C1477.48 336.4 1482.19 338.98 1487.07 341.2C1491.95 343.43 1496.99 345.3 1502.14 346.79C1507.29 348.28 1512.54 349.39 1517.86 350.12C1523.17 350.85 1528.53 351.18 1533.89 351.13C1583.04 351.13 1609.51 321.3 1609.51 293.99C1609.51 266.69 1595.65 258.71 1525.49 235.18C1465.42 215.02 1419.21 199.05 1419.21 144.02C1419.21 91.51 1468.78 60 1531.37 60C1551.54 60 1600.27 64.2 1625.05 102.01C1627.5 105.95 1629.69 110.04 1631.62 114.25C1633.55 118.47 1635.21 122.8 1636.59 127.22C1637.97 131.65 1639.07 136.16 1639.88 140.72C1640.69 145.28 1641.21 149.89 1641.44 154.52L1601.95 154.52C1600.69 134.36 1597.33 91.51 1530.11 91.51C1482.64 91.51 1458.7 111.25 1458.7 141.5C1458.7 171.75 1472.56 175.95 1549.02 204.51C1616.23 229.3 1649 245.68 1649 292.73C1649.42 349.87 1594.81 383.79 1529.69 383.79Z" />
			<path id="Layer" class="shp0" d="M384.4 470.02L384.4 439.35L383.56 443.24L375.05 470.02L368.33 470.02L359.82 443.24L358.88 439.35L358.88 470.02L353.63 470.02L353.63 431.58L361.5 431.58L370.74 460.14L371.69 463.61L372.64 460.14L381.88 431.58L389.75 431.58L389.75 470.02L384.4 470.02Z" />
			<path id="Layer" class="shp0" d="M403.51 437.04L403.51 431.58L408.97 431.58L408.97 437.04L403.51 437.04ZM403.51 470.02L403.51 442.39L408.97 442.39L408.97 470.02L403.51 470.02Z" />
			<path id="Layer" class="shp0" d="M439.54 470.02L439.54 451.53C439.59 450.82 439.5 450.11 439.27 449.43C439.04 448.76 438.67 448.14 438.19 447.62C437.7 447.1 437.11 446.68 436.46 446.39C435.81 446.11 435.1 445.96 434.39 445.97C433.32 446.07 432.28 446.38 431.32 446.89C430.37 447.39 429.53 448.08 428.83 448.9C428.14 449.73 427.62 450.68 427.29 451.71C426.97 452.74 426.85 453.82 426.93 454.89L426.93 470.02L421.47 470.02L421.47 442.39L426.62 442.39L426.62 445.97C427.1 445.21 427.69 444.51 428.35 443.9C429.01 443.29 429.75 442.77 430.55 442.35C431.35 441.93 432.2 441.61 433.07 441.4C433.95 441.2 434.85 441.11 435.75 441.13C437 441.05 438.24 441.24 439.4 441.69C440.56 442.14 441.6 442.84 442.46 443.75C443.31 444.65 443.95 445.73 444.34 446.92C444.72 448.1 444.84 449.35 444.68 450.59L444.68 470.02L439.54 470.02Z" />
			<path id="Layer" class="shp0" d="M457.18 437.04L457.18 431.58L462.54 431.58L462.54 437.04L457.18 437.04ZM457.18 470.02L457.18 442.39L462.54 442.39L462.54 470.02L457.18 470.02Z" />
			<path id="Layer" class="shp0" d="M505.7 470.02L505.7 451.43C505.77 450.85 505.73 450.27 505.57 449.71C505.42 449.16 505.15 448.64 504.78 448.19C504.42 447.73 503.97 447.36 503.46 447.09C502.95 446.82 502.39 446.65 501.82 446.6C497.19 446.6 496.04 452.69 496.04 454.26L496.04 470.02L490.58 470.02L490.58 451.43C490.65 450.85 490.61 450.27 490.45 449.71C490.29 449.16 490.02 448.64 489.66 448.19C489.3 447.73 488.85 447.36 488.34 447.09C487.83 446.82 487.27 446.65 486.69 446.6C482.81 446.6 480.92 451.32 480.92 454.26L480.92 470.02L475.56 470.02L475.56 442.39L480.6 442.39L480.6 445.44C480.97 444.8 481.43 444.2 481.95 443.68C482.47 443.15 483.06 442.69 483.71 442.31C484.35 441.94 485.04 441.65 485.75 441.45C486.47 441.25 487.21 441.14 487.95 441.13C488.74 441.15 489.52 441.28 490.27 441.52C491.02 441.76 491.74 442.11 492.39 442.55C493.04 443 493.62 443.53 494.11 444.15C494.61 444.76 495.01 445.45 495.3 446.18C495.64 445.44 496.08 444.76 496.61 444.15C497.14 443.54 497.75 443.01 498.42 442.56C499.09 442.12 499.83 441.77 500.6 441.53C501.37 441.29 502.16 441.16 502.97 441.13C503.96 441.12 504.94 441.29 505.86 441.64C506.78 441.99 507.63 442.52 508.36 443.19C509.08 443.85 509.67 444.65 510.1 445.54C510.53 446.43 510.78 447.4 510.85 448.38L510.85 470.02L505.7 470.02Z" />
			<path id="Layer" fill-rule="evenodd" class="shp0" d="M543.06 471.16C542.7 471.07 542.36 470.94 542.04 470.77C541.72 470.59 541.42 470.38 541.15 470.13C540.89 469.88 540.66 469.59 540.46 469.28C540.34 469.07 540.22 468.85 540.13 468.62C540.03 468.39 539.95 468.16 539.89 467.92C539.83 467.68 539.78 467.43 539.76 467.19C539.73 466.94 539.72 466.69 539.73 466.45C539.2 467.18 538.58 467.86 537.89 468.45C537.2 469.05 536.44 469.56 535.63 469.98C534.82 470.39 533.97 470.72 533.08 470.93C532.2 471.15 531.29 471.27 530.38 471.28C529.25 471.35 528.12 471.19 527.06 470.8C526 470.42 525.03 469.81 524.21 469.04C523.39 468.26 522.74 467.32 522.3 466.27C521.87 465.23 521.65 464.11 521.67 462.98C521.67 454.79 529.65 453.95 533.95 453.53C538.26 453.11 539.73 453.53 539.73 449.54C539.73 445.55 536.26 445.55 534.27 445.55C532.27 445.55 528.18 445.55 527.86 450.17L522.82 450.17C523.35 447.12 524.4 441.13 534.58 441.13C540.04 441.13 545.09 443.13 545.09 450.27L545.09 464.35C545.09 465.61 545.09 466.66 546.87 466.66C546.97 466.69 547.08 466.72 547.18 466.74C547.29 466.76 547.39 466.77 547.5 466.77C547.61 466.77 547.72 466.76 547.82 466.74C547.93 466.72 548.03 466.69 548.13 466.66L548.13 470.02C547.83 470.2 547.52 470.36 547.2 470.51C546.88 470.65 546.55 470.78 546.21 470.89C545.88 470.99 545.53 471.08 545.19 471.14C544.84 471.21 544.49 471.25 544.14 471.28C543.78 471.29 543.41 471.25 543.06 471.16ZM540.04 456.78C539.5 457.03 538.94 457.25 538.38 457.43C537.81 457.62 537.24 457.79 536.66 457.92C536.08 458.05 535.49 458.15 534.9 458.23C534.3 458.3 533.71 458.34 533.11 458.36C530.91 458.36 527.55 459.3 527.55 462.66C527.54 463.19 527.65 463.71 527.86 464.19C528.07 464.67 528.38 465.1 528.76 465.46C529.15 465.81 529.6 466.08 530.1 466.25C530.59 466.42 531.12 466.49 531.64 466.45C536.05 466.45 540.04 462.77 540.04 460.35L540.04 456.78Z" />
			<path id="Layer" class="shp0" d="M558.53 470.02L558.53 431.58L563.89 431.58L563.89 470.02L558.53 470.02Z" />
			<path id="Layer" class="shp0" d="M577.33 470.02L577.33 431.58L582.79 431.58L582.79 470.02L577.33 470.02Z" />
			<path id="Layer" class="shp0" d="M606.42 472.43C604.21 478.52 600.85 478.52 599.28 478.52C598.88 478.53 598.48 478.51 598.09 478.47C597.7 478.42 597.31 478.34 596.93 478.23C596.54 478.13 596.17 477.99 595.81 477.83C595.45 477.67 595.1 477.48 594.76 477.26L594.76 472.75C595 472.94 595.25 473.11 595.51 473.26C595.77 473.41 596.05 473.53 596.34 473.63C596.62 473.73 596.92 473.8 597.22 473.85C597.52 473.89 597.82 473.91 598.12 473.9C599.7 473.9 601.27 473.27 602.32 470.02L592.56 442.39L598.12 442.39L604.74 461.82L611.57 442.39L617.34 442.39L606.42 472.43Z" />
			<path id="Layer" class="shp0" d="M651.27 470.02L651.27 431.58L657.04 431.58L657.04 470.02L651.27 470.02Z" />
			<path id="Layer" class="shp0" d="M688.02 470.02L688.02 451.53C688.08 450.82 687.99 450.11 687.76 449.43C687.53 448.76 687.16 448.14 686.67 447.62C686.19 447.1 685.6 446.68 684.95 446.39C684.3 446.11 683.59 445.96 682.88 445.97C681.81 446.08 680.78 446.41 679.83 446.91C678.88 447.42 678.04 448.11 677.36 448.93C676.67 449.75 676.14 450.7 675.81 451.72C675.48 452.75 675.35 453.82 675.42 454.89L675.42 470.02L669.96 470.02L669.96 442.39L675.21 442.39L675.21 445.97C675.7 445.2 676.29 444.5 676.96 443.88C677.63 443.27 678.38 442.74 679.19 442.32C680 441.9 680.86 441.58 681.74 441.38C682.63 441.18 683.54 441.1 684.45 441.13C685.69 441.06 686.92 441.26 688.06 441.72C689.21 442.18 690.24 442.89 691.08 443.79C691.93 444.69 692.56 445.77 692.94 446.94C693.32 448.12 693.43 449.36 693.28 450.59L693.28 470.02L688.02 470.02Z" />
			<path id="Layer" class="shp0" d="M717.22 470.02L712.18 470.02L701.68 442.39L708.08 442.39L714.81 462.35L721.63 442.39L727.3 442.39L717.22 470.02Z" />
			<path id="Layer" fill-rule="evenodd" class="shp0" d="M756.26 471.16C755.9 471.07 755.56 470.94 755.24 470.77C754.92 470.59 754.62 470.38 754.35 470.13C754.09 469.88 753.86 469.59 753.66 469.28C753.53 469.07 753.41 468.85 753.31 468.62C753.2 468.4 753.12 468.16 753.04 467.92C752.97 467.68 752.92 467.44 752.88 467.19C752.85 466.94 752.83 466.7 752.82 466.45C752.31 467.19 751.7 467.86 751.02 468.46C750.34 469.05 749.59 469.57 748.79 469.99C747.99 470.41 747.14 470.73 746.26 470.94C745.39 471.16 744.49 471.27 743.58 471.28C742.45 471.36 741.3 471.21 740.23 470.84C739.15 470.46 738.17 469.86 737.34 469.08C736.51 468.3 735.85 467.35 735.41 466.3C734.96 465.25 734.74 464.12 734.76 462.98C734.76 454.79 742.85 453.95 747.15 453.53C751.46 453.11 752.82 453.53 752.82 449.54C752.82 445.55 749.46 445.55 747.47 445.55C745.47 445.55 741.27 445.55 741.06 450.17L735.92 450.17C736.44 447.12 737.6 441.13 747.78 441.13C753.14 441.13 758.29 443.13 758.29 450.27L758.29 464.35C758.29 465.61 758.29 466.66 759.97 466.66C760.07 466.69 760.17 466.72 760.28 466.74C760.38 466.76 760.49 466.77 760.6 466.77C760.7 466.77 760.81 466.76 760.92 466.74C761.02 466.72 761.13 466.69 761.23 466.66L761.23 470.02C760.94 470.2 760.63 470.37 760.32 470.52C760.01 470.66 759.69 470.79 759.36 470.9C759.04 471 758.7 471.09 758.36 471.15C758.03 471.21 757.68 471.26 757.34 471.28C756.98 471.29 756.61 471.25 756.26 471.16ZM752.82 456.78C752.28 457.03 751.72 457.25 751.16 457.43C750.59 457.62 750.02 457.79 749.44 457.92C748.86 458.05 748.27 458.15 747.68 458.23C747.08 458.3 746.49 458.34 745.89 458.36C743.69 458.36 740.33 459.3 740.33 462.66C740.32 463.19 740.43 463.71 740.64 464.19C740.85 464.67 741.16 465.1 741.54 465.46C741.93 465.81 742.38 466.08 742.88 466.25C743.37 466.42 743.9 466.49 744.42 466.45C748.94 466.45 752.82 462.77 752.82 460.35L752.82 456.78Z" />
			<path id="Layer" class="shp0" d="M780.55 471.28C779.88 471.29 779.22 471.25 778.56 471.16C777.9 471.07 777.24 470.93 776.6 470.74C775.96 470.56 775.34 470.32 774.73 470.04C774.13 469.76 773.55 469.44 772.99 469.07C772.43 468.62 771.93 468.1 771.49 467.53C771.05 466.96 770.68 466.35 770.38 465.69C770.08 465.04 769.86 464.35 769.71 463.65C769.57 462.95 769.5 462.23 769.52 461.51L774.77 461.51C774.77 465.71 777.82 466.66 780.76 466.66C783.7 466.66 786.43 465.4 786.43 462.56C786.43 459.72 784.65 459.2 779.08 457.62C773.51 456.05 770.47 454.47 770.47 449.75C770.53 448.47 770.85 447.21 771.43 446.07C772 444.93 772.81 443.91 773.8 443.1C774.79 442.29 775.94 441.7 777.18 441.36C778.41 441.02 779.7 440.94 780.97 441.13C781.81 441.09 782.65 441.14 783.48 441.3C784.3 441.45 785.1 441.71 785.87 442.05C786.63 442.4 787.36 442.84 788.02 443.35C788.68 443.87 789.27 444.47 789.79 445.13C790.04 445.47 790.26 445.83 790.45 446.21C790.65 446.58 790.82 446.97 790.96 447.37C791.1 447.77 791.22 448.18 791.3 448.59C791.39 449.01 791.45 449.43 791.47 449.85L785.8 449.85C785.74 449.24 785.55 448.65 785.26 448.1C784.97 447.56 784.57 447.08 784.09 446.69C783.61 446.3 783.07 446.01 782.48 445.83C781.89 445.65 781.27 445.59 780.66 445.65C777.72 445.65 775.61 447.23 775.61 449.22C775.61 451.22 777.4 452.27 781.92 453.42C788.85 455.21 791.68 457.2 791.68 461.72C791.68 466.24 788.01 471.28 780.55 471.28Z" />
			<path id="Layer" class="shp0" d="M803.13 437.04L803.13 431.58L808.59 431.58L808.59 437.04L803.13 437.04ZM803.13 470.02L803.13 442.39L808.59 442.39L808.59 470.02L803.13 470.02Z" />
			<path id="Layer" class="shp0" d="M834.11 470.02L829.07 470.02L819.09 442.39L824.77 442.39L831.59 462.35L838.31 442.39L844.09 442.39L834.11 470.02Z" />
			<path id="Layer" fill-rule="evenodd" class="shp0" d="M857.11 457.52C857.11 459.51 858.06 466.45 864.15 466.45C864.92 466.45 865.69 466.33 866.41 466.09C867.14 465.84 867.83 465.47 868.43 465C869.04 464.53 869.56 463.95 869.98 463.3C870.39 462.66 870.69 461.94 870.87 461.19L876.12 461.19C875.97 462.63 875.55 464.03 874.89 465.31C874.23 466.59 873.34 467.75 872.26 468.71C871.19 469.67 869.94 470.43 868.59 470.94C867.24 471.45 865.8 471.71 864.36 471.7C862.49 471.59 860.67 471.11 859 470.28C857.32 469.45 855.84 468.28 854.63 466.86C853.42 465.43 852.51 463.78 851.97 461.99C851.42 460.21 851.24 458.33 851.44 456.47C851.25 454.61 851.45 452.74 852.02 450.96C852.59 449.19 853.52 447.55 854.75 446.15C855.98 444.75 857.49 443.62 859.18 442.83C860.87 442.04 862.71 441.6 864.57 441.55C865.71 441.54 866.85 441.71 867.94 442.05C869.03 442.39 870.06 442.89 871 443.55C871.94 444.2 872.76 445 873.46 445.91C874.15 446.82 874.69 447.83 875.07 448.91C875.32 449.63 875.54 450.36 875.72 451.11C875.9 451.85 876.04 452.6 876.14 453.36C876.25 454.12 876.32 454.88 876.35 455.65C876.38 456.41 876.38 457.17 876.33 457.94L857.11 457.52ZM857.22 452.9L871.19 452.9C871.22 451.98 871.06 451.06 870.73 450.2C870.4 449.35 869.9 448.56 869.27 447.9C868.63 447.23 867.87 446.7 867.03 446.33C866.19 445.97 865.28 445.77 864.36 445.76C858.79 445.76 857.64 451.22 857.22 452.9Z" />
			<path id="Layer" class="shp0" d="M927.27 471.28C924.63 471.25 922.03 470.67 919.64 469.57C917.24 468.47 915.11 466.88 913.37 464.89C911.64 462.91 910.34 460.58 909.57 458.06C908.8 455.54 908.57 452.89 908.89 450.27C908.65 447.69 908.96 445.1 909.8 442.65C910.64 440.2 911.98 437.95 913.75 436.06C915.51 434.16 917.66 432.66 920.04 431.66C922.43 430.65 925 430.16 927.59 430.21C929.45 429.99 931.35 430.14 933.16 430.65C934.97 431.15 936.66 432.01 938.14 433.17C939.62 434.33 940.86 435.77 941.79 437.41C942.72 439.04 943.32 440.84 943.55 442.71L937.77 442.71C937.41 441.63 936.87 440.62 936.19 439.71C935.5 438.8 934.67 438.01 933.72 437.37C932.78 436.73 931.74 436.25 930.64 435.94C929.55 435.63 928.41 435.51 927.27 435.57C926.57 435.56 925.88 435.61 925.19 435.72C924.5 435.83 923.82 436 923.16 436.22C922.5 436.44 921.86 436.72 921.25 437.05C920.63 437.38 920.05 437.76 919.5 438.19C918.67 438.99 917.93 439.88 917.29 440.84C916.66 441.8 916.13 442.83 915.72 443.91C915.32 444.99 915.03 446.11 914.87 447.25C914.71 448.39 914.68 449.54 914.77 450.69C914.77 461.19 921.7 465.61 927.06 465.61C928.39 465.61 929.7 465.36 930.94 464.87C932.17 464.38 933.31 463.66 934.27 462.76C935.24 461.85 936.03 460.76 936.59 459.56C937.15 458.36 937.48 457.06 937.56 455.73L943.34 455.73C943.39 457.83 943 459.92 942.2 461.86C941.4 463.8 940.21 465.56 938.7 467.02C937.19 468.48 935.4 469.61 933.43 470.34C931.46 471.07 929.37 471.39 927.27 471.28L927.27 471.28Z" />
			<path id="Layer" fill-rule="evenodd" class="shp0" d="M974.81 471.16C974.46 471.07 974.11 470.94 973.79 470.77C973.47 470.59 973.17 470.38 972.91 470.13C972.64 469.88 972.41 469.59 972.22 469.28C972.09 469.07 971.98 468.85 971.88 468.62C971.79 468.39 971.71 468.16 971.65 467.92C971.59 467.68 971.54 467.43 971.51 467.19C971.49 466.94 971.48 466.69 971.49 466.45C970.95 467.18 970.33 467.86 969.64 468.45C968.95 469.05 968.2 469.56 967.39 469.98C966.58 470.39 965.72 470.72 964.84 470.93C963.96 471.15 963.05 471.27 962.14 471.28C961.01 471.35 959.88 471.19 958.82 470.8C957.75 470.42 956.78 469.81 955.96 469.04C955.15 468.26 954.5 467.32 954.06 466.27C953.62 465.23 953.4 464.11 953.42 462.98C953.42 454.79 961.4 453.95 965.71 453.53C970.02 453.11 971.49 453.53 971.49 449.54C971.49 445.55 968.02 445.55 966.02 445.55C964.03 445.55 959.93 445.55 959.62 450.17L954.58 450.17C955.1 447.12 956.15 441.13 966.34 441.13C971.8 441.13 976.84 443.13 976.84 450.27L976.84 464.35C976.84 465.61 976.84 466.66 978.52 466.66C978.63 466.7 978.74 466.73 978.86 466.75C978.97 466.77 979.09 466.78 979.21 466.78C979.32 466.78 979.44 466.77 979.55 466.75C979.67 466.73 979.78 466.7 979.89 466.66L979.89 470.02C979.59 470.2 979.27 470.36 978.95 470.51C978.63 470.65 978.3 470.78 977.97 470.89C977.63 470.99 977.29 471.08 976.94 471.14C976.6 471.21 976.25 471.25 975.9 471.28C975.53 471.29 975.17 471.25 974.81 471.16ZM971.49 456.78C970.94 457.03 970.39 457.25 969.82 457.43C969.25 457.62 968.68 457.79 968.1 457.92C967.52 458.05 966.93 458.15 966.34 458.23C965.75 458.3 965.15 458.34 964.55 458.36C962.35 458.36 958.99 459.3 958.99 462.66C958.99 463.19 959.09 463.71 959.3 464.19C959.51 464.67 959.82 465.1 960.2 465.46C960.59 465.81 961.04 466.08 961.54 466.25C962.04 466.42 962.56 466.49 963.08 466.45C967.49 466.45 971.49 462.77 971.49 460.35L971.49 456.78Z" />
			<path id="Layer" class="shp0" d="M997.32 448.28C996.88 448.75 996.49 449.26 996.13 449.79C995.78 450.33 995.47 450.9 995.22 451.49C994.96 452.07 994.75 452.68 994.59 453.31C994.43 453.93 994.33 454.57 994.28 455.21L994.28 470.02L988.92 470.02L988.92 442.39L994.07 442.39L994.07 445.65C994.45 445.02 994.91 444.44 995.43 443.91C995.95 443.39 996.53 442.93 997.16 442.54C997.78 442.15 998.45 441.83 999.15 441.59C999.85 441.36 1000.58 441.2 1001.31 441.13C1001.38 441.11 1001.45 441.1 1001.52 441.08C1001.59 441.07 1001.66 441.07 1001.73 441.07C1001.8 441.07 1001.88 441.07 1001.95 441.08C1002.02 441.1 1002.09 441.11 1002.15 441.13L1002.15 446.28C1001.71 446.29 1001.26 446.33 1000.82 446.42C1000.39 446.51 999.96 446.64 999.55 446.81C999.13 446.98 998.74 447.19 998.36 447.44C997.99 447.68 997.64 447.96 997.32 448.28Z" />
			<path id="Layer" fill-rule="evenodd" class="shp0" d="M1036.18 431.58L1036.18 470.02L1031.14 470.02L1031.14 466.97C1030.68 467.65 1030.13 468.27 1029.52 468.81C1028.9 469.35 1028.22 469.82 1027.49 470.19C1026.76 470.57 1025.98 470.85 1025.18 471.03C1024.38 471.22 1023.56 471.3 1022.74 471.28C1019.22 470.62 1016.05 468.75 1013.76 466C1011.48 463.25 1010.23 459.78 1010.23 456.21C1010.23 452.63 1011.48 449.17 1013.76 446.41C1016.05 443.66 1019.22 441.79 1022.74 441.13C1023.52 441.11 1024.31 441.17 1025.08 441.33C1025.85 441.49 1026.6 441.74 1027.31 442.08C1028.02 442.42 1028.68 442.84 1029.29 443.33C1029.9 443.83 1030.45 444.4 1030.93 445.02L1030.93 431.58L1036.18 431.58ZM1023.16 466.45C1028.51 466.45 1030.93 461.72 1030.93 455.94C1030.93 450.17 1028.51 445.44 1023.16 445.44C1017.8 445.44 1015.49 449.85 1015.49 455.94C1015.49 462.03 1018.01 466.45 1023.16 466.45Z" />
			<path id="Layer" class="shp0" d="M1048.47 437.04L1048.47 431.58L1053.83 431.58L1053.83 437.04L1048.47 437.04ZM1048.47 470.02L1048.47 442.39L1053.83 442.39L1053.83 470.02L1048.47 470.02Z" />
			<path id="Layer" fill-rule="evenodd" class="shp0" d="M1087.43 471.28C1087.07 471.29 1086.7 471.25 1086.35 471.16C1085.99 471.07 1085.65 470.94 1085.33 470.77C1085.01 470.59 1084.71 470.38 1084.45 470.13C1084.18 469.88 1083.95 469.59 1083.76 469.28C1083.62 469.07 1083.5 468.85 1083.4 468.62C1083.3 468.4 1083.21 468.16 1083.14 467.92C1083.07 467.68 1083.01 467.44 1082.98 467.19C1082.94 466.94 1082.92 466.7 1082.92 466.45C1082.4 467.19 1081.79 467.86 1081.11 468.46C1080.43 469.05 1079.69 469.57 1078.88 469.99C1078.08 470.41 1077.23 470.73 1076.36 470.94C1075.48 471.16 1074.58 471.27 1073.67 471.28C1072.54 471.36 1071.4 471.21 1070.32 470.84C1069.25 470.46 1068.26 469.86 1067.43 469.08C1066.6 468.3 1065.94 467.35 1065.5 466.3C1065.05 465.25 1064.83 464.12 1064.85 462.98C1064.85 454.79 1072.94 453.95 1077.25 453.53C1081.55 453.11 1082.92 453.53 1082.92 449.54C1082.92 445.55 1079.56 445.55 1077.56 445.55C1075.57 445.55 1071.36 445.55 1071.15 450.17L1066.01 450.17C1066.01 447.12 1067.69 441.13 1077.88 441.13C1083.23 441.13 1088.38 443.13 1088.38 450.27L1088.38 464.35C1088.38 465.61 1088.38 466.66 1090.06 466.66C1090.16 466.69 1090.26 466.72 1090.37 466.74C1090.47 466.76 1090.58 466.77 1090.69 466.77C1090.8 466.77 1090.9 466.76 1091.01 466.74C1091.11 466.72 1091.22 466.69 1091.32 466.66L1091.32 470.02C1091.03 470.2 1090.73 470.37 1090.42 470.52C1090.1 470.66 1089.78 470.79 1089.46 470.9C1089.13 471 1088.8 471.09 1088.46 471.15C1088.12 471.21 1087.78 471.26 1087.43 471.28ZM1082.92 456.78C1082.37 457.03 1081.82 457.25 1081.25 457.43C1080.69 457.62 1080.11 457.79 1079.53 457.92C1078.95 458.05 1078.36 458.15 1077.77 458.23C1077.18 458.3 1076.58 458.34 1075.99 458.36C1073.78 458.36 1070.42 459.3 1070.42 462.66C1070.42 463.19 1070.52 463.71 1070.73 464.19C1070.94 464.67 1071.25 465.1 1071.64 465.46C1072.02 465.81 1072.48 466.08 1072.97 466.25C1073.47 466.42 1073.99 466.49 1074.52 466.45C1079.03 466.45 1082.92 462.77 1082.92 460.35L1082.92 456.78Z" />
			<path id="Layer" class="shp0" d="M1119.57 451.43C1119.5 450.64 1119.29 449.87 1118.93 449.17C1118.58 448.46 1118.09 447.83 1117.5 447.31C1116.91 446.78 1116.23 446.38 1115.48 446.11C1114.74 445.85 1113.95 445.73 1113.16 445.76C1109.38 445.76 1104.97 448.17 1104.97 456.26C1104.97 458.67 1104.97 466.76 1112.43 466.76C1113.31 466.87 1114.21 466.78 1115.05 466.51C1115.9 466.24 1116.68 465.79 1117.33 465.19C1117.99 464.6 1118.51 463.86 1118.86 463.05C1119.21 462.23 1119.38 461.35 1119.36 460.46L1124.82 460.46C1124.68 461.97 1124.24 463.44 1123.53 464.79C1122.82 466.14 1121.85 467.33 1120.68 468.3C1119.51 469.28 1118.16 470.01 1116.71 470.47C1115.26 470.92 1113.73 471.09 1112.22 470.96C1108.6 470.34 1105.33 468.44 1103.01 465.61C1100.68 462.77 1099.46 459.19 1099.56 455.53C1099.66 451.86 1101.08 448.35 1103.56 445.65C1106.04 442.95 1109.42 441.23 1113.06 440.82C1114.54 440.72 1116.03 440.91 1117.44 441.38C1118.84 441.86 1120.15 442.6 1121.27 443.58C1122.39 444.55 1123.31 445.74 1123.97 447.07C1124.63 448.39 1125.03 449.84 1125.14 451.32L1119.57 451.43Z" />
			<path id="Layer" class="shp0" d="M1172.82 471.28C1170.87 471.55 1168.89 471.4 1167.01 470.83C1165.13 470.27 1163.39 469.31 1161.92 468.01C1160.44 466.72 1159.26 465.12 1158.46 463.32C1157.66 461.53 1157.26 459.59 1157.27 457.62L1163.05 457.62C1163.08 458.91 1163.38 460.18 1163.94 461.35C1164.51 462.51 1165.32 463.53 1166.32 464.35C1167.31 465.17 1168.48 465.76 1169.73 466.09C1170.98 466.41 1172.28 466.46 1173.55 466.24C1178.8 466.24 1183.01 463.71 1183.01 459.62C1183.01 455.52 1178.49 454.37 1171.77 452.9C1165.05 451.43 1159.16 448.7 1159.16 442.39C1159.24 440.68 1159.67 439.01 1160.42 437.47C1161.18 435.93 1162.25 434.57 1163.57 433.47C1164.88 432.38 1166.41 431.57 1168.06 431.09C1169.71 430.62 1171.44 430.5 1173.13 430.74C1174.29 430.67 1175.46 430.74 1176.6 430.95C1177.75 431.15 1178.87 431.48 1179.94 431.93C1181.01 432.38 1182.02 432.96 1182.96 433.64C1183.9 434.32 1184.76 435.11 1185.53 435.99C1185.86 436.52 1186.16 437.07 1186.42 437.65C1186.68 438.22 1186.9 438.81 1187.08 439.41C1187.26 440.01 1187.39 440.63 1187.48 441.25C1187.58 441.87 1187.62 442.5 1187.63 443.13L1182.06 443.13C1182.06 436.93 1176.81 435.99 1173.24 435.99C1169.67 435.99 1164.84 437.25 1164.84 441.87C1164.84 444.6 1166.2 446.07 1174.71 447.96C1183.22 449.85 1188.68 452.79 1188.68 459.51C1188.68 466.24 1183.43 471.28 1172.82 471.28Z" />
			<path id="Layer" class="shp0" d="M1217.24 470.02L1217.24 466.45C1216.75 467.21 1216.16 467.91 1215.49 468.53C1214.82 469.14 1214.07 469.67 1213.26 470.09C1212.46 470.51 1211.6 470.83 1210.71 471.03C1209.82 471.23 1208.91 471.31 1208 471.28C1206.76 471.35 1205.52 471.15 1204.36 470.68C1203.21 470.22 1202.17 469.5 1201.33 468.59C1200.48 467.67 1199.85 466.58 1199.48 465.4C1199.11 464.21 1199.01 462.95 1199.18 461.72L1199.18 442.39L1204.64 442.39L1204.64 460.77C1204.58 461.49 1204.67 462.21 1204.9 462.89C1205.14 463.57 1205.5 464.19 1205.99 464.72C1206.47 465.26 1207.05 465.68 1207.71 465.98C1208.36 466.27 1209.07 466.43 1209.79 466.45C1210.85 466.3 1211.88 465.96 1212.83 465.44C1213.77 464.92 1214.6 464.22 1215.29 463.39C1215.97 462.56 1216.5 461.61 1216.83 460.59C1217.17 459.56 1217.31 458.49 1217.24 457.41L1217.24 442.39L1222.7 442.39L1222.7 470.02L1217.24 470.02Z" />
			<path id="Layer" class="shp0" d="M1241.61 448.28C1241.18 448.75 1240.78 449.26 1240.44 449.79C1240.09 450.33 1239.79 450.9 1239.54 451.49C1239.29 452.08 1239.09 452.69 1238.95 453.31C1238.8 453.93 1238.71 454.57 1238.67 455.21L1238.67 470.02L1233.21 470.02L1233.21 442.39L1238.35 442.39L1238.35 445.65C1238.72 445.02 1239.16 444.43 1239.67 443.9C1240.18 443.37 1240.75 442.91 1241.37 442.52C1241.99 442.13 1242.65 441.81 1243.35 441.58C1244.04 441.34 1244.76 441.2 1245.5 441.13C1246.23 441.07 1246.23 441.13 1246.34 441.13L1246.34 446.28C1245.9 446.3 1245.46 446.36 1245.04 446.45C1244.61 446.55 1244.2 446.68 1243.79 446.85C1243.39 447.02 1243 447.23 1242.64 447.47C1242.27 447.71 1241.93 447.98 1241.61 448.28L1241.61 448.28Z" />
			<path id="Layer" fill-rule="evenodd" class="shp0" d="M1281.2 447.33C1281.1 447.24 1280.98 447.15 1280.86 447.07C1280.73 447 1280.6 446.93 1280.47 446.88C1280.34 446.83 1280.2 446.78 1280.06 446.75C1279.92 446.72 1279.77 446.71 1279.63 446.7C1279.37 446.75 1279.12 446.82 1278.87 446.91C1278.62 447 1278.38 447.11 1278.15 447.23C1277.92 447.35 1277.7 447.5 1277.49 447.65C1277.28 447.81 1277.08 447.98 1276.9 448.17C1278.37 453.74 1273.43 458.67 1266.4 458.67C1266.08 458.67 1265.77 458.66 1265.47 458.63C1265.16 458.61 1264.85 458.58 1264.54 458.53C1264.23 458.49 1263.93 458.43 1263.62 458.37C1263.32 458.31 1263.02 458.23 1262.72 458.15C1261.46 458.88 1261.04 459.41 1261.04 460.04C1261.01 460.1 1260.98 460.17 1260.97 460.24C1260.95 460.31 1260.94 460.39 1260.94 460.46C1260.94 460.53 1260.95 460.6 1260.97 460.67C1260.98 460.75 1261.01 460.81 1261.04 460.88C1261.6 461.09 1262.17 461.27 1262.75 461.43C1263.32 461.58 1263.91 461.71 1264.5 461.81C1265.09 461.9 1265.69 461.97 1266.28 462.01C1266.88 462.05 1267.48 462.06 1268.08 462.03C1276.48 462.03 1279.73 465.29 1279.73 470.12C1279.73 477.05 1272.07 478.21 1266.19 478.21C1262.19 478.21 1253.79 477.58 1253.79 471.8C1253.83 471.16 1253.96 470.53 1254.18 469.92C1254.4 469.32 1254.7 468.75 1255.08 468.23C1255.46 467.71 1255.91 467.25 1256.42 466.86C1256.93 466.47 1257.5 466.15 1258.1 465.92C1257.65 465.81 1257.22 465.63 1256.84 465.38C1256.45 465.13 1256.1 464.82 1255.81 464.47C1255.52 464.11 1255.28 463.71 1255.12 463.28C1254.96 462.84 1254.86 462.39 1254.84 461.93C1254.84 459.3 1256.84 457.83 1258.52 456.47C1257.93 456.11 1257.4 455.68 1256.92 455.19C1256.44 454.7 1256.03 454.15 1255.69 453.56C1255.35 452.96 1255.09 452.33 1254.91 451.67C1254.73 451.01 1254.64 450.33 1254.63 449.64C1254.84 448.35 1255.28 447.12 1255.94 445.99C1256.6 444.87 1257.46 443.87 1258.48 443.06C1259.5 442.25 1260.67 441.64 1261.91 441.26C1263.16 440.87 1264.46 440.73 1265.76 440.82C1266.55 440.79 1267.33 440.84 1268.11 440.96C1268.88 441.09 1269.64 441.28 1270.38 441.55C1271.12 441.82 1271.82 442.16 1272.49 442.57C1273.17 442.97 1273.8 443.44 1274.38 443.97C1274.67 443.58 1275 443.22 1275.36 442.89C1275.73 442.57 1276.13 442.28 1276.55 442.04C1276.97 441.8 1277.42 441.6 1277.89 441.44C1278.35 441.29 1278.83 441.19 1279.31 441.13C1279.48 441.1 1279.64 441.07 1279.81 441.05C1279.98 441.04 1280.14 441.03 1280.31 441.03C1280.48 441.03 1280.65 441.04 1280.81 441.05C1280.98 441.07 1281.14 441.1 1281.31 441.13L1281.2 447.33ZM1259.04 470.75C1259.04 473.9 1265.55 474.11 1267.24 474.11C1271.33 474.11 1273.85 473.27 1273.85 470.86C1273.85 468.44 1270.07 467.81 1263.35 467.08C1262.3 467.5 1259.04 468.34 1259.04 470.75ZM1266.08 454.79C1269.97 454.79 1271.75 452.48 1271.75 450.06C1271.75 447.65 1269.44 445.34 1265.87 445.34C1262.3 445.34 1260.2 447.65 1260.2 450.06C1260.2 452.48 1262.4 454.79 1266.08 454.79Z" />
			<path id="Layer" fill-rule="evenodd" class="shp0" d="M1294.44 457.52C1294.44 459.51 1295.28 466.45 1301.47 466.45C1302.24 466.45 1303.01 466.33 1303.74 466.09C1304.47 465.84 1305.15 465.47 1305.76 465C1306.36 464.53 1306.88 463.95 1307.3 463.3C1307.71 462.66 1308.02 461.94 1308.19 461.19L1313.45 461.19C1313.29 462.63 1312.87 464.03 1312.21 465.31C1311.55 466.59 1310.66 467.75 1309.59 468.71C1308.51 469.67 1307.26 470.43 1305.91 470.94C1304.56 471.45 1303.13 471.71 1301.68 471.7C1299.81 471.59 1297.98 471.11 1296.31 470.28C1294.63 469.45 1293.14 468.29 1291.92 466.87C1290.7 465.44 1289.78 463.79 1289.22 462C1288.67 460.21 1288.47 458.33 1288.66 456.47C1288.47 454.6 1288.67 452.72 1289.25 450.94C1289.82 449.15 1290.76 447.51 1292.01 446.11C1293.25 444.71 1294.77 443.58 1296.47 442.79C1298.17 442.01 1300.02 441.59 1301.89 441.55C1303.04 441.54 1304.17 441.71 1305.26 442.05C1306.35 442.39 1307.39 442.89 1308.32 443.55C1309.26 444.2 1310.09 445 1310.78 445.91C1311.47 446.82 1312.02 447.83 1312.4 448.91C1312.65 449.63 1312.86 450.36 1313.04 451.11C1313.22 451.85 1313.36 452.6 1313.47 453.36C1313.57 454.12 1313.64 454.88 1313.67 455.65C1313.7 456.41 1313.7 457.17 1313.66 457.94L1294.44 457.52ZM1294.54 452.9L1308.51 452.9C1308.54 451.98 1308.38 451.06 1308.05 450.2C1307.72 449.35 1307.23 448.56 1306.59 447.9C1305.96 447.23 1305.2 446.7 1304.35 446.33C1303.51 445.97 1302.6 445.77 1301.68 445.76C1296.12 445.76 1294.96 451.22 1294.54 452.9Z" />
			<path id="Layer" class="shp0" d="M1332.35 448.28C1331.9 448.73 1331.48 449.23 1331.12 449.77C1330.76 450.3 1330.44 450.87 1330.18 451.46C1329.92 452.05 1329.72 452.66 1329.57 453.29C1329.42 453.92 1329.33 454.56 1329.3 455.21L1329.3 470.02L1323.84 470.02L1323.84 442.39L1328.99 442.39L1328.99 445.65C1329.37 445.02 1329.82 444.43 1330.34 443.9C1330.86 443.37 1331.44 442.91 1332.07 442.52C1332.7 442.13 1333.37 441.81 1334.07 441.58C1334.77 441.34 1335.5 441.2 1336.24 441.13C1336.3 441.11 1336.37 441.1 1336.44 441.08C1336.51 441.07 1336.59 441.07 1336.66 441.07C1336.73 441.07 1336.8 441.07 1336.87 441.08C1336.94 441.1 1337.01 441.11 1337.08 441.13L1337.08 446.28C1336.64 446.29 1336.2 446.34 1335.78 446.44C1335.35 446.53 1334.93 446.66 1334.53 446.83C1334.12 447 1333.74 447.21 1333.37 447.45C1333.01 447.69 1332.66 447.97 1332.35 448.28Z" />
			<path id="Layer" class="shp0" d="M1357.24 472.43C1355.04 478.52 1351.68 478.52 1350.1 478.52C1349.7 478.53 1349.31 478.51 1348.91 478.47C1348.52 478.42 1348.13 478.34 1347.75 478.23C1347.36 478.13 1346.99 477.99 1346.63 477.83C1346.27 477.67 1345.92 477.48 1345.58 477.26L1345.58 472.75C1345.82 472.94 1346.07 473.11 1346.33 473.26C1346.6 473.41 1346.87 473.53 1347.16 473.63C1347.45 473.73 1347.74 473.8 1348.04 473.85C1348.34 473.89 1348.64 473.91 1348.94 473.9C1350.52 473.9 1352.1 473.27 1353.15 470.02L1343.69 442.39L1349.26 442.39L1355.98 461.82L1362.7 442.39L1368.48 442.39L1357.24 472.43Z" />
			<path id="Layer" class="shp0" d="M376.73 556.14C375.96 559.08 375.03 561.97 373.95 564.81C372.86 567.65 371.62 570.43 370.22 573.13C368.83 575.83 367.28 578.45 365.6 580.98C363.91 583.51 362.09 585.95 360.14 588.27L351 583.02C353.13 580.69 355.09 578.22 356.87 575.61C358.64 573 360.24 570.28 361.63 567.45C363.02 564.61 364.21 561.69 365.19 558.69C366.17 555.69 366.94 552.63 367.49 549.52L377.99 552.36C378.94 552.36 380.2 552.99 380.2 554.14C380.2 555.3 377.47 556.03 376.73 556.14ZM401.31 532.4C401.31 536.18 401.31 552.78 401.31 554.67L401.31 578.19C401.31 581.66 401.31 601.09 401.31 604.45C401.31 607.81 398.16 609.8 394.17 610.33C392.48 610.33 385.03 610.33 383.66 610.33L378.62 599.2C379.42 599.33 380.22 599.44 381.02 599.54C381.83 599.64 382.63 599.72 383.44 599.79C384.24 599.86 385.05 599.92 385.86 599.96C386.67 600 387.47 600.03 388.28 600.04C391.22 600.04 391.64 600.04 391.64 595.52L391.64 555.19C391.64 552.99 391.64 543.32 391.64 541.33C391.64 534.82 391.64 532.4 391.64 526.52L402.15 527.67C404.46 527.67 405.19 527.67 405.19 529.15C405.19 530.62 403.51 531.25 401.31 532.4L401.31 532.4ZM429.56 587.96C427.48 585.47 425.54 582.85 423.77 580.12C422 577.4 420.4 574.57 418.97 571.65C417.53 568.74 416.28 565.74 415.21 562.67C414.13 559.6 413.24 556.47 412.54 553.3L421.68 549.94C422.56 553.05 423.63 556.1 424.87 559.08C426.12 562.06 427.54 564.96 429.13 567.77C430.72 570.58 432.48 573.3 434.39 575.9C436.31 578.5 438.38 580.98 440.59 583.34L429.56 587.96Z" />
			<path id="Layer" class="shp0" d="M494.36 588.17C494.02 588.94 493.56 589.65 493 590.27C492.43 590.89 491.77 591.42 491.03 591.82C490.3 592.23 489.5 592.51 488.67 592.66C487.84 592.8 487 592.81 486.17 592.69L475.66 592.69C475 592.72 474.34 592.69 473.68 592.59C473.02 592.5 472.37 592.35 471.75 592.13C471.12 591.91 470.51 591.64 469.94 591.31C469.36 590.98 468.82 590.6 468.31 590.16C467.9 589.66 467.53 589.11 467.23 588.53C466.92 587.95 466.68 587.34 466.5 586.71C466.31 586.08 466.2 585.43 466.15 584.77C466.1 584.12 466.12 583.46 466.21 582.81L466.21 563.91C465.43 564.1 464.66 564.31 463.89 564.54C463.11 564.76 462.35 565 461.59 565.26C460.82 565.51 460.07 565.78 459.31 566.06C458.56 566.35 457.82 566.64 457.07 566.95L455.18 556.45C456.07 556.4 456.95 556.33 457.83 556.24C458.71 556.15 459.59 556.04 460.46 555.92C461.34 555.8 462.21 555.66 463.08 555.5C463.96 555.35 464.82 555.17 465.69 554.98L465.69 550.36C465.69 548.15 465.69 537.55 465.69 530.41L476.19 530.41C476.19 530.41 477.87 530.41 477.87 531.46C477.87 532.51 477.03 532.93 475.35 534.19C475.35 538.91 475.35 544.69 475.35 549.63L475.35 552.67L480.71 551.52C481.9 551.3 483.09 551.05 484.27 550.77C485.45 550.5 486.62 550.19 487.79 549.86C488.95 549.52 490.11 549.16 491.26 548.77C492.41 548.39 493.55 547.97 494.67 547.52L495.93 556.45C494.69 556.64 493.44 556.84 492.2 557.06C490.96 557.28 489.72 557.52 488.49 557.78C487.25 558.03 486.02 558.3 484.8 558.59C483.57 558.87 482.34 559.18 481.13 559.5L475.35 561.18L475.35 580.4C475.35 584.39 476.08 584.39 478.71 584.39L483.44 584.39C486.27 584.39 487.11 581.34 487.74 579.56C487.94 578.8 488.13 578.03 488.31 577.27C488.49 576.5 488.66 575.73 488.81 574.96C488.97 574.19 489.12 573.42 489.26 572.64C489.39 571.87 489.52 571.09 489.63 570.31L497.93 575.57C497.81 576.66 497.64 577.74 497.43 578.82C497.22 579.89 496.96 580.96 496.66 582.02C496.37 583.07 496.02 584.11 495.64 585.14C495.25 586.17 494.83 587.18 494.36 588.17L494.36 588.17ZM535.32 601.19C532.8 610.01 523.87 609.8 516.31 609.59L512.53 598.04C513.19 598.3 513.86 598.53 514.54 598.73C515.22 598.93 515.9 599.1 516.6 599.23C517.3 599.36 518 599.46 518.7 599.52C519.41 599.59 520.12 599.62 520.82 599.62C524.08 599.62 526.08 598.88 527.34 594.05C527.89 590.83 528.38 587.59 528.78 584.35C529.19 581.1 529.52 577.85 529.77 574.59C530.03 571.33 530.2 568.06 530.31 564.79C530.41 561.52 530.43 558.25 530.38 554.98C530.38 549.52 530.38 545.21 530.38 540.17L516.2 540.17C516.24 540.78 516.27 541.4 516.29 542.01C516.3 542.62 516.31 543.24 516.31 543.85C516.31 544.46 516.3 545.07 516.29 545.69C516.27 546.3 516.24 546.91 516.2 547.52C516.21 550.1 516.13 552.68 515.99 555.25C515.85 557.83 515.63 560.4 515.34 562.96C515.05 565.52 514.69 568.07 514.25 570.61C513.82 573.15 513.32 575.68 512.74 578.19C511.86 581.52 510.68 584.76 509.21 587.86C507.73 590.97 505.97 593.93 503.94 596.71C501.92 599.49 499.64 602.07 497.13 604.43C494.62 606.78 491.9 608.9 489 610.75L480.18 603.71C483.08 602.31 485.82 600.61 488.36 598.64C490.89 596.66 493.22 594.42 495.28 591.96C497.35 589.49 499.15 586.82 500.66 583.97C502.16 581.13 503.36 578.14 504.23 575.04C504.79 572.95 505.27 570.83 505.67 568.71C506.08 566.58 506.41 564.44 506.67 562.28C506.92 560.13 507.1 557.97 507.2 555.81C507.3 553.64 507.33 551.48 507.28 549.31C507.3 548.51 507.3 547.71 507.28 546.91C507.27 546.11 507.23 545.31 507.18 544.52C507.13 543.72 507.06 542.92 506.97 542.13C506.88 541.33 506.77 540.54 506.65 539.75L504.76 539.75C503.46 539.76 502.17 539.8 500.88 539.86C499.59 539.92 498.3 540.01 497.01 540.13C495.72 540.24 494.44 540.38 493.15 540.54C491.87 540.71 490.59 540.9 489.32 541.12L489.32 530.62C490.58 530.79 491.84 530.95 493.11 531.07C494.37 531.2 495.64 531.29 496.91 531.36C498.18 531.43 499.46 531.48 500.73 531.49C502 531.51 503.27 531.49 504.55 531.46L519.04 531.46C520.7 531.44 522.35 531.41 524.01 531.36C525.67 531.3 527.32 531.23 528.98 531.13C530.63 531.03 532.29 530.92 533.94 530.78C535.59 530.64 537.24 530.48 538.89 530.3C539.2 536.22 539.36 542.14 539.37 548.07C539.37 553.99 539.23 559.92 538.93 565.84C538.63 571.76 538.18 577.67 537.58 583.56C536.98 589.46 536.22 595.34 535.32 601.19L535.32 601.19Z" />
			<path id="Layer" fill-rule="evenodd" class="shp0" d="M572.5 558.03L572.5 584.6C572.5 589.01 572.5 595.1 573.02 611.8L564.1 611.8C564.1 600.67 564.62 593.95 564.62 585.54L564.62 559.29C564.62 550.26 564.62 539.12 564.1 527.78C566.83 527.78 574.6 527.78 577.33 527.78C580.69 527.78 598.02 527.78 600.01 527.78C599.96 528.65 599.93 529.53 599.9 530.4C599.88 531.28 599.86 532.16 599.86 533.03C599.86 533.91 599.88 534.78 599.9 535.66C599.93 536.53 599.96 537.41 600.01 538.28L600.01 547.21C599.96 548.17 599.92 549.13 599.89 550.1C599.87 551.06 599.85 552.02 599.85 552.99C599.85 553.95 599.87 554.91 599.89 555.88C599.92 556.84 599.96 557.8 600.01 558.76C598.91 558.65 597.81 558.54 596.71 558.45C595.61 558.36 594.51 558.29 593.41 558.23C592.3 558.17 591.2 558.12 590.09 558.09C588.99 558.05 587.89 558.03 586.78 558.03L572.5 558.03ZM590.98 534.29L572.5 534.29L572.5 540.07L590.98 540.07L590.98 534.29ZM590.98 546.37L572.5 546.37L572.5 552.25L590.98 552.25L590.98 546.37ZM618.18 587.43C618.18 589.01 618.18 600.67 618.18 601.93C618.18 604.97 618.71 606.76 618.81 609.28L608.31 609.28C608.48 607.9 608.63 606.51 608.75 605.12C608.87 603.73 608.97 602.34 609.04 600.94C609.11 599.55 609.15 598.16 609.17 596.76C609.19 595.37 609.18 593.97 609.15 592.58L609.15 587.33L599.28 587.33C599.07 589.86 598.51 592.34 597.61 594.71C596.72 597.08 595.49 599.32 593.98 601.35C592.46 603.38 590.67 605.19 588.65 606.73C586.64 608.27 584.42 609.51 582.05 610.43L574.6 603.82C575.93 603.72 577.24 603.47 578.51 603.07C579.79 602.68 581.01 602.14 582.16 601.47C583.31 600.8 584.39 600 585.36 599.09C586.33 598.17 587.19 597.15 587.94 596.05C588.36 595.45 588.75 594.83 589.1 594.18C589.45 593.54 589.77 592.88 590.04 592.19C590.32 591.51 590.55 590.82 590.74 590.11C590.93 589.4 591.08 588.68 591.19 587.96C589.72 587.96 582.89 587.96 577.85 587.96L577.85 579.98C582.89 579.98 589.83 580.5 591.72 580.5L591.72 572.1C589.62 572.1 584.36 572.1 580.27 572.63L580.27 564.54C585.42 564.54 592.56 565.27 596.02 565.27L612.41 565.27C614.72 565.27 627.64 565.27 629 564.64L629 572.94C628.49 572.89 627.99 572.85 627.48 572.83C626.97 572.8 626.46 572.79 625.95 572.79C625.45 572.79 624.94 572.8 624.43 572.83C623.92 572.85 623.41 572.89 622.91 572.94L618.18 572.94L618.18 581.34C620.7 581.34 627.95 581.34 630.05 580.61L630.05 588.69L618.18 587.43ZM609.36 572.1L600.01 572.1L600.01 580.5L609.36 580.5L609.36 572.1ZM643.28 600.56C643.28 605.5 643.28 612.22 626.16 611.8L621.75 601.3C622.41 601.44 623.07 601.57 623.73 601.69C624.39 601.8 625.05 601.89 625.72 601.97C626.39 602.05 627.06 602.11 627.72 602.16C628.39 602.2 629.06 602.23 629.74 602.24C632.78 602.24 634.88 601.72 635.09 599.41C635.3 597.1 635.09 594.58 635.09 590.79L635.09 558.03C631.73 558.03 611.04 558.03 609.15 558.03C609.15 556.66 609.15 551.2 609.15 548.15C609.15 543.11 609.15 529.04 609.15 526.94C610.03 526.98 610.9 527.02 611.78 527.04C612.65 527.06 613.53 527.07 614.4 527.07C615.28 527.07 616.15 527.06 617.03 527.04C617.9 527.02 618.78 526.98 619.65 526.94L643.81 526.94C643.81 532.09 643.28 544.16 643.28 555.93C643.28 557.19 643.28 599.3 643.28 600.56ZM635.41 534.29L617.87 534.29L617.87 540.07L635.41 540.07L635.41 534.29ZM635.41 546.37L617.87 546.37L617.87 552.25L635.41 552.25L635.41 546.37Z" />
			<path id="Layer" class="shp0" d="M684.24 565.17C683.93 566.34 683.59 567.5 683.23 568.65C682.87 569.8 682.49 570.95 682.09 572.09C681.69 573.23 681.26 574.36 680.82 575.48C680.37 576.6 679.9 577.72 679.41 578.82C678.89 579.9 678.34 580.96 677.77 582.02C677.21 583.07 676.62 584.12 676.02 585.15C675.42 586.19 674.79 587.21 674.15 588.22C673.51 589.23 672.85 590.23 672.17 591.21L663.34 586.17C664.07 585.24 664.78 584.28 665.46 583.3C666.15 582.33 666.8 581.34 667.44 580.33C668.07 579.32 668.67 578.3 669.25 577.26C669.83 576.22 670.38 575.16 670.91 574.1C671.46 572.86 671.98 571.6 672.46 570.33C672.94 569.05 673.39 567.77 673.79 566.47C674.19 565.17 674.56 563.86 674.88 562.54C675.21 561.22 675.49 559.89 675.74 558.55L685.5 562.02C685.66 562.06 685.81 562.14 685.94 562.23C686.07 562.32 686.19 562.44 686.28 562.57C686.38 562.71 686.45 562.85 686.49 563.01C686.54 563.16 686.56 563.33 686.55 563.49C687.08 564.54 684.77 565.06 684.24 565.17ZM721.95 608.96L707.14 608.96C702.2 608.96 695.17 608.96 693.8 602.56C693.71 601.96 693.64 601.36 693.6 600.75C693.55 600.15 693.53 599.54 693.53 598.93C693.53 598.33 693.55 597.72 693.6 597.12C693.64 596.51 693.71 595.91 693.8 595.31L693.8 569.79C693.8 563.49 693.8 557.08 693.8 550.78L705.04 552.46C705.04 552.46 706.93 552.46 706.93 553.93C706.93 555.4 705.35 556.14 704.41 556.87C703.46 557.61 704.41 563.91 704.41 570L704.41 596.05C704.41 600.35 704.41 600.98 709.13 600.98L721.11 600.98C727.41 600.98 728.67 600.98 730.45 586.8L739.38 592.27C735.29 608.54 730.14 608.96 721.95 608.96L721.95 608.96ZM715.96 550.68C714.91 548.96 713.75 547.31 712.48 545.75C711.2 544.19 709.83 542.72 708.36 541.34C706.89 539.97 705.32 538.7 703.68 537.54C702.03 536.37 700.31 535.32 698.53 534.4L705.04 526.73C706.89 527.59 708.67 528.57 710.39 529.67C712.1 530.78 713.73 532 715.28 533.33C716.82 534.66 718.27 536.1 719.61 537.63C720.96 539.16 722.19 540.78 723.31 542.48L715.96 550.68ZM744.74 585.54C743.73 583.24 742.59 581 741.33 578.83C740.07 576.66 738.69 574.55 737.2 572.53C735.71 570.51 734.1 568.57 732.4 566.73C730.69 564.89 728.89 563.14 726.99 561.49L734.76 555.3C736.64 556.84 738.43 558.48 740.12 560.22C741.81 561.96 743.41 563.79 744.9 565.7C746.39 567.62 747.78 569.62 749.05 571.68C750.32 573.75 751.47 575.89 752.51 578.09L744.74 585.54Z" />
			<path id="Layer" fill-rule="evenodd" class="shp0" d="M853.44 603.29C852.07 606.55 850.39 609.17 847.77 609.17C842.41 609.17 837.26 599.93 836 598.67C834.99 599.95 833.93 601.18 832.81 602.36C831.7 603.54 830.53 604.68 829.32 605.76C828.1 606.84 826.84 607.87 825.54 608.84C824.24 609.82 822.89 610.73 821.51 611.59L814.89 605.81C815.62 605.61 816.33 605.37 817.03 605.09C817.73 604.81 818.42 604.5 819.09 604.16C819.76 603.81 820.41 603.44 821.04 603.03C821.67 602.62 822.29 602.18 822.88 601.72L814.37 601.72L814.37 603.92L807.23 603.92C807.23 600.98 807.23 591.84 807.23 589.32C807.23 588.17 807.23 570.95 807.23 566.64C809.54 566.64 814.05 566.64 816.36 566.64L826.87 566.64L826.87 562.54L805.34 562.54C805.34 590.9 805.34 597.41 799.14 609.28L793.68 606.55C792.84 609.38 790.95 610.96 784.75 610.96L781.6 610.96L778.35 602.56C778.82 602.63 779.3 602.7 779.78 602.76C780.26 602.82 780.74 602.87 781.22 602.92C781.71 602.96 782.19 603 782.67 603.03C783.15 603.05 783.64 603.07 784.12 603.08C786.43 603.08 786.43 602.03 786.43 598.88L786.43 580.61L780.55 580.61C780.57 583.08 780.43 585.56 780.14 588.01C779.86 590.47 779.42 592.91 778.84 595.32C778.25 597.72 777.52 600.09 776.65 602.4C775.78 604.72 774.77 606.98 773.62 609.17L765.22 606.55C770.68 598.15 773.09 587.64 773.09 564.54C773.09 554.04 773.09 532.51 773.09 529.36C773.73 529.4 774.37 529.43 775.01 529.45C775.65 529.48 776.29 529.49 776.93 529.49C777.57 529.49 778.21 529.48 778.85 529.45C779.48 529.43 780.12 529.4 780.76 529.36L794.2 529.36C794.2 532.19 794.2 546.16 794.2 549.31C794.2 550.89 794.2 599.3 794.2 600.67C795.12 597.99 795.9 595.26 796.53 592.5C797.17 589.74 797.65 586.94 797.99 584.13C798.32 581.31 798.51 578.49 798.54 575.65C798.58 572.82 798.46 569.99 798.2 567.16C798.23 566.13 798.25 565.09 798.24 564.06C798.23 563.02 798.2 561.99 798.15 560.95C798.09 559.92 798.02 558.89 797.92 557.86C797.82 556.83 797.71 555.8 797.56 554.77C800.3 554.77 812.58 554.77 816.05 554.77L826.55 554.77C826.55 553.93 826.55 549.63 826.03 548.57L835.58 549.63C835.58 549.63 836.84 549.63 836.84 550.68C836.84 551.73 835.9 551.94 834.74 552.57C833.59 553.2 834.74 554.35 834.74 554.77C841.57 554.77 845.25 554.77 853.33 554.77L853.33 562.33L834.53 562.33C834.56 563.98 834.65 565.62 834.79 567.26C834.93 568.9 835.13 570.53 835.38 572.15C835.64 573.78 835.95 575.39 836.31 577C836.68 578.6 837.1 580.19 837.58 581.76C837.99 580.61 838.37 579.45 838.71 578.28C839.05 577.1 839.35 575.92 839.61 574.72C839.88 573.53 840.1 572.33 840.29 571.12C840.47 569.91 840.62 568.7 840.73 567.48L849.13 569.79C849.66 569.79 850.71 569.79 850.71 571.16C850.71 572.52 849.34 572.42 848.08 572.84C846.82 573.26 847.14 575.36 844.62 582.81C844.39 583.57 844.14 584.31 843.87 585.05C843.6 585.78 843.3 586.51 842.99 587.23C842.67 587.95 842.33 588.66 841.97 589.36C841.61 590.06 841.24 590.75 840.84 591.42C841.57 593 843.99 598.04 846.19 598.04C848.4 598.04 847.66 596.89 847.66 596.68C847.97 595.92 848.25 595.15 848.51 594.37C848.77 593.59 849.02 592.81 849.23 592.02C849.45 591.23 849.65 590.44 849.83 589.64C850 588.84 850.16 588.03 850.29 587.22L856.38 593.84C855.12 598.15 853.54 602.77 853.44 603.29ZM786.22 537.02L780.45 537.02L780.45 550.68L786.22 550.68L786.22 537.02ZM786.22 558.03L780.66 558.03C780.66 560.76 780.66 565.8 780.66 572.84L786.33 572.84L786.22 558.03ZM843.25 541.22C844.01 541.77 844.75 542.35 845.44 542.98C846.14 543.6 846.81 544.27 847.43 544.96C848.06 545.66 848.65 546.39 849.2 547.15C849.74 547.91 850.25 548.7 850.71 549.52L844.62 554.46C844.12 553.57 843.58 552.72 843 551.89C842.41 551.06 841.79 550.26 841.13 549.5C840.47 548.73 839.77 548 839.04 547.3C838.31 546.6 837.54 545.94 836.74 545.32L842.31 541.22L836.21 541.22C836.21 543.32 836.21 547.21 836.21 548.05L827.18 548.05C827.18 546.89 827.18 542.48 827.18 541.12L814.37 541.12L814.37 543.53C814.34 544.04 814.32 544.55 814.31 545.06C814.29 545.56 814.29 546.07 814.29 546.58C814.29 547.09 814.29 547.6 814.31 548.1C814.32 548.61 814.34 549.12 814.37 549.63L805.55 549.63C805.55 549.1 805.55 544.06 805.55 543.53L805.55 541.43L795.04 541.43L795.04 534.08L805.55 534.08C805.53 533.45 805.51 532.82 805.47 532.18C805.44 531.55 805.39 530.92 805.34 530.29C805.29 529.66 805.23 529.03 805.16 528.4C805.09 527.77 805.01 527.15 804.92 526.52L814.37 527.25C814.37 527.25 815.84 527.25 815.84 528.31C815.84 529.36 815.31 529.25 813.84 530.2L813.84 534.19L827.18 534.19C827.18 533.03 827.18 527.99 827.18 526.94L836.42 527.88C837.05 527.88 838.1 527.88 838.1 529.04C838.1 530.2 837.26 530.2 836 530.93C834.74 531.67 836 534.19 836 534.19L851.86 534.19L851.86 542.06L843.25 541.22ZM816.99 571.68L814.26 571.68L814.26 576.83L816.99 576.83L816.99 571.68ZM822.25 581.24L814.26 581.24L814.26 585.75L822.25 585.75L822.25 581.24ZM816.78 590.06L814.26 590.06L814.26 596.05L816.78 596.05L816.78 590.06ZM827.92 571.58L823.61 571.58L823.61 576.93L828.55 576.93L828.55 590.16L823.61 590.16L823.61 596.05L829.49 596.05C829.79 595.7 830.09 595.35 830.38 595C830.67 594.65 830.95 594.3 831.23 593.94C831.51 593.58 831.79 593.22 832.06 592.85C832.33 592.48 832.59 592.11 832.85 591.74C832.25 590.15 831.69 588.55 831.17 586.92C830.66 585.3 830.2 583.67 829.79 582.02C829.38 580.37 829.01 578.71 828.7 577.03C828.39 575.36 828.13 573.68 827.92 572L827.92 571.58Z" />
			<path id="Layer" class="shp0" d="M945.23 579.24C941.34 579.24 938.19 579.24 931.05 579.24L921.18 579.24L921.18 596.05C921.27 596.92 921.33 597.8 921.35 598.69C921.36 599.57 921.34 600.45 921.28 601.33C921.22 602.21 921.12 603.09 920.98 603.96C920.84 604.83 920.66 605.69 920.44 606.55C918.76 611.17 914.04 612.11 906.48 612.11C906.05 612.17 905.62 612.2 905.19 612.23C904.76 612.25 904.33 612.27 903.9 612.27C903.47 612.27 903.04 612.25 902.61 612.23C902.18 612.2 901.76 612.17 901.33 612.11L896.5 602.24C897.37 602.39 898.24 602.51 899.11 602.62C899.98 602.73 900.85 602.82 901.73 602.89C902.61 602.96 903.49 603.01 904.36 603.04C905.24 603.08 906.12 603.09 907 603.08C910.89 603.08 910.89 601.82 910.89 598.04L910.89 579.03L900.38 579.03C890.72 579.03 889.88 579.03 881.9 579.03L873.71 579.03L873.71 569.37C880.11 569.37 892.4 570.1 900.38 570.1L910.89 570.1L910.89 558.55L903.53 558.55C900.7 558.55 889.04 558.55 881.48 559.6L881.48 550.89C885.68 550.89 900.07 550.89 903.53 550.89L910.89 550.89L910.89 540.38C908.39 540.58 905.89 540.74 903.39 540.86C900.89 540.99 898.38 541.08 895.88 541.14C893.37 541.21 890.87 541.23 888.36 541.23C885.86 541.23 883.35 541.19 880.85 541.12L876.33 531.98C878.75 531.98 885.26 532.61 894.5 532.61C898.42 532.81 902.34 532.8 906.25 532.59C910.17 532.38 914.07 531.96 917.94 531.34C921.81 530.73 925.65 529.91 929.43 528.89C933.22 527.88 936.95 526.66 940.61 525.26L946.91 531.56C947.04 531.7 947.17 531.86 947.27 532.02C947.38 532.18 947.48 532.35 947.56 532.53C947.64 532.71 947.7 532.9 947.75 533.08C947.8 533.27 947.84 533.47 947.86 533.66C947.86 534.71 947.23 535.13 945.75 535.13C945.52 535.13 945.29 535.12 945.07 535.09C944.84 535.06 944.61 535.02 944.39 534.95C944.17 534.89 943.95 534.81 943.74 534.72C943.53 534.63 943.32 534.52 943.13 534.4C941.31 534.97 939.49 535.5 937.65 535.99C935.81 536.49 933.96 536.94 932.1 537.35C930.25 537.76 928.38 538.13 926.51 538.46C924.63 538.79 922.75 539.08 920.86 539.33L920.86 551.1L926.01 551.1C928.85 551.1 943.23 551.1 947.96 551.1L947.96 560.34C941.03 560.34 929.27 559.29 926.01 559.29L920.86 559.29L920.86 570.84L930.74 570.84C940.4 570.84 951.74 570.84 957.41 570L957.41 579.77L945.23 579.24Z" />
			<path id="Layer" fill-rule="evenodd" class="shp0" d="M1021.79 557.4L1021.79 585.54C1021.79 590.16 1021.79 607.18 1022.53 611.9L1012.66 611.9C1012.66 607.49 1013.5 588.27 1013.5 584.49L1013.5 551.41C1012.62 551.4 1011.74 551.41 1010.86 551.44C1009.99 551.46 1009.11 551.5 1008.23 551.55C1007.36 551.6 1006.48 551.67 1005.61 551.75C1004.74 551.83 1003.86 551.93 1002.99 552.04C1003.11 552.14 1003.22 552.25 1003.32 552.36C1003.41 552.48 1003.5 552.61 1003.57 552.74C1003.64 552.88 1003.7 553.02 1003.75 553.17C1003.79 553.31 1003.82 553.46 1003.83 553.62C1003.83 555.19 1002.36 555.19 1001.84 555.19L1000.37 555.19C999.98 555.81 999.59 556.42 999.18 557.03C998.78 557.64 998.37 558.24 997.95 558.83C997.53 559.43 997.1 560.02 996.66 560.6C996.23 561.19 995.78 561.76 995.33 562.33C996.59 562.96 997.74 563.38 997.74 564.64C997.74 565.9 997.74 565.69 995.54 567.06C995.54 570.52 995.54 578.51 995.54 581.97L995.54 595C995.54 595.84 996.17 610.01 996.27 611.9L986.4 611.9C986.4 609.28 987.45 597.31 987.45 596.26L987.45 571.26C987.03 571.68 986.61 572.09 986.17 572.49C985.74 572.89 985.3 573.28 984.86 573.67C984.41 574.05 983.96 574.43 983.49 574.8C983.03 575.17 982.57 575.53 982.09 575.88L974.85 570.84C977.07 569.32 979.19 567.66 981.2 565.87C983.21 564.09 985.1 562.17 986.87 560.15C988.64 558.12 990.28 555.98 991.78 553.75C993.29 551.52 994.64 549.19 995.85 546.79L1002.57 551.41L1002.57 542.9C1003.53 543.05 1004.49 543.17 1005.45 543.28C1006.41 543.39 1007.37 543.48 1008.33 543.55C1009.3 543.62 1010.26 543.67 1011.23 543.7C1012.19 543.73 1013.16 543.75 1014.13 543.74L1014.13 525.99L1023.58 527.04C1024.94 527.04 1025.68 527.67 1025.68 528.62C1025.68 529.57 1025.05 529.99 1022.74 531.14C1022.74 533.35 1022.74 539.54 1022.74 543.74C1023.65 543.74 1024.56 543.71 1025.48 543.68C1026.39 543.64 1027.3 543.58 1028.21 543.51C1029.12 543.44 1030.03 543.36 1030.94 543.26C1031.85 543.15 1032.76 543.04 1033.66 542.9L1033.66 552.25C1032.68 552.09 1031.7 551.96 1030.71 551.85C1029.72 551.73 1028.74 551.64 1027.74 551.57C1026.75 551.5 1025.76 551.45 1024.77 551.43C1023.78 551.4 1022.79 551.39 1021.79 551.41C1021.79 552.36 1021.79 556.56 1021.79 557.4ZM1000.05 534.5L998.48 534.5C997.44 536.02 996.32 537.49 995.13 538.89C993.94 540.29 992.68 541.63 991.35 542.9C990.01 544.17 988.62 545.37 987.16 546.49C985.7 547.62 984.19 548.66 982.62 549.63L975.16 543.53C977.04 542.57 978.86 541.47 980.58 540.25C982.31 539.02 983.95 537.68 985.48 536.22C987.02 534.77 988.45 533.21 989.76 531.55C991.07 529.89 992.27 528.14 993.33 526.31L1000.79 530.83C1000.99 530.93 1001.17 531.07 1001.33 531.22C1001.5 531.38 1001.64 531.56 1001.76 531.75C1001.88 531.94 1001.97 532.15 1002.04 532.36C1002.11 532.58 1002.14 532.8 1002.15 533.03C1002.13 533.27 1002.06 533.51 1001.93 533.72C1001.81 533.93 1001.64 534.11 1001.44 534.25C1001.24 534.39 1001.02 534.49 1000.78 534.53C1000.54 534.57 1000.29 534.56 1000.05 534.5ZM1005.83 596.05L997.11 593.84C998.11 591.54 998.97 589.19 999.71 586.79C1000.45 584.39 1001.05 581.96 1001.52 579.5C1001.99 577.04 1002.32 574.55 1002.51 572.05C1002.7 569.55 1002.76 567.04 1002.68 564.54C1002.68 562.02 1002.68 560.34 1002.68 558.87L1010.98 560.02C1011.19 563.07 1011.25 566.13 1011.14 569.18C1011.03 572.24 1010.76 575.28 1010.33 578.31C1009.9 581.34 1009.31 584.34 1008.55 587.3C1007.8 590.26 1006.89 593.18 1005.83 596.05ZM1053.09 539.23L1045.11 539.23C1044.42 539.22 1043.73 539.23 1043.05 539.26C1042.36 539.29 1041.67 539.34 1040.99 539.41C1040.3 539.48 1039.62 539.57 1038.94 539.68C1038.26 539.79 1037.59 539.92 1036.92 540.07L1036.92 537.23L1030.82 542.38C1030.29 541.56 1029.72 540.77 1029.12 540C1028.53 539.22 1027.9 538.47 1027.25 537.74C1026.6 537.01 1025.93 536.31 1025.23 535.63C1024.53 534.95 1023.8 534.29 1023.05 533.66L1029.04 528.73C1029.82 529.29 1030.58 529.89 1031.3 530.53C1032.03 531.17 1032.72 531.84 1033.38 532.55C1034.04 533.25 1034.67 533.99 1035.26 534.75C1035.85 535.52 1036.4 536.31 1036.92 537.13L1036.92 530.62C1037.59 530.75 1038.27 530.86 1038.95 530.96C1039.63 531.06 1040.31 531.15 1040.99 531.22C1041.68 531.29 1042.36 531.34 1043.05 531.38C1043.73 531.42 1044.42 531.45 1045.11 531.46L1053.09 531.46C1053.79 531.47 1054.48 531.46 1055.18 531.43C1055.87 531.4 1056.57 531.35 1057.26 531.28C1057.96 531.21 1058.65 531.12 1059.33 531.01C1060.02 530.9 1060.71 530.77 1061.39 530.62L1061.39 539.96C1060.7 539.82 1060.02 539.7 1059.33 539.6C1058.64 539.49 1057.95 539.41 1057.26 539.34C1056.57 539.27 1055.87 539.21 1055.18 539.18C1054.48 539.14 1053.79 539.12 1053.09 539.12L1053.09 539.23ZM1029.35 594.68C1029.17 591.82 1028.91 588.96 1028.58 586.1C1028.25 583.25 1027.85 580.41 1027.38 577.58C1026.91 574.74 1026.36 571.92 1025.74 569.12C1025.13 566.32 1024.44 563.53 1023.68 560.76L1031.77 558.97C1032.6 561.53 1033.36 564.11 1034.05 566.71C1034.74 569.31 1035.37 571.92 1035.93 574.55C1036.49 577.19 1036.99 579.83 1037.42 582.48C1037.84 585.14 1038.2 587.81 1038.49 590.48L1029.35 594.68ZM1054.04 604.87C1053.41 611.48 1048.05 611.48 1039.02 611.38L1035.13 601.61C1035.74 601.75 1036.36 601.87 1036.98 601.98C1037.59 602.09 1038.21 602.19 1038.84 602.27C1039.46 602.34 1040.08 602.41 1040.71 602.46C1041.33 602.51 1041.96 602.54 1042.59 602.56C1045.42 602.56 1045.42 602.03 1045.42 596.26L1045.42 560.23L1044.16 560.23C1043.35 560.24 1042.54 560.26 1041.74 560.3C1040.93 560.34 1040.12 560.39 1039.32 560.46C1038.51 560.53 1037.7 560.62 1036.9 560.72C1036.1 560.82 1035.3 560.94 1034.5 561.07L1034.5 551.83C1035.3 551.94 1036.1 552.04 1036.91 552.12C1037.71 552.21 1038.51 552.28 1039.32 552.34C1040.13 552.4 1040.93 552.45 1041.74 552.49C1042.55 552.53 1043.35 552.55 1044.16 552.57L1053.62 552.57C1054.43 552.57 1055.25 552.56 1056.07 552.53C1056.88 552.5 1057.7 552.46 1058.51 552.4C1059.33 552.34 1060.14 552.26 1060.95 552.16C1061.77 552.07 1062.58 551.96 1063.38 551.83L1063.38 561.07C1062.61 560.94 1061.84 560.82 1061.06 560.73C1060.28 560.63 1059.51 560.55 1058.73 560.49C1057.95 560.43 1057.16 560.38 1056.38 560.36C1055.6 560.33 1054.82 560.33 1054.04 560.34C1054.04 562.33 1054.04 602.98 1054.04 604.87Z" />
		</g>
	</g>
</svg>