<svg enable-background="new 0 0 122 22" height="22" viewBox="0 0 122 22" width="122" xmlns="http://www.w3.org/2000/svg"><g fill="#231815"><path d="m32.372 3.162v-.383h4.173v.383z"/><path d="m39.469 3.083c-.054.005-.171.015-.254.024v1.553c0 .505-.147.52-.769.524l-.113-.387c.083.015.216.029.328.029.221 0 .221-.063.221-.24v-1.439c-.108.005-.216.015-.294.024v1.254h-.318v-1.215c-.088.005-.191.02-.279.024 0 .554-.049 1.327-.396 1.964l-.319-.176c.353-.612.397-1.313.397-1.749-.093.005-.196.01-.25.015-.029.068-.054.137-.112.137-.04 0-.059-.034-.064-.112l-.034-.406c.063.005.098.01.196.01.127 0 .201-.005.265-.01 0-.51-.005-.651-.034-1.431h.392c.157-.245.27-.455.368-.754l.348.132c.054.02.083.034.083.063 0 .064-.107.069-.157.069-.083.181-.152.309-.259.489h.803v1.288c.132-.005.176-.01.294-.024zm-.587-1.313h-.896c.005.362.005.877.005 1.122.142-.01.764-.063.892-.073v-1.049zm-.441.931c-.108-.27-.171-.411-.304-.656l.255-.142c.167.264.24.431.313.676zm2.811-.113h-.27c-.304 0-.328-.123-.328-.318v-.872h-.548c0 .632-.088 1.019-.549 1.342l-.24-.255c.377-.269.495-.46.456-1.415h1.215v.965c0 .172.034.191.176.191.167 0 .211-.113.294-.471l.309.191c-.152.642-.28.642-.515.642zm.206 2.537c-.411-.138-.651-.27-.931-.5-.323.274-.622.432-.945.539l-.265-.294c.583-.161.818-.338.98-.475-.216-.284-.343-.554-.441-.945l.294-.108c.103.401.21.612.362.828.157-.196.294-.406.436-.843h-1.367v-.347h1.656l.118.122c-.157.716-.465 1.117-.598 1.283.196.152.382.27.945.422z"/><path d="m43.206 4.435c-.162.304-.328.523-.588.793l-.288-.221c.367-.353.543-.637.676-.876l.284.166c.01.005.063.039.063.068 0 .065-.098.07-.147.07zm-.637-.407v-3.11h1.646v3.11zm1.313-2.792h-.979v.607h.979zm0 .926h-.979v.607h.979zm0 .925h-.979v.622h.979zm.358 2.078c-.387-.343-.563-.583-.715-.867l.284-.142c.245.372.475.588.74.788zm1.915-2.895v2.399c0 .167 0 .427-.309.49-.113.024-.162.024-.637.029l-.118-.367c.118.005.304.015.426.015.24 0 .279-.015.279-.235v-2.013c-.235.646-.573 1.366-1.058 1.939l-.309-.221c.519-.588.852-1.303 1.112-2.037h-1.097v-.356h1.352v-1.127l.372.02c.029.005.098.005.098.049 0 .039-.054.068-.113.099v.96h.543v.356z"/><path d="m51.17 5.14v-.225h-3.194v.24h-.353v-4.158h3.904v4.143zm0-3.825h-3.194v3.281h3.194zm-.793 1.239v1.337c0 .44-.103.515-.715.515l-.137-.383c.103.02.221.024.328.024.167 0 .182-.039.182-.19v-1.303h-1.812v-.333h1.812v-.789l.367.034c.015 0 .078.01.078.049 0 .044-.049.069-.103.099v.607h.563v.333zm-1.328 1.366c-.215-.382-.421-.622-.598-.818l.255-.205c.24.25.46.514.627.817z"/><path d="m53.159 2.853c-.289-.221-.49-.338-.7-.446l.152-.304c.26.113.509.25.729.446zm-.142 2.209c.035.093.044.122.044.156s-.024.039-.029.039c-.03 0-.079-.029-.098-.039l-.362-.181c.309-.607.504-1.151.715-1.773l.309.201c-.143.426-.545 1.513-.579 1.597zm.421-3.562c-.171-.142-.338-.255-.7-.47l.167-.279c.289.132.504.27.715.455zm1.7 1.701c-.265.578-.48.97-.73 1.376.52-.068 1.357-.186 1.622-.23-.304-.465-.382-.558-.46-.651l.284-.19c.343.411.646.852.906 1.415l-.323.216c-.059-.152-.123-.294-.24-.51-.632.113-1.945.318-2.425.393-.029.039-.078.122-.118.122-.039 0-.068-.078-.073-.093l-.143-.399c.162 0 .402-.02.563-.034.357-.554.548-.999.705-1.415h-1.229v-.348h1.455v-.892h-1.225v-.333h1.225v-.877l.372.049c.054.005.113.015.113.059 0 .034-.034.068-.113.108v.661h1.234v.333h-1.234v.892h1.489v.348z"/><path d="m61.544 5.111c-1.391-.622-1.724-1.676-1.891-2.209-.24.945-.607 1.689-1.798 2.263l-.279-.294c.397-.182 1.019-.479 1.47-1.283.401-.715.401-1.582.401-2.748l.421.029c.083.005.132.015.132.059 0 .05-.049.084-.137.147-.015.137-.039.818-.039.965 0 .289.068.931.524 1.597.441.642 1.028.945 1.474 1.156z"/><path d="m66.65 3.416v1.788h-.373v-1.788h-2.012v-.343h2.012v-1.748h-1.733v-.333h3.88v.333h-1.774v1.748h2.037v.343zm-1.062-.587c-.275-.417-.51-.677-.828-.98l.27-.254c.367.348.602.632.852.994zm2.453-.996c-.201.446-.416.74-.617.985l-.318-.191c.26-.318.466-.622.666-1.098l.324.157c.043.02.078.039.078.073 0 .045-.059.06-.133.074z"/><path d="m71.191 2.701c-.006.284-.01.872-.099 1.293-.089.407-.357.432-.729.456l-.088-.357c.436.005.562.01.572-1.073h-.739c-.02.911-.161 1.577-.563 2.17l-.294-.255c.362-.543.495-1.043.495-1.959 0-.216-.02-1.166-.02-1.356h1.783c-.016-.274-.03-.637-.04-.867l.421.044c.084.01.094.044.094.059 0 .02 0 .034-.117.108 0 .392.004.533.014.656h1.671v.328h-1.646c.073.847.161 1.278.318 1.738.205-.284.411-.627.621-1.254l.378.221c.039.024.049.054.049.068 0 .059-.112.073-.142.073-.27.544-.48.896-.755 1.259.27.476.593.74.687.74.166 0 .298-.466.361-.676l.295.244c-.04.118-.118.349-.26.598-.068.113-.172.25-.344.25-.322 0-.72-.406-.979-.848-.393.397-.873.667-1.289.867l-.26-.318c.446-.151.912-.367 1.392-.906-.182-.509-.328-.921-.446-2.057h-1.425c.005.215.01.553.005.754zm1.248-1.95c.265.127.49.27.73.494l-.206.27c-.235-.21-.44-.348-.7-.484z"/><path d="m74.815 1.172.348.024c.049.005.098.015.098.054 0 .045-.063.069-.103.089v1.067c.093-.02.274-.059.396-.088v-1.508l.328.02c.074.005.104.034.104.059 0 .029-.035.055-.089.089v.396h.729v.309h-.729v.554c.349-.089.603-.172.867-.26v.318c-.69.2-1.298.362-2.165.563-.029.078-.048.142-.092.142-.024 0-.044-.029-.05-.054l-.127-.411c.104-.01.279-.035.485-.069zm3.595 3.263c-.088-.152-.146-.24-.343-.471-.431.049-.892.103-1.288.128v1.102h-.357v-1.077c-.441.039-1.146.103-1.582.142-.107.005-.176.01-.265.015-.02.059-.044.128-.089.128-.023 0-.049-.025-.062-.084l-.084-.407c.5 0 .892-.005 1.739-.049-.417-.299-.716-.451-1.087-.588l.156-.279c.221.083.348.147.549.255.273-.265.455-.456.7-.755l.284.157c.024.01.063.029.063.054 0 .034-.015.034-.138.063-.264.289-.431.456-.631.646.19.123.254.167.46.304.401-.323.666-.558 1.004-.916l.328.187c.034.024.063.039.063.059 0 .015-.01.059-.146.049-.343.309-.612.524-.867.726.127-.01.76-.054 1.053-.094-.19-.19-.215-.21-.273-.264l.24-.201c.328.25.567.52.842.97zm-3.864.397c.235-.054.71-.167 1.327-.588l.24.216c.049.044.059.068.059.078s-.01.034-.054.034c-.034 0-.093-.01-.118-.015-.494.309-.881.471-1.199.593zm2.665-2.69c0 .201.068.255.283.255h.583c.245 0 .339-.142.397-.603l.309.182c-.103.524-.196.725-.637.725h-.755c-.509 0-.509-.23-.509-.431v-1.46l.338.034c.082.005.107.034.107.054s-.02.055-.117.099v.622c.548-.143.876-.309 1.121-.461l.27.299c.024.024.024.034.024.044 0 .029-.02.034-.034.034-.035 0-.107-.02-.146-.024-.441.182-.779.294-1.234.427zm.078 2.092c.338.127.725.318 1.209.7l-.2.279c-.27-.206-.603-.445-1.161-.715z"/><path d="m79.34 4.866c.525-.715.539-1.386.539-2.958v-1.034l.383.039c.029 0 .127.01.127.055 0 .054-.123.117-.143.127.025 2.685-.053 3.193-.523 4.002zm2.111-3.899.373.039c.053.005.103.024.103.054 0 .034-.034.068-.103.117v3.468h-.373zm1.592-.093.373.039c.059.005.098.02.098.055 0 .044-.024.059-.104.103v4.075h-.367z"/><path d="m88.656 2.637c-.445-.167-.871-.392-1.244-.686-.293-.23-.553-.505-.769-.809-.323.401-.931 1.098-2.058 1.572l-.264-.318c1.023-.362 1.733-.96 2.154-1.685l.373.127c.059.02.107.039.107.088 0 .025-.01.04-.02.064.279.484.984.999 1.974 1.327zm-2.125 1.009c-.309.544-.5.853-.617 1.033.445-.054.945-.107 1.371-.166.133-.02.225-.034.313-.049-.23-.313-.289-.387-.407-.524l.305-.166c.264.278.549.622.881 1.249l-.332.176c-.211-.367-.227-.387-.279-.479-.627.117-1.348.244-2.606.396-.029.049-.073.112-.103.112-.045 0-.064-.059-.074-.093l-.088-.367c.157 0 .255-.01.598-.039.304-.446.529-.926.603-1.083h-1.47v-.348h4.086v.348zm-.961-.984v-.329h2.141v.328h-2.141z"/></g><path d="m3.441 11.613c0 .773-.626 1.4-1.399 1.4-.771 0-1.397-.627-1.397-1.4 0-.77.626-1.396 1.397-1.396.773 0 1.399.626 1.399 1.396z" fill="#e73d48"/><path d="m2.982 14.906c.954-.951 3.255-3.229 4.831-4.804v-1.83l-6.197 6.349c-.406.414-.41 1.1-.014 1.521l1.242 1.324v-1.979c-.003-.2-.01-.409.138-.581z" fill="#e73d48"/><path d="m4.686 17.33c-.094-.098-.176-.189-.253-.273-.004-.008-.012-.014-.019-.021-.115-.131-.183-.301-.183-.488 0-.182.068-.348.176-.48.031-.031.059-.061.092-.088.054-.055.11-.111.173-.17.764-.754 1.976-1.945 3.164-3.137v-1.878l-4.2 4.304v3.262l2.393 2.668h2.069c-1.263-1.355-2.592-2.8-3.412-3.699z" fill="#f8d0cb"/><path d="m16.031 13.223c-.265.895-1.076 3.412-2.446 4.754l-1.356-.77c1.454-1.664 2.111-3.229 2.432-4.947l1.496.418c.14.043.321.084.321.252.001.211-.335.279-.447.293zm3.635-3.508c-.028.559-.042 3.019-.042 3.298v3.48c0 .518 0 3.383-.07 3.885-.084.658-.461.783-1.048.867-.251.043-1.356.057-1.58.07l-.615-1.719c.629.084.908.125 1.426.125.433 0 .503-.057.503-.67v-5.969c0-.322-.042-1.748-.042-2.041-.014-.964-.028-1.328-.056-2.194l1.607.182c.335.042.447.027.447.209.001.17-.251.309-.53.477zm4.179 8.219c-1.258-1.594-2.041-3.02-2.516-5.115l1.356-.504c.587 1.943 1.314 3.271 2.795 4.934z" fill="#231815"/><path d="m43.612 13.434c-.95-.252-1.677-.545-2.488-.938v.447c-.867-.111-1.733-.111-2.055-.111h-2.013c-.978 0-1.579.057-2.041.111v-.488c-.937.559-1.635.908-2.627 1.328l-1.006-1.217c2.795-.713 4.738-2.222 5.703-3.843l1.775.363c.224.042.321.07.321.182 0 .042-.042.111-.056.126.321.461 2.11 2.292 5.325 2.823zm-3.885 3.996h-4.557c-.321 1.426-.895 2.586-2.097 3.705l-1.3-.699c1.468-.965 2.558-2.586 2.558-6.137 0-.377-.014-.629-.028-.865.657.027 1.44.07 2.81.07h2.139c1.174 0 1.761-.016 2.865-.07-.014.336-.028 1.02-.028 1.355v1.146c0 .488.014 1.047.042 1.537-.504-.027-1.887-.042-2.404-.042zm1.341 4.054c.028-.168.028-.238.042-.434h-4.599c.014.209.014.322.028.434h-1.412c.028-.518.042-1.174.042-1.23v-.908c0-.363-.014-.951-.042-1.314.615.029 1.342.057 2.348.057h2.516c.237 0 1.188 0 2.516-.043-.014.279-.042.713-.042 1.189v.922c0 .602.042 1.049.07 1.328h-1.467zm-.168-5.619h-5.479c-.042.42-.07.545-.084.686h5.563zm0-1.482h-5.367c-.014.127-.028.588-.028.672h5.395zm-3.032-4.388c-.713.909-1.636 1.607-1.803 1.734.559.027.951.027.992.027h2.013c.266 0 .573-.014.783-.014-.742-.517-1.287-1.021-1.985-1.747zm3.326 9.001h-4.766v1.133h4.766z" fill="#231815"/><path d="m54.421 12.26h-1.775c-.629 0-1.37 0-1.957.068v-1.258c.796.113 1.873.127 1.957.127h1.775c.014 0 1.104 0 1.943-.127v1.258c-.601-.068-1.356-.068-1.943-.068zm1.425 6.121v1.217c0 .182.014 1.006.014 1.174.014.195.014.279.042.572h-1.328c.028-.125.042-.252.07-.67h-2.083c.014.363.014.404.042.811h-1.313c.056-.602.083-1.16.083-1.566v-1.467c0-.279-.07-1.537-.083-1.789.265.027 1.09.084 1.789.084h1.118c.629 0 1.09-.043 1.719-.084-.028.46-.07 1.23-.07 1.718zm-1.621-7.981h-1.37c-.014 0-.825 0-1.482.112v-1.314c.518.099 1.244.112 1.482.112h1.37c.489 0 .992-.014 1.481-.112v1.314c-.643-.112-1.425-.112-1.481-.112zm.056 3.635h-1.425c-.489 0-.993.027-1.482.111v-1.287c.503.098 1.244.127 1.482.127h1.425c.503 0 .993-.029 1.496-.127v1.287c-.644-.111-1.426-.111-1.496-.111zm-.056 1.887h-1.356c-.489 0-.992.027-1.467.111v-1.314c.503.084 1.244.111 1.467.111h1.356c.503 0 1.006-.027 1.496-.111v1.314c-.643-.111-1.44-.111-1.496-.111zm.42 1.873h-2.111v1.803h2.111zm6.386 3.312h-2.208c-1.51 0-1.901-.531-1.901-1.986v-3.186c0-.797-.042-1.65-.083-2.209.601.07.713.07 1.691.07h2.404v-3.256h-2.446c-.293 0-1.859.112-1.873.112v-1.426c.461.042 1.425.098 1.901.098h1.523c.531 0 1.355 0 2.348-.098-.099 1.104-.099 1.663-.099 2.473v1.775c0 .574.015.938.084 2h-1.495c.014-.182.042-.363.056-.561h-2.795v4.193c0 .727.321.811 1.132.811h1.719c.559 0 1.006 0 1.063-2.123l1.342.586c-.265 2.056-.475 2.727-2.363 2.727z" fill="#231815"/><path d="m81.652 13.867c-1.355-.363-2.334-.867-2.6-1.008v.602c-.629-.084-1.426-.084-2.041-.084h-2.041c-.656 0-1.439 0-2.041.084v-.74c-.797.461-1.593.824-2.473 1.146l-1.076-1.217c.63-.141 1.845-.404 3.2-1.244 1.16-.726 1.916-1.481 2.629-2.641l1.705.559c.237.084.335.14.335.252 0 .084-.056.168-.112.224.965 1.287 3.467 2.46 5.396 2.656zm-9.323 4.444c-.476.992-.769 1.637-1.509 2.545l-1.398-.756c1.202-.936 1.594-2.18 1.775-2.752l1.16.391c.363.125.363.238.363.293.001.21-.238.251-.391.279zm6.458-2.139c-.098.238-.518 1.273-.615 1.482l-1.286-.545c.153-.293.251-.49.476-.979.266-.602.293-.656.335-.77h-3.774c-.53 0-1.746.029-2.25.057v-1.217c.895.029 1.999.057 2.894.057h1.888c.391 0 2.096-.041 2.445-.041l.447.559c-.392 1.02-.449 1.131-.56 1.397zm-1.385 5.088h-2.6c-1.453 0-1.858-.252-1.858-1.564v-1.076c0-.252-.028-1.385-.028-1.607l1.244.139c.293.029.405.057.405.238 0 .154-.153.238-.378.322-.014.125-.027.713-.027.781v.615c0 .797 0 .992.965.992h2.236c.461 0 .67-.041.895-.404.111-.195.307-.588.447-1.203l1.132.895c-.728 1.872-1.286 1.872-2.433 1.872zm-1.578-10.916c-.447.518-1.105 1.189-2.139 1.902.419.027.852.041 1.285.041h2.041c.266 0 .336 0 .992-.027-.796-.531-1.368-1.049-2.179-1.916zm.098 8.582c-.141-.32-.545-1.312-1.51-2.025l1.104-.84c.322.211 1.133 1.062 1.552 1.971zm5.004 1.51c-.336-1.006-.909-1.887-1.691-2.754l1.188-.699c.545.518 1.314 1.342 1.816 2.643z" fill="#231815"/><path d="m99.588 11.379c-1.774-.014-1.971-.027-2.166-.027h-5.828v1.578c0 1.916 0 5.465-1.649 8.037l-1.356-.518c.938-1.299 1.272-2.334 1.523-3.746-.32.279-.545.447-.979.727.015.322.029.504-.167.504-.153 0-.196-.111-.224-.182l-.461-1.271c.615-.363 1.355-.867 2.012-1.51.015-.42.029-.588.029-.811l-1.035.699c-.154-.545-.377-1.342-1.062-2.152l1.049-.686c.447.545.797 1.201 1.062 1.803 0-.363-.014-1.342-.014-1.648-.043-1.65-.043-1.832-.043-2.069.643.042 3.326.084 3.522.084h.587c-.027-.476-.07-1.217-.111-1.412l1.481.028c.112 0 .321.014.321.195 0 .168-.111.237-.461.461v.728h1.691c.279 0 3.284-.057 4.039-.126v1.341c-.334-.027-.473-.013-1.76-.027zm.49 2.109c-.867-.027-1.021-.027-1.971-.027h-1.244c-.014.656-.043.979-.057 1.188h1.062c.643 0 2.278-.014 2.893-.041-.014.266-.027 1.635-.027 1.957v2.977c0 .672 0 1.523-.769 1.748-.56.166-1.691.125-1.789.125l-.573-1.439c.238.041.881.182 1.328.182.545 0 .545-.182.545-.908v-1.426l-1.006.965c-.923-.531-1.636-1.342-2.167-2.252-.419.924-1.104 1.707-1.956 2.279l-.854-.672v1.314c0 .393.057 1.621.084 1.957h-1.439c.042-.307.14-1.635.14-1.943v-2.613c0-.279-.028-2.041-.042-2.277.559.041 2.25.068 2.879.068h.434c.028-.307.042-.613.057-1.188h-.574c-.488 0-2.641.027-3.088.027v-1.16c.866.057 2.193.07 3.088.07h3.076c.698 0 1.816 0 2.516-.027.182-.014.321-.027.545-.043v1.189c-.28 0-.421 0-1.091-.03zm-6.584 2.252v2.096c.713-.406 1.412-1.146 1.803-2.096zm5.983 0h-2.293c.812 1.104 1.244 1.551 2.293 2.068z" fill="#231815"/><path d="m118.797 13.488c.056-.684.056-1.188.056-1.971h-5.745c0 1.049 0 1.412.043 1.971h-1.385c.029-.418.084-1.047.084-1.955 0-.365-.014-.812-.041-1.217-.657 1.565-.756 1.817-.965 2.293-.111.266-.195.418-.35.697.895 1.342 1.271 1.916 1.271 3.174 0 1.83-1.076 2.096-1.971 2.193l-.559-1.396c.21.014.392.027.461.027.279 0 .77 0 .77-1.02 0-.588-.126-.938-.461-1.539-.406-.74-.49-.865-.77-1.312l1.384-3.103h-1.454v7.38c0 .139.043 1.104.043 1.229.014.447.041 2.125.055 2.516h-1.271c.014-.391.098-3.242.098-3.619v-4.822c0-.951-.027-2.879-.055-3.816.167.015.964.042 1.131.042h1.454c.126 0 .839-.027 1.034-.042l.42.518c-.028.056-.154.392-.252.587.447.028 1.551.084 1.984.084h1.523c-.027-1.076-.027-1.188-.056-1.607l1.552.126c.154.014.293.042.293.224 0 .153-.084.224-.404.434 0 .125-.015.712-.015.824h1.663c.028 0 .992-.014 1.846-.07-.028.35-.043.838-.043 1.565 0 .686.015 1.133.043 1.607h-1.411zm.111 7.758h-1.174c-1.328 0-1.496-.293-1.496-1.453v-3.396h-1.02c-.07 1.816-.42 2.67-.881 3.369-.74 1.09-1.705 1.551-3.145 1.803l-.74-1.244c3.004-.168 3.424-2 3.535-3.928-.811.027-1.453.057-2.124.111v-1.369c.978.084 2.403.111 2.851.111h2.811c.964 0 1.928-.027 2.879-.111v1.369c-.895-.084-1.984-.111-2.894-.111v2.977c0 .461.042.615.405.615h.824c.28 0 .406-.154.546-.531.14-.363.224-.811.265-1.076l1.021 1.021c-.321 1.005-.671 1.843-1.663 1.843zm-2.138-7.267h-1.621c-.488 0-1.216.057-1.635.125v-1.383c.559.098 1.383.125 1.635.125h1.621c.56 0 1.119-.027 1.664-.125v1.383c-.713-.125-1.594-.125-1.664-.125z" fill="#231815"/></svg>