<svg xmlns="http://www.w3.org/2000/svg" viewBox="0 0 224.1 92.26"><defs><style>.cls-1{fill:#231815;}</style></defs><title>img_start</title><g id="レイヤー_2" data-name="レイヤー 2"><g id="文字"><path class="cls-1" d="M27.45,46.37c-2.05-3.44-4.68-5.2-8.86-5.2-4.39,0-9.22,3-9.22,7.83,0,4.32,4.25,6.59,7.69,7.91l4,1.54c7.83,3.07,13.69,7.39,13.69,16.62,0,10-7.76,17.2-17.64,17.2C8.12,92.26,1.17,85.67,0,76.82l7-1.46c-.07,6.08,4.76,10.47,10.69,10.47s10.18-5,10.18-10.76-4.76-8.49-9.52-10.47L14.49,63c-6.3-2.71-12-6.3-12-14,0-8.93,7.91-14.27,16.25-14.27a15.74,15.74,0,0,1,14.2,8.35Z"/><path class="cls-1" d="M64.42,91.09H57.54V42.19H44.44V35.9H77.53v6.3H64.42Z"/><path class="cls-1" d="M98.1,77.26l-6.3,13.83H84.41l26.35-57.54,26.35,57.54h-7.39l-6.3-13.83Zm12.66-28.62L101,71h19.62Z"/><path class="cls-1" d="M183.39,91.09H175L158.79,67.74h-2.85V91.09h-6.88V35.9h8.34c4.9,0,10.18.07,14.57,2.56a15.28,15.28,0,0,1,7.25,13.18c0,7.91-5.27,14.49-13.25,15.45ZM155.94,62h2.2c7,0,14.64-1.32,14.64-10.1s-8.2-9.88-15-9.88h-1.83Z"/><path class="cls-1" d="M211,91.09h-6.88V42.19H191V35.9H224.1v6.3H211Z"/><path class="cls-1" d="M79.88,8.74c-1.88,1.37-2.69,2-3.11,3.25H83.5v1.77H74.61c.27-3.09.84-3.77,4.17-6.35C81,5.71,81.56,5.12,81.56,3.93a2.1,2.1,0,0,0-2.32-2.16c-2.25,0-2.32,2-2.36,3H74.94a5.66,5.66,0,0,1,.86-3.09A4.25,4.25,0,0,1,79.37,0a3.92,3.92,0,0,1,4.19,4C83.56,5.93,82.55,6.79,79.88,8.74Z"/><path class="cls-1" d="M96,12.24a4,4,0,0,1-6.88,0A11.28,11.28,0,0,1,88,7.1,11.53,11.53,0,0,1,89.1,2,4,4,0,0,1,96,2,11.47,11.47,0,0,1,97,7.1,11.29,11.29,0,0,1,96,12.24ZM92.54,1.66C90.39,1.66,90,4.11,90,7.1c0,2.76.31,5.43,2.56,5.43S95.1,10.1,95.1,7.1C95.1,4.33,94.78,1.66,92.54,1.66Z"/><path class="cls-1" d="M105.59,13.77V4.23h-2.85V2.94c2.87-.13,3.27-1.54,3.53-2.52h1.26V13.77Z"/><path class="cls-1" d="M118.72,13.77h-2c.22-2.67,1.88-7.15,5.4-11.53h-7.24V.42h9.29V2.25C121.32,4.75,119,9.88,118.72,13.77Z"/><path class="cls-1" d="M129.15,13.77V11.6h2.18v2.18Z"/><path class="cls-1" d="M140.62,14.21a3.65,3.65,0,0,1-4-3.48h1.85a2,2,0,0,0,2.12,1.79c2.52,0,2.85-2.85,3-4.63a3.72,3.72,0,0,1-2.95,1.19,4.07,4.07,0,0,1-4.17-4.43C136.49,1.9,138.21,0,141,0c4.45,0,4.54,4.79,4.54,6.64S145.33,14.21,140.62,14.21ZM141,1.66c-1,0-2.54.49-2.54,3,0,2,1.21,2.78,2.38,2.78a2.49,2.49,0,0,0,2.6-2.82C143.4,3.07,142.58,1.66,141,1.66Z"/></g></g></svg>