<svg xmlns="http://www.w3.org/2000/svg" width="43.61mm" height="18.52mm" viewBox="0 0 123.63 52.51"><defs><style>.cls-1{fill:#231815;}</style></defs><title>img_slide_08_title</title><g id="レイヤー_2" data-name="レイヤー 2"><g id="文字"><path class="cls-1" d="M3.18,39V36.08l-.08.37L2.29,39H1.65L.84,36.45l-.09-.37V39H.25V35.34H1l.88,2.72.09.33.09-.33.88-2.72h.75V39Z"/><path class="cls-1" d="M5,35.86v-.52h.52v.52ZM5,39V36.37h.52V39Z"/><path class="cls-1" d="M8.43,39V37.24a.49.49,0,0,0-.49-.53.79.79,0,0,0-.71.85V39H6.71V36.37H7.2l0,.34a1,1,0,0,1,.87-.46.8.8,0,0,1,.85.9V39Z"/><path class="cls-1" d="M10.11,35.86v-.52h.51v.52Zm0,3.14V36.37h.51V39Z"/><path class="cls-1" d="M14.73,39V37.23a.41.41,0,0,0-.37-.46c-.44,0-.55.58-.55.73V39h-.52V37.23a.41.41,0,0,0-.37-.46c-.37,0-.55.45-.55.73V39h-.51V36.37h.48l0,.29a.82.82,0,0,1,.7-.41.77.77,0,0,1,.7.48.83.83,0,0,1,.73-.48.74.74,0,0,1,.75.69V39Z"/><path class="cls-1" d="M18.39,39.12a.4.4,0,0,1-.35-.19.49.49,0,0,1-.07-.27,1.11,1.11,0,0,1-.89.46.78.78,0,0,1-.83-.79c0-.78.76-.86,1.17-.9s.55,0,.55-.38-.33-.38-.52-.38-.58,0-.61.44h-.48c.05-.29.15-.86,1.12-.86.52,0,1,.19,1,.87v1.34c0,.12,0,.22.17.22a.17.17,0,0,0,.12,0V39A.84.84,0,0,1,18.39,39.12ZM18,37.74a1.71,1.71,0,0,1-.66.15c-.21,0-.53.09-.53.41a.36.36,0,0,0,.39.36c.42,0,.8-.35.8-.58Z"/><path class="cls-1" d="M19.76,39V35.34h.51V39Z"/><path class="cls-1" d="M21.55,39V35.34h.52V39Z"/><path class="cls-1" d="M24.32,39.23c-.21.58-.53.58-.68.58a.76.76,0,0,1-.43-.12v-.43a.48.48,0,0,0,.32.11c.15,0,.3-.06.4-.37L23,36.37h.53l.63,1.85.65-1.85h.55Z"/><path class="cls-1" d="M28.59,39V35.34h.55V39Z"/><path class="cls-1" d="M32.09,39V37.24a.49.49,0,0,0-.49-.53.8.8,0,0,0-.71.85V39h-.52V36.37h.5l0,.34a1,1,0,0,1,.88-.46.8.8,0,0,1,.84.9V39Z"/><path class="cls-1" d="M34.87,39h-.48l-1-2.63H34l.64,1.9.65-1.9h.54Z"/><path class="cls-1" d="M38.69,39.12a.4.4,0,0,1-.35-.19.51.51,0,0,1-.08-.27,1.08,1.08,0,0,1-.88.46.78.78,0,0,1-.84-.79c0-.78.77-.86,1.18-.9s.54,0,.54-.38-.32-.38-.51-.38-.59,0-.61.44h-.49c.05-.29.16-.86,1.13-.86.51,0,1,.19,1,.87v1.34c0,.12,0,.22.16.22a.17.17,0,0,0,.12,0V39A.77.77,0,0,1,38.69,39.12Zm-.43-1.38a1.71,1.71,0,0,1-.66.15c-.21,0-.53.09-.53.41a.36.36,0,0,0,.39.36c.43,0,.8-.35.8-.58Z"/><path class="cls-1" d="M40.9,39.12a1.27,1.27,0,0,1-.72-.21.9.9,0,0,1-.33-.72h.5c0,.4.29.49.57.49s.54-.12.54-.39-.17-.32-.7-.47-.82-.3-.82-.75a.87.87,0,0,1,1-.82,1,1,0,0,1,.84.38.88.88,0,0,1,.16.45H41.4a.45.45,0,0,0-.49-.4c-.28,0-.48.15-.48.34s.17.29.6.4c.66.17.93.36.93.79S41.61,39.12,40.9,39.12Z"/><path class="cls-1" d="M43.05,35.86v-.52h.52v.52Zm0,3.14V36.37h.52V39Z"/><path class="cls-1" d="M46,39h-.48l-.95-2.63h.54l.65,1.9.64-1.9h.55Z"/><path class="cls-1" d="M48.19,37.81c0,.19.09.85.67.85a.65.65,0,0,0,.64-.5H50a1.12,1.12,0,0,1-1.12,1,1.31,1.31,0,0,1-1.23-1.45,1.29,1.29,0,0,1,1.25-1.42,1.05,1.05,0,0,1,1,.7,2.25,2.25,0,0,1,.12.86Zm.69-1.12c-.53,0-.64.52-.68.68h1.33A.66.66,0,0,0,48.88,36.69Z"/><path class="cls-1" d="M54.87,39.12a1.78,1.78,0,0,1-1.75-2,1.75,1.75,0,0,1,1.78-1.91,1.37,1.37,0,0,1,1.52,1.19h-.55a1,1,0,0,0-1-.68,1.18,1.18,0,0,0-.74.25,1.48,1.48,0,0,0-.45,1.19c0,1,.66,1.42,1.17,1.42a1,1,0,0,0,1-.94h.55A1.45,1.45,0,0,1,54.87,39.12Z"/><path class="cls-1" d="M59.5,39.12a.4.4,0,0,1-.35-.19.49.49,0,0,1-.07-.27,1.11,1.11,0,0,1-.89.46.78.78,0,0,1-.83-.79c0-.78.76-.86,1.17-.9s.55,0,.55-.38-.33-.38-.52-.38-.58,0-.61.44h-.48c.05-.29.15-.86,1.12-.86.52,0,1,.19,1,.87v1.34c0,.12,0,.22.16.22a.18.18,0,0,0,.13,0V39A.84.84,0,0,1,59.5,39.12Zm-.42-1.38a1.71,1.71,0,0,1-.66.15c-.21,0-.53.09-.53.41a.36.36,0,0,0,.39.36c.42,0,.8-.35.8-.58Z"/><path class="cls-1" d="M61.54,36.93a1.1,1.1,0,0,0-.29.66V39h-.51V36.37h.49l0,.31a.91.91,0,0,1,.69-.43.13.13,0,0,1,.08,0v.49A.67.67,0,0,0,61.54,36.93Z"/><path class="cls-1" d="M65.24,35.34V39h-.48l0-.29a.94.94,0,0,1-.8.41,1.46,1.46,0,0,1,0-2.87.94.94,0,0,1,.78.37V35.34ZM64,38.66c.51,0,.74-.45.74-1s-.23-1-.74-1-.73.42-.73,1S63.51,38.66,64,38.66Z"/><path class="cls-1" d="M66.41,35.86v-.52h.51v.52Zm0,3.14V36.37h.51V39Z"/><path class="cls-1" d="M70.12,39.12a.4.4,0,0,1-.35-.19.51.51,0,0,1-.08-.27,1.08,1.08,0,0,1-.88.46.78.78,0,0,1-.84-.79c0-.78.77-.86,1.18-.9s.54,0,.54-.38-.32-.38-.51-.38-.59,0-.61.44h-.49c0-.29.16-.86,1.13-.86.51,0,1,.19,1,.87v1.34c0,.12,0,.22.16.22a.17.17,0,0,0,.12,0V39A.77.77,0,0,1,70.12,39.12Zm-.43-1.38a1.71,1.71,0,0,1-.66.15c-.21,0-.53.09-.53.41a.36.36,0,0,0,.39.36c.43,0,.8-.35.8-.58Z"/><path class="cls-1" d="M73.18,37.23a.59.59,0,0,0-.61-.54c-.36,0-.78.23-.78,1,0,.23,0,1,.71,1a.59.59,0,0,0,.66-.6h.52a1.11,1.11,0,0,1-1.2,1,1.45,1.45,0,0,1,.08-2.87,1.08,1.08,0,0,1,1.15,1Z"/><path class="cls-1" d="M78.25,39.12a1.3,1.3,0,0,1-1.48-1.3h.55a.85.85,0,0,0,1,.82c.5,0,.9-.24.9-.63s-.43-.5-1.07-.64-1.2-.4-1.2-1a1.17,1.17,0,0,1,1.33-1.11,1.46,1.46,0,0,1,1.18.5,1.28,1.28,0,0,1,.2.68h-.53c0-.59-.5-.68-.84-.68s-.8.12-.8.56c0,.26.13.4.94.58s1.33.46,1.33,1.1S79.26,39.12,78.25,39.12Z"/><path class="cls-1" d="M82.48,39l0-.34a1,1,0,0,1-.88.46.8.8,0,0,1-.84-.91V36.37h.52v1.75a.5.5,0,0,0,.49.54.82.82,0,0,0,.71-.86V36.37H83V39Z"/><path class="cls-1" d="M84.8,36.93a1.07,1.07,0,0,0-.28.66V39H84V36.37h.49l0,.31a.87.87,0,0,1,.68-.43s.07,0,.08,0v.49A.7.7,0,0,0,84.8,36.93Z"/><path class="cls-1" d="M88.57,36.84a.24.24,0,0,0-.15-.06.5.5,0,0,0-.26.14c.14.53-.33,1-1,1a1.34,1.34,0,0,1-.35-.05c-.12.07-.16.12-.16.18a.08.08,0,0,0,0,.08,1.64,1.64,0,0,0,.66.11c.8,0,1.11.31,1.11.77,0,.66-.73.77-1.29.77-.38,0-1.18-.06-1.18-.61a.64.64,0,0,1,.41-.56.41.41,0,0,1-.31-.38c0-.25.19-.39.35-.52a.77.77,0,0,1-.37-.65,1,1,0,0,1,1.06-.84,1.16,1.16,0,0,1,.82.3.68.68,0,0,1,.47-.27.45.45,0,0,1,.19,0Zm-2.11,2.23c0,.3.62.32.78.32.39,0,.63-.08.63-.31s-.36-.29-1-.36C86.77,38.76,86.46,38.84,86.46,39.07Zm.67-1.52c.37,0,.54-.22.54-.45s-.22-.45-.56-.45-.54.22-.54.45S86.78,37.55,87.13,37.55Z"/><path class="cls-1" d="M89.83,37.81c0,.19.09.85.67.85a.65.65,0,0,0,.64-.5h.5a1.12,1.12,0,0,1-1.12,1,1.32,1.32,0,0,1-1.24-1.45,1.29,1.29,0,0,1,1.26-1.42,1.05,1.05,0,0,1,1,.7,2.25,2.25,0,0,1,.12.86Zm.69-1.12c-.53,0-.64.52-.68.68h1.33A.66.66,0,0,0,90.52,36.69Z"/><path class="cls-1" d="M93.44,36.93a1,1,0,0,0-.29.66V39h-.52V36.37h.49l0,.31a.89.89,0,0,1,.69-.43.13.13,0,0,1,.08,0v.49A.67.67,0,0,0,93.44,36.93Z"/><path class="cls-1" d="M95.82,39.23c-.22.58-.54.58-.69.58a.76.76,0,0,1-.43-.12v-.43a.48.48,0,0,0,.32.11c.15,0,.3-.06.4-.37l-.9-2.63h.53l.64,1.85.64-1.85h.55Z"/><path class="cls-1" d="M2.45,47.2A7.84,7.84,0,0,1,.87,50.26L0,49.76a6.37,6.37,0,0,0,1.57-3.19l1,.27c.09,0,.21.06.21.17S2.52,47.19,2.45,47.2Zm2.34-2.26c0,.36,0,1.94,0,2.12V49.3c0,.33,0,2.18,0,2.5s-.3.51-.68.56c-.16,0-.87,0-1,0L2.63,51.3a6.36,6.36,0,0,0,.92.08c.28,0,.32,0,.32-.43V47.11c0-.21,0-1.13,0-1.32,0-.62,0-.85,0-1.41l1,.11c.22,0,.29,0,.29.14S5,44.83,4.79,44.94Zm2.69,5.29a7.75,7.75,0,0,1-1.62-3.3l.87-.32a7.72,7.72,0,0,0,1.8,3.18Z"/><path class="cls-1" d="M13.65,50.25a.73.73,0,0,1-.78.43h-1a1,1,0,0,1-.7-.24.91.91,0,0,1-.2-.7v-1.8a6,6,0,0,0-.87.29l-.18-1a6.49,6.49,0,0,0,1-.14v-.44c0-.21,0-1.22,0-1.9l1,0s.16,0,.16.1-.08.14-.24.26c0,.45,0,1,0,1.47v.29l.51-.11a7.17,7.17,0,0,0,1.33-.38l.12.85a13.37,13.37,0,0,0-1.41.29l-.55.16v1.83c0,.38.07.38.32.38h.45c.27,0,.35-.29.41-.46a8.21,8.21,0,0,0,.18-.88l.79.5A3.8,3.8,0,0,1,13.65,50.25Zm3.9,1.24c-.24.84-1.09.82-1.81.8l-.36-1.1a2.11,2.11,0,0,0,.79.15c.31,0,.5-.07.62-.53a20,20,0,0,0,.29-3.72c0-.52,0-.93,0-1.41H15.73a5.87,5.87,0,0,1,0,.7,13,13,0,0,1-.33,2.92,5.26,5.26,0,0,1-2.26,3.1l-.84-.67A4.34,4.34,0,0,0,14.59,49a8.75,8.75,0,0,0,.29-2.45,5,5,0,0,0-.06-.91h-.18a9.22,9.22,0,0,0-1.47.13v-1a8.46,8.46,0,0,0,1.45.08H16a18.63,18.63,0,0,0,1.89-.11A32.86,32.86,0,0,1,17.55,51.49Z"/><path class="cls-1" d="M22.45,47.38H21.09v2.53c0,.42,0,1,.05,2.59h-.85c0-1.06.05-1.7.05-2.5V47.5c0-.86,0-1.92-.05-3,.26,0,1,0,1.26,0h.83c.32,0,1.14,0,1.33,0a8.78,8.78,0,0,0,0,1v.85a9.84,9.84,0,0,0,0,1.1A12.57,12.57,0,0,0,22.45,47.38Zm.4-2.26H21.09v.55h1.76Zm0,1.15H21.09v.56h1.76Zm2.59,3.91v.46c0,.15,0,.8,0,.92,0,.29.05.46.06.7h-1a10.88,10.88,0,0,0,.08-1.59v-.5h-.94A2.59,2.59,0,0,1,22,52.37l-.71-.63A1.68,1.68,0,0,0,22.56,51a1.78,1.78,0,0,0,.31-.77c-.14,0-.79,0-1.27,0v-.76c.48,0,1.14.05,1.32.05v-.8c-.2,0-.7,0-1.09.05V48c.49,0,1.17.07,1.5.07h1.56c.22,0,1.45,0,1.58-.06v.79a2.92,2.92,0,0,0-.58,0h-.45v.8c.24,0,.93,0,1.13-.07v.77Zm-.84-1.46h-.89v.8h.89Zm3.23-1.54v3.44c0,.12,0,.69,0,.81,0,.47,0,1.11-1.63,1.07l-.42-1a3.76,3.76,0,0,0,.76.09c.29,0,.49-.05.51-.27s0-.46,0-.82V47.38H25.76c-.32,0-1,0-1.18,0,0-.13,0-.65,0-.94v-.82c0-.48,0-1,0-1.2a10.05,10.05,0,0,0,1,0h.94l1.36,0C27.88,44.91,27.83,46.06,27.83,47.18Zm-.75-2.06H25.41v.55h1.67Zm0,1.15H25.41v.56h1.67Z"/><path class="cls-1" d="M31.73,48.06a9,9,0,0,1-.46,1.3,9.19,9.19,0,0,1-.69,1.18l-.84-.48a6.6,6.6,0,0,0,.72-1.15,6.43,6.43,0,0,0,.46-1.48l.93.33a.14.14,0,0,1,.1.14C32,48,31.78,48.05,31.73,48.06Zm3.59,4.17H33.91c-.47,0-1.14,0-1.27-.61a2.34,2.34,0,0,1,0-.69V48.5c0-.6,0-1.21,0-1.81l1.07.16s.18,0,.18.14-.15.21-.24.28,0,.67,0,1.25V51c0,.41,0,.47.45.47h1.14c.6,0,.72,0,.89-1.35l.85.52C36.59,52.19,36.1,52.23,35.32,52.23Zm-.57-5.55a4.23,4.23,0,0,0-1.66-1.55l.62-.73a4.19,4.19,0,0,1,1.74,1.5ZM37.49,50a6.49,6.49,0,0,0-1.69-2.29l.74-.59a6.26,6.26,0,0,1,1.69,2.17Z"/><path class="cls-1" d="M47.84,51.69c-.13.31-.29.56-.54.56-.51,0-1-.88-1.12-1a5.22,5.22,0,0,1-1.38,1.23l-.63-.55a2.19,2.19,0,0,0,.76-.39h-.81v.21h-.68c0-.28,0-1.15,0-1.39V49.2c0-.11,0-.59,0-1,.22,0,.65,0,.87,0h1l0-.39H43.26c0,2.7,0,3.32-.59,4.45L42.15,52c-.08.27-.26.42-.85.42H41l-.31-.8a4.06,4.06,0,0,0,.55.05c.22,0,.22-.1.22-.4V49.53h-.56a5.79,5.79,0,0,1-.66,2.72L39.44,52c.52-.8.75-1.8.75-4V46.11c0-1,0-1.16,0-1.46a5.34,5.34,0,0,0,.73,0H42.2c0,.27,0,1.6,0,1.9v3.89c0,.15,0,.87,0,1a7.62,7.62,0,0,0,.38-3.19,6.89,6.89,0,0,0-.06-1.18c.26,0,1.43,0,1.76,0h1c0-.08,0-.49-.05-.59l.91.1s.12,0,.12.1-.09.12-.2.18,0,.17,0,.21c.65,0,1,0,1.77,0v.72l-1.79,0a6.76,6.76,0,0,0,.29,1.85,5.44,5.44,0,0,0,.3-1.36l.8.22c.05,0,.15,0,.15.13s-.13.12-.25.16-.09.24-.33.95a3.72,3.72,0,0,1-.36.82c.07.15.3.63.51.63s.14-.11.14-.13a4.26,4.26,0,0,0,.25-.9l.58.63C48,51.2,47.85,51.64,47.84,51.69Zm-6.4-6.31h-.55v1.3h.55Zm0,2h-.53v.41c0,.26,0,.33,0,1h.54Zm5.43-1.6a2.45,2.45,0,0,1,.71.79l-.58.47a2.92,2.92,0,0,0-.75-.87l.53-.39H46.2v.12c0,.2,0,.45,0,.53h-.86c0-.11,0-.53,0-.66H44.12V46a5.35,5.35,0,0,0,0,.58h-.84c0-.05,0-.53,0-.58v-.2l-1,0V45.1l1,0a6.19,6.19,0,0,0-.06-.72l.9.07s.14,0,.14.1-.05.09-.19.18v.38h1.27c0-.11,0-.59,0-.69l.88.09c.06,0,.16,0,.16.11s-.08.11-.2.18,0,.31,0,.31l1.51,0v.75Zm-2.5,2.9h-.26v.49h.26Zm.5.91h-.76v.43h.76Zm-.52.84h-.24V51h.24Zm1.06-1.76H45v.51h.47v1.26H45V51l.56,0a4.86,4.86,0,0,0,.32-.41A8.05,8.05,0,0,1,45.41,48.71Z"/><path class="cls-1" d="M56.59,49.4l-1.36,0h-.94V51a2.83,2.83,0,0,1-.07,1c-.16.44-.61.53-1.33.53a2.08,2.08,0,0,1-.49,0l-.46-.94a5.81,5.81,0,0,0,1,.08c.37,0,.37-.12.37-.48V49.38h-1c-.92,0-1,0-1.76,0l-.78,0v-.92c.61,0,1.78.07,2.54.07h1v-1.1h-.7c-.27,0-1.38,0-2.1.1V46.7c.4,0,1.77,0,2.1,0h.7v-1a27.27,27.27,0,0,1-2.86.07l-.43-.87c.23,0,.85.06,1.73.06a10.75,10.75,0,0,0,4.39-.7l.6.6a.34.34,0,0,1,.09.2c0,.1-.06.14-.2.14a.46.46,0,0,1-.25-.07,12.48,12.48,0,0,1-2.12.47v1.12h.49c.27,0,1.64,0,2.09,0v.88c-.66,0-1.78-.1-2.09-.1h-.49v1.1h.94c.92,0,2,0,2.54-.08v.93Z"/><path class="cls-1" d="M63.87,46.75c0,.09,0,.49,0,.57V50c0,.44,0,2.06.07,2.51H63c0-.42.08-2.25.08-2.61V46.75a7.55,7.55,0,0,0-1,.06.22.22,0,0,1,.08.15c0,.15-.14.15-.19.15l-.14,0a7.27,7.27,0,0,1-.48.68c.12.06.23.1.23.22s0,.1-.21.23c0,.33,0,1.09,0,1.42V50.9c0,.08.06,1.43.07,1.61h-.94c0-.25.1-1.39.1-1.49V48.64a4.6,4.6,0,0,1-.51.44l-.69-.48a6.09,6.09,0,0,0,2-2.29l.64.44v-.81a7.13,7.13,0,0,0,1.1.08V44.33l.9.1c.13,0,.2.06.2.15s-.06.13-.28.24c0,.21,0,.8,0,1.2A7.5,7.5,0,0,0,65,45.94v.89A6.51,6.51,0,0,0,63.87,46.75ZM61.8,45.14l-.15,0a5,5,0,0,1-1.51,1.44L59.43,46a4.24,4.24,0,0,0,1.73-1.64l.71.43A.25.25,0,0,1,62,45,.16.16,0,0,1,61.8,45.14ZM62.35,51l-.83-.21A6.49,6.49,0,0,0,62.05,48c0-.24,0-.4,0-.54l.79.11A8.18,8.18,0,0,1,62.35,51Zm4.5-5.41h-.76a3.44,3.44,0,0,0-.78.08V45.4l-.58.49a3.89,3.89,0,0,0-.74-.83l.57-.47a2.86,2.86,0,0,1,.75.8v-.62a4.44,4.44,0,0,0,.78.08h.76a3.42,3.42,0,0,0,.79-.08v.89A4,4,0,0,0,66.85,45.58Zm-2.26,5.28a16.19,16.19,0,0,0-.54-3.23l.77-.17a15.09,15.09,0,0,1,.64,3Zm2.35-3.26v3c0,.19,0,1.05,0,1.23-.06.63-.57.63-1.43.62l-.37-.93a3.71,3.71,0,0,0,.71.09c.27,0,.27-.05.27-.6V47.59H66a5.82,5.82,0,0,0-.92.08v-.88a7.67,7.67,0,0,0,.92.07h.9a5.74,5.74,0,0,0,.93-.07v.88A4.84,4.84,0,0,0,66.94,47.6Z"/><path class="cls-1" d="M28.15,30V4.28L18.83,30H15.59L6.27,4.28V30H2.87V.8H8.19l9,24.84L26.19.8h5.36V30Z"/><path class="cls-1" d="M48.31,30V.8H52V30Z"/><path class="cls-1" d="M77.07,30.79c-8.4,0-12.8-6.79-12.8-15.47C64.27,7,68.43,0,77.51,0c2,0,7.08.4,9.88,4.6a13.55,13.55,0,0,1,2,5H85.55c-.88-5.36-5-6.6-8.12-6.6C68.59,3,68,12.68,68,15.44c0,5.64,2.24,12.4,9.12,12.4s8.24-6.36,8.6-7.84h3.84C88.19,26.08,84.51,30.79,77.07,30.79Z"/><path class="cls-1" d="M112.23,30.79c-2.44,0-7-.51-9.76-4.31A9.68,9.68,0,0,1,100.83,21h3.76a6.43,6.43,0,0,0,2.24,5,10.48,10.48,0,0,0,5.8,1.68c4.68,0,7.2-2.84,7.2-5.44s-1.32-3.36-8-5.6c-5.72-1.92-10.12-3.44-10.12-8.68,0-5,4.72-8,10.68-8,1.92,0,6.56.4,8.92,4a10.46,10.46,0,0,1,1.56,5h-3.76c-.12-1.92-.44-6-6.84-6-4.52,0-6.8,1.88-6.8,4.76s1.32,3.28,8.6,6c6.4,2.36,9.52,3.92,9.52,8.4C123.63,27.56,118.43,30.79,112.23,30.79Z"/></g></g></svg>