<svg xmlns="http://www.w3.org/2000/svg" width="30.65mm" height="12.01mm" viewBox="0 0 86.89 34.03"><defs><style>.cls-1{fill:#231815;}</style></defs><title>img_slide_11_title.svg</title><g id="レイヤー_2" data-name="レイヤー 2"><g id="文字"><path class="cls-1" d="M5.57,27H4.93a9.87,9.87,0,0,1-.69,1.33l.43.06c.1,0,.22,0,.22.14s-.07.13-.13.18c0,1.29,0,1.53,0,2v1.39A14.66,14.66,0,0,0,4.82,34H3.72c0-.13,0-.2,0-.83,0-.1,0-1,0-1.08V29A8.59,8.59,0,0,1,.71,31.6L0,30.89A7.47,7.47,0,0,0,3.93,27h-1c-.9,0-1.81,0-2.71.08v-.88c.9,0,1.81.07,2.71.07H5.57c.45,0,1.56,0,2.75-.07v.88C7.27,27.06,6.36,27,5.57,27Zm2.32,4.78A11.3,11.3,0,0,0,5,28.8l.68-.69a15.88,15.88,0,0,1,3,3Z"/><path class="cls-1" d="M15.63,33.82H12.94c-1.41,0-1.56,0-2.8.08v-.8c.46,0,1.43,0,1.92,0v-.63c0-.21,0-.62,0-.81l.81,0c.07,0,.17,0,.17.1s-.1.15-.18.18c0,.24,0,.48,0,.49v.64h1V31.38h-.67c-.38,0-1.43,0-2.18.05v-.76c.67,0,1.66,0,2.18,0h2.18c.47,0,1.46,0,2.19,0v.76c-.73,0-1.46-.05-2.19-.05h-.7v.51h1.06a12.26,12.26,0,0,0,1.5-.05v.77c-.27,0-1.21,0-1.5,0H14.61v.56h1.54c.06,0,1.35,0,2-.08v.82C17.77,33.84,16.08,33.82,15.63,33.82Zm2.18-3.08a4.09,4.09,0,0,1-1.57-1,3.91,3.91,0,0,1-1.81.94l-.5-.58-.26.3a2.43,2.43,0,0,1-.86-.76c0,.29,0,.58,0,.89H12c0-.19,0-.32,0-.8a4.1,4.1,0,0,1-1.15.92l-.71-.54a3.38,3.38,0,0,0,1.52-1c-.8,0-.89,0-1.2.05,0-.38.05-1.06.05-1.46a3,3,0,0,0,0-.35c.31,0,.93,0,1.25,0h.29s0-.3,0-.35h-.4c-.3,0-.86,0-1.46,0v-.73a11.8,11.8,0,0,0,1.46.06h.4c0-.15,0-.46,0-.59l.8.07c.08,0,.16,0,.16.1s-.12.15-.17.16,0,.17,0,.26h.34a12,12,0,0,0,1.47-.06v.73c-.79,0-1.35,0-1.47,0h-.36c0,.19,0,.21,0,.35h.35c.09,0,.93,0,1.14,0,0,.17,0,.26,0,.55a4.25,4.25,0,0,0,1.05-2.08l.77.23c.07,0,.12.05.12.12s-.11.11-.22.13c-.09.23-.14.38-.24.61h.92c.31,0,1.21,0,1.5-.05v.72l-.82,0a3.41,3.41,0,0,1-.63,1.63,3.82,3.82,0,0,0,1.59.83ZM12.08,28h-.77v.63h.77Zm1.49,0H12.8v.63h.77Zm1.57.09a1.64,1.64,0,0,1-.36.4l-.51-.25c0,.68,0,.76,0,1-.21,0-.88,0-1.1,0a2.79,2.79,0,0,0,1,.7L14,30a2.74,2.74,0,0,0,1.71-.78A4,4,0,0,1,15.14,28.05Zm.57-.48a4.75,4.75,0,0,0,.49,1,3,3,0,0,0,.37-1Z"/><path class="cls-1" d="M27.47,33.82c-1-1-1.84-1.91-1.77-5l-.35,0v2.49c0,.15,0,2,.06,2.48h-.88c0-.5,0-2,0-2.48V29l-.43,0v1.15a6.68,6.68,0,0,1-.86,3.68l-.6-.36c-.16.35-.53.43-1.23.42L21,33.06a4.26,4.26,0,0,0,.65.07c.25,0,.3,0,.3-.23V31h-.81a6.63,6.63,0,0,1-.57,2.78l-.86-.25a3.53,3.53,0,0,0,.53-1.37,9.29,9.29,0,0,0,.14-1.81V27.87c0-.43,0-1.29,0-1.71.13,0,.6,0,.74,0h.81a8.65,8.65,0,0,0,.88,0c0,.44,0,1.3,0,1.74v2.81c0,.37,0,2,0,2.36a6.07,6.07,0,0,0,.59-3V27.85c0-.41,0-1,0-1.36a5.23,5.23,0,0,0,.72,0A7.27,7.27,0,0,0,26,26.3a2.59,2.59,0,0,0,1-.44l.72.65a.14.14,0,0,1,.06.1.1.1,0,0,1-.11.09.69.69,0,0,1-.23,0,10.41,10.41,0,0,1-3.21.67v1a7,7,0,0,0,3.17-.82l.63.58a.23.23,0,0,1,.06.12s-.06.07-.12.07l-.19,0a6.37,6.37,0,0,1-1.25.44,3.87,3.87,0,0,0,0,.42c0,.12,0,.5.05.91a3.51,3.51,0,0,0,1.07-.76l.64.64a.15.15,0,0,1,.06.11c0,.05-.06.09-.12.09l-.19,0a5.54,5.54,0,0,1-1.34.71,3.8,3.8,0,0,0,1.65,2.46ZM22,26.92h-.8v1.29H22Zm0,2h-.8v1.3H22Z"/><path class="cls-1" d="M37,32.51a24.46,24.46,0,0,1-2.92-3c-.59-.74-.91-1.13-1.2-1.13s-.3.07-.7.58a15.34,15.34,0,0,0-1.31,1.87.77.77,0,0,1,.08.27.15.15,0,0,1-.15.16.29.29,0,0,1-.17-.06l-.81-.61c.19-.23,1-1.22,1.22-1.44S32,28,32.18,27.78a1,1,0,0,1,.75-.35c.48,0,.65.2,1.34,1a19.55,19.55,0,0,0,3.52,3.31Z"/><path class="cls-1" d="M44.35,33.42l-.69-.75a3.78,3.78,0,0,0,2-1,3.22,3.22,0,0,0,.68-2A2.33,2.33,0,0,0,45,27.51a2.37,2.37,0,0,0-1.24-.26,15,15,0,0,1-1.12,4.37C42.42,32,42,33,41.45,33a1.14,1.14,0,0,1-.76-.31,3.1,3.1,0,0,1-1.1-2.42,3.56,3.56,0,0,1,1-2.47,3.82,3.82,0,0,1,3-1.27,3.6,3.6,0,0,1,2.82,1.12,3.21,3.21,0,0,1,.81,2.15A3.69,3.69,0,0,1,44.35,33.42Zm-1.69-6.07a3,3,0,0,0-2.27,2.88c0,.8.5,1.65.88,1.65s.55-.54.65-.78a13.08,13.08,0,0,0,1-3.77Z"/><path class="cls-1" d="M49.56,33.79l-.79-.74a5.08,5.08,0,0,0,2.7-2.13,3.15,3.15,0,0,0-1.2-1,5.36,5.36,0,0,1-.74.81l-.86-.52a6.29,6.29,0,0,0,2.18-4.14l1,.28c.06,0,.15,0,.15.16s0,.1-.29.19c0,0-.17.53-.25.8h.72c.29,0,.71,0,1-.06l.36.37A7.75,7.75,0,0,1,49.56,33.79Zm1.66-5.56a9.72,9.72,0,0,1-.48,1,4.8,4.8,0,0,1,1.23.9,8.27,8.27,0,0,0,.65-1.87Zm5.53,3.41A6.46,6.46,0,0,1,55.42,31c0,.53,0,1.17,0,1.68,0,.15,0,1.39,0,1.39h-1c0-.54,0-2.52,0-3.17v-.57a7.15,7.15,0,0,1-1-1.12l.54-.8a5,5,0,0,0,.42.59v-.4c0-.58,0-2.13,0-2.69l1,.11c.18,0,.23.08.23.14s0,.11-.29.24c0,.27,0,.68,0,1.17v2.23a5.22,5.22,0,0,0,2,1Z"/><path class="cls-1" d="M62.49,26.66a.47.47,0,0,1-.17,0c-.41.14-.7.23-1.06.32V28.3a11.41,11.41,0,0,0,1.29-.07v.88A9.63,9.63,0,0,0,61.28,29a5.34,5.34,0,0,0,1.25,1.69l-.52.7a7.82,7.82,0,0,1-.75-1V31.5c0,.28,0,1.48,0,1.72s0,.55,0,.79h-.9a23.39,23.39,0,0,0,.08-2.48V30.44a8.81,8.81,0,0,1-1.09,1.73l-.79-.52a5.77,5.77,0,0,0,1.08-1.33A5.18,5.18,0,0,0,60.27,29h-.15a10.29,10.29,0,0,0-1.21.07v-.88a10.29,10.29,0,0,0,1.21.07h.37V27.09l-1.16.14-.62-.82h.44a7.62,7.62,0,0,0,2.78-.54l.63.58c0,.05.06.07.06.11S62.61,26.66,62.49,26.66ZM66,30.75v.31c0,.9,0,2.06.09,2.95h-.93c0-1.09.06-1.45.06-2.83V31l-.8.25-1.5.52L62.56,31c.55-.14,1.1-.3,1.65-.46l1-.29V28a19.51,19.51,0,0,0-.06-2.24l.89.08c.07,0,.17,0,.17.11s-.12.16-.2.19c0,.47,0,1.36,0,1.86v2a12,12,0,0,0,1.18-.44l.23.72C67.12,30.4,66.13,30.68,66,30.75ZM64,30.17a3.15,3.15,0,0,0-1.28-1.1l.51-.59a3.39,3.39,0,0,1,1.29,1.05Zm.21-2A4,4,0,0,0,63,27l.54-.56a3.85,3.85,0,0,1,1.24,1.06Z"/><path class="cls-1" d="M75.67,30.93c-.37,0-.67,0-1.35,0h-.94v1.56a2.94,2.94,0,0,1-.07,1c-.17.43-.61.52-1.33.52a3,3,0,0,1-.49,0L71,33.06a6.94,6.94,0,0,0,1,.07c.37,0,.37-.12.37-.48V30.91h-1c-.92,0-1,0-1.76,0H68.9V30c.61,0,1.78.07,2.54.07h1V29h-.7c-.27,0-1.39,0-2.11.1v-.88c.41,0,1.78.05,2.11.05h.7v-1a26.62,26.62,0,0,1-2.86.08l-.43-.88c.23,0,.84.06,1.73.06a10.57,10.57,0,0,0,4.39-.7l.59.61a.25.25,0,0,1,.09.19c0,.1,0,.15-.19.15a.51.51,0,0,1-.26-.07,11.36,11.36,0,0,1-2.11.46v1.13h.48l2.1-.05v.88c-.66-.06-1.78-.1-2.1-.1h-.48v1.1h.94c.92,0,2-.05,2.54-.08V31Z"/><path class="cls-1" d="M83,28.27v3.26c0,.43,0,2,.07,2.5h-.94c0-.41.08-2.24.08-2.61V28.27a9.72,9.72,0,0,0-1,.06.24.24,0,0,1,.08.16c0,.14-.14.14-.19.14l-.14,0a6.22,6.22,0,0,1-.48.69c.12.05.23.1.23.21s0,.1-.21.24c0,.33,0,1.09,0,1.42v1.25c0,.08.06,1.43.07,1.61h-.94c0-.24.1-1.38.1-1.48V30.17a4.29,4.29,0,0,1-.51.43l-.7-.48a6,6,0,0,0,2-2.28l.64.43v-.8a8.55,8.55,0,0,0,1.1.07v-.39c0-.21,0-1.08,0-1.29l.9.1c.14,0,.21.06.21.14s-.06.14-.28.24c0,.21,0,.81,0,1.2a9,9,0,0,0,1.17-.07v.88A7.63,7.63,0,0,0,83,28.27Zm-2.06-1.6-.15,0a5,5,0,0,1-1.51,1.44l-.71-.54a4.09,4.09,0,0,0,1.72-1.64l.72.43a.25.25,0,0,1,.11.18A.16.16,0,0,1,80.89,26.67Zm.55,5.85-.83-.22a6.44,6.44,0,0,0,.53-2.75c0-.24,0-.41,0-.54l.79.11A8.23,8.23,0,0,1,81.44,32.52Zm4.5-5.41h-.76a4.11,4.11,0,0,0-.78.07v-.25l-.58.48a3.76,3.76,0,0,0-.74-.82l.57-.47a2.73,2.73,0,0,1,.75.8V26.3a5.27,5.27,0,0,0,.78.07h.76a4.15,4.15,0,0,0,.79-.07v.88A4.52,4.52,0,0,0,85.94,27.11Zm-2.26,5.27a15.46,15.46,0,0,0-.55-3.23l.78-.16a14.81,14.81,0,0,1,.64,3ZM86,29.13v3c0,.19,0,1.06,0,1.24,0,.62-.56.62-1.42.62l-.37-.93a4.76,4.76,0,0,0,.7.09c.28,0,.28-.06.28-.6V29.12h-.15a4.84,4.84,0,0,0-.92.08v-.88a7.67,7.67,0,0,0,.92.07H86a5.74,5.74,0,0,0,.93-.07v.88A4.87,4.87,0,0,0,86,29.13Z"/><path class="cls-1" d="M14.64,16.06V5l.07-1.69-.38,1.6-3.58,11.2H7.93L4.36,4.86,4,3.26,4,5V16.06H1.77V0H5.09L8.94,12l.4,1.47L9.73,12,13.61,0h3.3V16.06Z"/><path class="cls-1" d="M31.25,16.59a1.79,1.79,0,0,1-1.54-.79,2.27,2.27,0,0,1-.33-1.19,4.88,4.88,0,0,1-3.9,2,3.42,3.42,0,0,1-3.67-3.45c0-3.44,3.37-3.77,5.17-4C28.32,9,29.38,9,29.38,7.5S28,5.83,27.11,5.83s-2.57.24-2.68,2H22.29C22.51,6.51,23,4,27.24,4c2.27,0,4.41.84,4.41,3.83v5.9c0,.51.13,1,.7,1a.83.83,0,0,0,.55-.24v1.65A3.42,3.42,0,0,1,31.25,16.59Zm-1.87-6.05c-.57.31-.79.35-2.91.68-.92.16-2.33.38-2.33,1.81a1.6,1.6,0,0,0,1.72,1.58c1.87,0,3.52-1.54,3.52-2.55Z"/><path class="cls-1" d="M36.13,16.06V14l6.73-7.5H36.73v-2h9.06v2L39.06,14H46v2Z"/><path class="cls-1" d="M52,10.85c.09.86.4,3.74,2.95,3.74a2.85,2.85,0,0,0,2.82-2.2h2.22A4.89,4.89,0,0,1,55,16.59c-3.15,0-5.42-2.68-5.42-6.36S51.82,4,55.1,4a4.64,4.64,0,0,1,4.51,3.08,10,10,0,0,1,.55,3.77ZM55,5.94c-2.33,0-2.84,2.29-3,3h5.83C57.76,8.23,57.5,5.94,55,5.94Z"/></g></g></svg>