<svg xmlns="http://www.w3.org/2000/svg" viewBox="0 0 181.47 25.74"><defs><style>.cls-1{fill:#231815;}</style></defs><title>img_slide_07_title</title><g id="レイヤー_2" data-name="レイヤー 2"><g id="文字"><path class="cls-1" d="M3,1.42C3,2,3,3.11,3,3.67V6.28c0,.54.09,2.47.13,3h-2a24,24,0,0,0,.14-3V3.33c0-.7,0-2.18-.05-2.85l1.8.11c.4,0,.54.13.54.34S3.23,1.28,3,1.42ZM11.07.94a1.35,1.35,0,0,0-.32.27c0,.86-.09,4.66-.13,5.42-.07,1.22-.23,4.05-2.39,6a14.28,14.28,0,0,1-3.67,2.47L3,13.5a7.39,7.39,0,0,0,3.75-1.87C8.9,9.78,8.9,7.53,8.9,3.17c0-2.05,0-2.16,0-3l1.85.13c.2,0,.49,0,.49.36A.32.32,0,0,1,11.07.94Z"/><path class="cls-1" d="M24,8.28H19.88c-.23,0-2.93,0-4.74.22v-2a34.6,34.6,0,0,0,4.74.22H24a37.91,37.91,0,0,0,4.74-.22v2A42.77,42.77,0,0,0,24,8.28Z"/><path class="cls-1" d="M40.62,10.37a14.09,14.09,0,0,0-5.37-3.89V8.82a42.55,42.55,0,0,0,.13,5.78H33.1a36.13,36.13,0,0,0,.4-5.67V5c0-.18,0-1,0-1.13,0-.86-.07-3-.11-3.28a3.36,3.36,0,0,1-.07-.45l2.25.23c.23,0,.52.11.52.36A.25.25,0,0,1,36,1a3.66,3.66,0,0,0-.52.31A34.78,34.78,0,0,0,35.26,5V6.37l.86-1.48a16.93,16.93,0,0,1,5.76,4Zm.74-6.25a6.22,6.22,0,0,0-1.85-1.76l1-.85a5,5,0,0,1,1.84,1.67Zm2.27-1.3A9.84,9.84,0,0,0,41.77,1l1-.83a9.69,9.69,0,0,1,1.94,1.73Z"/><path class="cls-1" d="M49.4,14l-1.12-.83c0-.41.07-.72.09-1.78,0-.32,0-1.69,0-2V5c0-.86,0-3.33-.13-4.11l2.07.32c.25,0,.5.09.5.45,0,.2-.05.23-.47.54a28.63,28.63,0,0,0-.16,4.32v5c2.32-.34,7-3,9.52-6.46l.58,2.13C57.78,10.46,53.06,13.05,49.4,14Z"/><path class="cls-1" d="M76,14A18.52,18.52,0,0,0,71.4,9.09a19,19,0,0,1-6.66,5l-1.35-1.6a15.12,15.12,0,0,0,4.68-2.54A16.37,16.37,0,0,0,72.95,3H69.74a39,39,0,0,0-4.36.2V1.4c.58.05,2.79.14,3.53.14h2.65a11,11,0,0,0,2.16-.09A1.92,1.92,0,0,0,74.61,1l1.33,1.48c-.34.23-.45.32-.86.63a38.35,38.35,0,0,1-2.66,4.63,22.48,22.48,0,0,1,5.06,5Z"/><path class="cls-1" d="M95.86,12.71a19,19,0,0,1-2.12-2.18c-.45-.52-1.17-1.35-1.35-1.58l-3.22-4.1c-.34-.43-.59-.74-1-.74s-1,.58-1.1.68l-2.32,2.5c-1.33,1.42-1.44,1.62-2,2.29a.86.86,0,0,1-.16.18L80.88,8.32a23.41,23.41,0,0,0,2.41-2l2.56-2.72A3.6,3.6,0,0,1,88.07,2.2,2.6,2.6,0,0,1,90.21,3.4l3.58,4.45a25.74,25.74,0,0,0,3.67,3.4Zm-.25-8.23a2,2,0,1,1,2-2A2,2,0,0,1,95.61,4.48Zm0-2.88a.88.88,0,1,0,0,1.76.87.87,0,0,0,.86-.88A.87.87,0,0,0,95.63,1.6Z"/><path class="cls-1" d="M109.76,8.28h-4.12c-.23,0-2.94,0-4.74.22v-2a34.6,34.6,0,0,0,4.74.22h4.12a37.9,37.9,0,0,0,4.74-.22v2A42.76,42.76,0,0,0,109.76,8.28Z"/><path class="cls-1" d="M130.73,14a18.53,18.53,0,0,0-4.61-4.93,19,19,0,0,1-6.66,5l-1.35-1.6a15.13,15.13,0,0,0,4.68-2.54A16.37,16.37,0,0,0,127.67,3h-3.21a39,39,0,0,0-4.36.2V1.4c.58.05,2.79.14,3.53.14h2.65a11,11,0,0,0,2.16-.09,1.92,1.92,0,0,0,.88-.41l1.33,1.48c-.34.23-.45.32-.86.63a38.35,38.35,0,0,1-2.66,4.63,22.48,22.48,0,0,1,5.06,5Z"/><path class="cls-1" d="M146.39,2.39c-.77,2-1.17,3-1.49,3.71a12.39,12.39,0,0,1-.77,1.44,13.38,13.38,0,0,1,2.61,2.86l-1.35,1.39A19,19,0,0,0,143.06,9a26.23,26.23,0,0,1-5.82,5.17l-1.82-1.42a9.26,9.26,0,0,0,3.29-1.87,16.86,16.86,0,0,0,3-3.06,23.25,23.25,0,0,0-3.15-2.21l1-1.53a25.48,25.48,0,0,1,3.15,2.25A13.76,13.76,0,0,0,144.64.85l1.91.81c.34.14.4.25.4.34C146.95,2.27,146.61,2.36,146.39,2.39Z"/><path class="cls-1" d="M159.82,8.28H155.7c-.23,0-2.93,0-4.74.22v-2a34.6,34.6,0,0,0,4.74.22h4.12a37.91,37.91,0,0,0,4.74-.22v2A42.77,42.77,0,0,0,159.82,8.28Z"/><path class="cls-1" d="M180,13c-.9,1.71-3.22,1.58-4,1.55l-.86-1.89a9.12,9.12,0,0,0,1.6.13,1.77,1.77,0,0,0,1.84-1c.92-2.07,1-5.82,1-6.52h-4a13.82,13.82,0,0,1-2.38,6.18,12.12,12.12,0,0,1-3.73,3.37L168,13.45c4.41-1.84,5.44-6.16,5.82-8.23-3.67.07-3.76.07-5.33.2V3.64c1.28.09,2.48.2,5,.2H174a20.81,20.81,0,0,0,.13-2.21A11.05,11.05,0,0,0,174,0l2.11.36c.41.07.54.09.54.27s-.36.38-.5.45c0,.23-.07.38-.09.58s-.25,1.87-.29,2.18H178a34.27,34.27,0,0,0,3.49-.13C181.38,5.85,181.2,10.64,180,13Z"/><path class="cls-1" d="M0,24.93V21.27H.56v3.15H2.27v.5Z"/><path class="cls-1" d="M3.16,23.74c0,.2.09.85.67.85a.65.65,0,0,0,.64-.5H5a1.11,1.11,0,0,1-1.13,1A1.31,1.31,0,0,1,2.62,23.6a1.29,1.29,0,0,1,1.26-1.42,1.05,1.05,0,0,1,1,.7,2.25,2.25,0,0,1,.13.86Zm.7-1.12c-.53,0-.65.52-.68.68H4.5A.66.66,0,0,0,3.86,22.63Z"/><path class="cls-1" d="M7.52,25a.41.41,0,0,1-.35-.18.53.53,0,0,1-.08-.27,1.11,1.11,0,0,1-.89.45.78.78,0,0,1-.84-.79c0-.78.77-.86,1.18-.9s.55,0,.55-.38-.33-.38-.52-.38S6,22.66,6,23H5.48c0-.29.15-.86,1.13-.86.52,0,1,.19,1,.87V24.4c0,.12,0,.22.16.22a.18.18,0,0,0,.13-.05v.38A.76.76,0,0,1,7.52,25Zm-.43-1.38a1.78,1.78,0,0,1-.66.16c-.21,0-.53.08-.53.41a.36.36,0,0,0,.39.36c.43,0,.8-.35.8-.58Z"/><path class="cls-1" d="M10.68,21.27v3.65H10.2l0-.28a.94.94,0,0,1-.8.4,1.27,1.27,0,0,1-1.2-1.43,1.27,1.27,0,0,1,1.21-1.43.94.94,0,0,1,.78.37V21.27ZM9.43,24.6c.51,0,.74-.46.74-1s-.23-1-.74-1-.74.42-.74,1S8.95,24.6,9.43,24.6Z"/><path class="cls-1" d="M11.34,24.93V21.27h.52v3.65Z"/><path class="cls-1" d="M13,23.74c0,.2.09.85.67.85a.65.65,0,0,0,.64-.5h.51a1.11,1.11,0,0,1-1.13,1,1.31,1.31,0,0,1-1.23-1.45,1.29,1.29,0,0,1,1.26-1.42,1.05,1.05,0,0,1,1,.7,2.25,2.25,0,0,1,.13.86Zm.7-1.12c-.53,0-.65.52-.68.68h1.33A.66.66,0,0,0,13.67,22.63Z"/><path class="cls-1" d="M16.27,25a1.24,1.24,0,0,1-.72-.21.89.89,0,0,1-.34-.71h.51c0,.4.29.49.57.49s.54-.12.54-.39-.17-.31-.71-.46-.82-.31-.82-.75a.86.86,0,0,1,1-.82,1,1,0,0,1,.85.38.93.93,0,0,1,.16.46h-.51a.45.45,0,0,0-.49-.4c-.28,0-.48.15-.48.34s.17.29.61.4c.66.17.93.36.93.8S17,25,16.27,25Z"/><path class="cls-1" d="M18.77,25a1.24,1.24,0,0,1-.72-.21.89.89,0,0,1-.34-.71h.51c0,.4.29.49.57.49s.54-.12.54-.39-.17-.31-.71-.46-.82-.31-.82-.75a.86.86,0,0,1,1-.82,1,1,0,0,1,.85.38.93.93,0,0,1,.16.46h-.51a.45.45,0,0,0-.49-.4c-.28,0-.48.15-.48.34s.17.29.61.4c.66.17.93.36.93.8S19.48,25,18.77,25Z"/><path class="cls-1" d="M22,25.74V22.31h.48l0,.28a.94.94,0,0,1,.8-.4,1.27,1.27,0,0,1,1.2,1.43A1.27,1.27,0,0,1,23.26,25a.94.94,0,0,1-.79-.37v1.07Zm1.25-3.11c-.5,0-.74.46-.74,1s.24,1,.74,1,.74-.42.74-1S23.7,22.64,23.21,22.64Z"/><path class="cls-1" d="M27,25a.41.41,0,0,1-.35-.18.53.53,0,0,1-.08-.27,1.11,1.11,0,0,1-.89.45.78.78,0,0,1-.84-.79c0-.78.77-.86,1.18-.9s.55,0,.55-.38-.33-.38-.52-.38-.59.05-.61.45h-.49c0-.29.15-.86,1.13-.86.52,0,1,.19,1,.87V24.4c0,.12,0,.22.16.22a.18.18,0,0,0,.13-.05v.38A.76.76,0,0,1,27,25Zm-.43-1.38a1.78,1.78,0,0,1-.66.16c-.21,0-.53.08-.53.41a.36.36,0,0,0,.39.36c.43,0,.8-.35.8-.58Z"/><path class="cls-1" d="M29.53,23.17a.59.59,0,0,0-.61-.54c-.37,0-.79.23-.79,1,0,.23,0,1,.72,1a.6.6,0,0,0,.66-.6H30a1.1,1.1,0,0,1-1.2,1,1.27,1.27,0,0,1-1.23-1.43,1.28,1.28,0,0,1,1.31-1.43,1.08,1.08,0,0,1,1.15,1Z"/><path class="cls-1" d="M30.95,23.74c0,.2.09.85.67.85a.65.65,0,0,0,.64-.5h.51a1.11,1.11,0,0,1-1.13,1,1.31,1.31,0,0,1-1.23-1.45,1.29,1.29,0,0,1,1.26-1.42,1.05,1.05,0,0,1,1,.7,2.26,2.26,0,0,1,.13.86Zm.7-1.12c-.53,0-.65.52-.68.68h1.33A.66.66,0,0,0,31.64,22.63Z"/><path class="cls-1" d="M36.22,24.93V23.17c0-.23-.12-.46-.38-.46-.44,0-.55.58-.55.73v1.5h-.52V23.16a.41.41,0,0,0-.38-.46c-.37,0-.55.45-.55.73v1.5h-.52V22.31h.48l0,.29a.82.82,0,0,1,.7-.41.76.76,0,0,1,.7.48.82.82,0,0,1,.73-.48.74.74,0,0,1,.75.69v2.05Z"/><path class="cls-1" d="M39.38,25a.41.41,0,0,1-.35-.18A.53.53,0,0,1,39,24.6a1.11,1.11,0,0,1-.89.45.78.78,0,0,1-.84-.79c0-.78.77-.86,1.18-.9s.55,0,.55-.38-.33-.38-.52-.38-.59.05-.61.45h-.49c0-.29.15-.86,1.13-.86.52,0,1,.19,1,.87V24.4c0,.12,0,.22.16.22a.18.18,0,0,0,.13-.05v.38A.76.76,0,0,1,39.38,25ZM39,23.67a1.78,1.78,0,0,1-.66.16c-.21,0-.53.08-.53.41a.36.36,0,0,0,.39.36c.43,0,.8-.35.8-.58Z"/><path class="cls-1" d="M41.71,24.93,41,23.62l-.32.32v1h-.52V21.27h.52v2l1-1h.64l-.93,1,.94,1.67Z"/><path class="cls-1" d="M43.08,23.74c0,.2.09.85.67.85a.65.65,0,0,0,.64-.5h.51a1.11,1.11,0,0,1-1.13,1,1.31,1.31,0,0,1-1.23-1.45,1.29,1.29,0,0,1,1.26-1.42,1.05,1.05,0,0,1,1,.7,2.25,2.25,0,0,1,.13.86Zm.7-1.12c-.53,0-.65.52-.68.68h1.33A.66.66,0,0,0,43.78,22.63Z"/><path class="cls-1" d="M46.19,22.86a1.1,1.1,0,0,0-.29.67v1.4h-.52V22.31h.49l0,.31a.89.89,0,0,1,.69-.43l.08,0v.5A.68.68,0,0,0,46.19,22.86Z"/></g></g></svg>