<svg xmlns="http://www.w3.org/2000/svg" width="69.2mm" height="16.86mm" viewBox="0 0 196.16 47.8"><defs><style>.cls-1{fill:#231815;}</style></defs><title>img_slide_13_title</title><g id="レイヤー_2" data-name="レイヤー 2"><g id="文字"><path class="cls-1" d="M5.32,11.27a22,22,0,0,1-3.47,1.58c0,.26-.07.53-.29.53s-.24-.05-.35-.27l-1-2A11.43,11.43,0,0,0,5.48,9.22ZM14.65,4c0,.91,0,1.06.07,1.5h-2.2A11.18,11.18,0,0,0,12.63,4H7.75c0,1,0,1.08.06,1.5H5.7c0-.7.07-1,.09-1.5C3.61,4,2,4,.26,4.14v-2c1.85.13,3.7.17,5.55.17,0-.59,0-1,0-1.8L7.86.7c.08,0,.37,0,.37.25s-.22.33-.44.44c0,.35,0,.5,0,.94h4.88c0-.79-.07-1.16-.11-1.71l2.24.22c.16,0,.36,0,.36.26s-.18.31-.47.44c0,.46,0,.59,0,.79,1.87,0,3.72-.06,5.57-.17v2C18.42,4,16.81,4,14.65,4ZM13.49,15.84H13a9.16,9.16,0,0,0,3.32,2.05,14.75,14.75,0,0,0,3.48.92l-1.63,1.7a15.1,15.1,0,0,1-7-4.12v.4c0,.75,0,3,.13,3.74H9.07c0-.46.13-3.06.13-3.59v-.42a19.59,19.59,0,0,1-6.85,4.05L1,18.92a12.72,12.72,0,0,0,4.34-1.65,21.67,21.67,0,0,0,2.06-1.43H7c-2.76,0-4.63,0-6.5.13V14c2.31.16,5.4.18,6.5.18H9.2V13.09H8.74c-2,0-2.27,0-2.84.05,0-.31.15-2.07.15-2.4V8.12A16.41,16.41,0,0,0,6,6l2,.06a5.94,5.94,0,0,0,.75,0,6.75,6.75,0,0,0,.4-1.63l2.13.3c.13,0,.26.09.26.25s-.28.3-.48.35c-.15.37-.2.44-.33.73h.77a22.92,22.92,0,0,0,2.82-.16c0,.62,0,1.65,0,2.36v2.44l1.15-1.3a15.23,15.23,0,0,1,4.2,2.4l-1.34,1.67a8.71,8.71,0,0,0-4-2.51c0,1,.07,1.19.11,2.16-.59,0-1.89-.07-2.46-.07h-.79v1.08h2.33c1,0,4.07,0,6.49-.18v2C18,15.84,16.15,15.84,13.49,15.84ZM4.47,9A14,14,0,0,0,.88,6.58L2.18,5A25.31,25.31,0,0,1,5.65,7.46Zm7.9-1.54H8V8.78h4.4Zm0,2.64H8v1.37h4.4Zm6.44-3.43a14.78,14.78,0,0,1-2.62,2.36L14.63,7.88a9.87,9.87,0,0,0,2.75-2.71l1.85,1.06a.33.33,0,0,1,.18.26C19.41,6.69,19.14,6.71,18.81,6.71Z"/><path class="cls-1" d="M40,3.81v7.48c0,.92,0,3.65.11,4.44h-2.2c.09-1.1.22-3.45.22-4.6V9.46L37,11a26,26,0,0,1-5.36-2.11,14.76,14.76,0,0,1-3.57,1.83l.51.11c.52.11.57.13.57.28s-.11.2-.42.36a1.4,1.4,0,0,0,0,.33h5.39c0-.4,0-.88,0-1.15l2,.24c.41.05.57.07.57.33s-.35.4-.55.51c0,.15-.07,2-.07,2.16v2.86a29.22,29.22,0,0,0,.22,3.43H34c0-.64.07-2.77.07-3.43v-.62H28.36a8,8,0,0,1-2.09,4.34l-1.76-1.22c1.52-1.32,2.31-2.9,2.24-8.14a11.31,11.31,0,0,1-1.45.25L24,9.48c3.59-.19,5.1-1,6.07-1.6A12.9,12.9,0,0,1,27,4.42l-2.2.13V2.75c1.17.07,3.72.13,5,.13h.77c-.05-.68-.09-1.63-.11-2.29l2.26.27c.24,0,.46,0,.46.31s-.24.33-.61.46c0,.13,0,.83,0,1.25h.57c.61,0,4.09-.13,4.27-.15V4.51l-1.79,0a11.6,11.6,0,0,1-2.39,3.19A13.16,13.16,0,0,0,38.08,9V7.17c0-1.14,0-3.41-.13-4.49L40.13,3c.13,0,.42,0,.42.33S40.13,3.76,40,3.81Zm-5.87,9.55H28.6c0,.17-.06,1-.06,1.21h5.54ZM33,4.42H29.24a6.92,6.92,0,0,0,2.29,2.33,12.18,12.18,0,0,0,1.91-2.31ZM43.67,1.89c0,1.23-.06,4-.06,4.62v6.08c0,.83,0,4.53,0,5.28,0,1.32-.22,2.37-1.83,2.44-.29,0-1.58,0-2,0L39,18.09a7.88,7.88,0,0,0,1.87.26c.73,0,.75-.24.75-1.41V6.58c0-.29,0-.73-.06-1.92-.05-.9-.11-2.77-.16-3.78l2.45.29c.22,0,.41.06.41.3S44,1.76,43.67,1.89Z"/><path class="cls-1" d="M61.23,17.58a11.11,11.11,0,0,0,.06-1.14h-6c-1.52,0-4.73.06-6.09.24v-2.4c2.35.11,4.71.2,7.08.2h5.11V6.07H56.1c-.83,0-4.49.07-5.24.09s-1.27.11-1.87.18V4c.73.07,1.13.09,1.7.11s3.28.07,3.83.07h5.15c1.1,0,3,0,4.11-.07-.09.88-.13,3.46-.13,4.4v3.72c0,1.25.09,4.27.26,5.39Z"/><path class="cls-1" d="M79.82,11.49h-5c-.29,0-3.59,0-5.79.26V9.35a42.37,42.37,0,0,0,5.79.27h5a46.67,46.67,0,0,0,5.79-.27v2.4A52.52,52.52,0,0,0,79.82,11.49Z"/><path class="cls-1" d="M102,9.79h-1.06c0,.9-.22,5-2.26,7.24A10.49,10.49,0,0,1,94,19.8l-2-1.74a7.53,7.53,0,0,0,4.8-2.33c.77-.75,1.85-2.2,1.85-5.94h-2.4c-1.94,0-3.87.05-5.81.2V7.7c2,.16,4.93.2,5.81.2H102c.2,0,3.5,0,5.88-.2V10C105.87,9.84,103.91,9.79,102,9.79Zm-1.06-5.5H97.22a35.32,35.32,0,0,0-3.74.2V2.05c1.23.15,3.15.19,3.74.19h3.67a35.75,35.75,0,0,0,3.79-.19V4.49A35.73,35.73,0,0,0,100.89,4.29Z"/><path class="cls-1" d="M124.33,7.08a.82.82,0,0,0-.64.27,22.94,22.94,0,0,1-3.33,3v6.29c0,.72.11,2.73.16,3.58h-2c.06-1.34.11-2.22.11-3.52v-5.1a33.4,33.4,0,0,1-4.82,2.79L112,12.87a23.37,23.37,0,0,0,6.89-3.76,18.36,18.36,0,0,0,4-4.14l1.52,1.21c.17.16.44.38.44.6S124.77,7,124.33,7.08Z"/><path class="cls-1" d="M131.76,18.33a4.73,4.73,0,0,1-.2.5.25.25,0,0,1-.24.14c-.16,0-.22-.09-.46-.53l-1.19-2.29c3.39-.46,11.31-3.92,15.49-9.31L146,9C141.73,14.06,134.8,17,131.76,18.33ZM134.82,7a18.21,18.21,0,0,0-4.8-3l1.21-2A16,16,0,0,1,136.07,5Z"/><path class="cls-1" d="M164.5,7.88a21,21,0,0,1-5.79,9.26,17.32,17.32,0,0,1-4.38,2.75l-2-1.5a15.79,15.79,0,0,0,7-5.08,20,20,0,0,0,3.43-7.41h-6.62a22.7,22.7,0,0,1-4.47,5l-1.74-1.32a18.58,18.58,0,0,0,6.18-8.41l2.29,1s.46.2.46.44,0,.26-1,.53c-.42.7-.47.77-.64,1h3.36c1.94,0,2.18,0,2.47,0a1.8,1.8,0,0,0,1.1-.29l1.69,1.74A3.83,3.83,0,0,0,164.5,7.88ZM163.57,3c-1.1-1-1.23-1.08-2.29-1.9l1.17-1a12.57,12.57,0,0,1,2.33,2Zm3.48.08A11.57,11.57,0,0,0,164.89,1l1.26-1a7.29,7.29,0,0,1,2.15,2.07Z"/><path class="cls-1" d="M7.46,33.74c-.09.38-.15.64-.77,3a24.31,24.31,0,0,1-4.47,8.93L0,44.61a18.76,18.76,0,0,0,3.52-5.26,24.27,24.27,0,0,0,1.76-7.28l2.55.73c.36.11.47.2.47.37S8.12,33.59,7.46,33.74ZM16.81,45a24.47,24.47,0,0,0-5.19-11.7l1.82-1.19a30.54,30.54,0,0,1,5.79,12Zm-.26-11.88-1-1c-.29-.29-.73-.66-1.26-1.1l1.1-1.17a10.38,10.38,0,0,1,2.29,2.14Zm2.15-1.39a9.91,9.91,0,0,0-2.18-2.07l1.13-1.07a8,8,0,0,1,2.15,2.11Z"/><path class="cls-1" d="M31.24,32.16c-.09.06-.53.33-.59.39,0,6.8-.88,11.29-5.44,13.84l-1.74-1.84a7,7,0,0,0,3.92-3.9,9.66,9.66,0,0,0,.79-3.17,20.06,20.06,0,0,0,.14-2.57,23,23,0,0,0-.27-3.9l2.6.36c.55.06.72.11.72.46A.42.42,0,0,1,31.24,32.16Zm4.05,14L33.73,45a21,21,0,0,0,.13-2.44c0-.72,0-1.91,0-2.62V35.41c0-.35-.11-4.09-.15-4.77l2.46.26c.29,0,.6.14.6.44a.47.47,0,0,1-.24.4c-.2.15-.22.18-.38.31-.13,1-.15,3.78-.15,4.84V43A14.65,14.65,0,0,0,42,36.74l1.47,1.76A22.63,22.63,0,0,1,35.29,46.13Z"/><path class="cls-1" d="M58.48,39.49h-5c-.29,0-3.59,0-5.79.26v-2.4a42.37,42.37,0,0,0,5.79.27h5a46.58,46.58,0,0,0,5.79-.27v2.4A52.52,52.52,0,0,0,58.48,39.49Z"/><path class="cls-1" d="M71.39,46.33a4.73,4.73,0,0,1-.2.5A.25.25,0,0,1,71,47c-.15,0-.22-.09-.46-.53L69.3,44.15c3.39-.46,11.31-3.92,15.49-9.31L85.67,37C81.36,42.06,74.43,45,71.39,46.33ZM74.45,35a18.21,18.21,0,0,0-4.8-3l1.21-2A16,16,0,0,1,75.7,33Z"/><path class="cls-1" d="M104,45.23c-1.1,2.09-3.94,1.93-4.86,1.89l-1.06-2.31a11.06,11.06,0,0,0,2,.15,2.16,2.16,0,0,0,2.24-1.25c1.13-2.53,1.24-7.11,1.26-8H98.72c-.75,4-1.81,6.07-2.91,7.54a14.94,14.94,0,0,1-4.55,4.12L89.41,45.8c5.39-2.24,6.64-7.52,7.11-10-4.49.08-4.6.08-6.52.24V33.81c1.57.11,3,.24,6.14.24h.64a25.33,25.33,0,0,0,.15-2.71,13.06,13.06,0,0,0-.13-2l2.58.44c.5.09.66.11.66.33s-.44.47-.62.55c0,.29-.09.47-.11.71-.07.42-.31,2.29-.35,2.66h2.66c.95,0,2.36,0,4.27-.15C105.78,36.52,105.56,42.37,104,45.23Z"/><path class="cls-1" d="M122.5,37.79h-1.06c0,.9-.22,5-2.26,7.24a10.49,10.49,0,0,1-4.62,2.77l-2-1.74a7.55,7.55,0,0,0,4.8-2.33c.77-.75,1.85-2.2,1.85-5.94h-2.4c-1.94,0-3.87.05-5.81.2V35.7c2,.16,4.93.2,5.81.2h5.72c.2,0,3.5,0,5.87-.2V38C126.42,37.84,124.46,37.79,122.5,37.79Zm-1.06-5.5h-3.67a35.32,35.32,0,0,0-3.74.2V30.05c1.23.15,3.14.19,3.74.19h3.67a35.75,35.75,0,0,0,3.79-.19v2.44A35.73,35.73,0,0,0,121.44,32.29Z"/><path class="cls-1" d="M143.88,39.49h-5c-.28,0-3.58,0-5.78.26v-2.4a42.3,42.3,0,0,0,5.78.27h5a46.49,46.49,0,0,0,5.79-.27v2.4A52.42,52.42,0,0,0,143.88,39.49Z"/><path class="cls-1" d="M166,37.79H165c0,.9-.22,5-2.27,7.24a10.44,10.44,0,0,1-4.62,2.77l-2-1.74a7.51,7.51,0,0,0,4.79-2.33c.77-.75,1.85-2.2,1.85-5.94h-2.4c-1.93,0-3.87.05-5.8.2V35.7c1.95.16,4.92.2,5.8.2H166c.19,0,3.49,0,5.87-.2V38C169.93,37.84,168,37.79,166,37.79ZM165,32.29h-3.68a35.6,35.6,0,0,0-3.74.2V30.05c1.24.15,3.15.19,3.74.19H165a35.49,35.49,0,0,0,3.78-.19v2.44A35.48,35.48,0,0,0,165,32.29Z"/><path class="cls-1" d="M184,32.16c-.09.06-.53.33-.6.39,0,6.8-.88,11.29-5.43,13.84l-1.74-1.84a7,7,0,0,0,3.92-3.9,9.92,9.92,0,0,0,.79-3.17,21.59,21.59,0,0,0,.13-2.57,23.36,23.36,0,0,0-.26-3.9l2.59.36c.55.06.73.11.73.46A.42.42,0,0,1,184,32.16Zm4.05,14L186.45,45a21,21,0,0,0,.14-2.44c0-.72,0-1.91,0-2.62V35.41c0-.35-.11-4.09-.15-4.77l2.46.26c.29,0,.59.14.59.44a.45.45,0,0,1-.24.4,4.6,4.6,0,0,0-.37.31c-.13,1-.16,3.78-.16,4.84V43a13.31,13.31,0,0,0,3.7-3,13,13,0,0,0,2.22-3.3l1.48,1.76A22.71,22.71,0,0,1,188,46.13Z"/></g></g></svg>