<svg xmlns="http://www.w3.org/2000/svg" viewBox="0 0 122.44 50.41"><defs><style>.cls-1{fill:#231815;}</style></defs><title>img_slide_07_start</title><g id="レイヤー_2" data-name="レイヤー 2"><g id="文字"><path class="cls-1" d="M15,25.33a5.17,5.17,0,0,0-4.84-2.84c-2.4,0-5,1.64-5,4.28,0,2.36,2.32,3.6,4.2,4.32l2.16.84C15.76,33.61,19,36,19,41a9.3,9.3,0,0,1-9.64,9.4A9.4,9.4,0,0,1,0,42l3.8-.8A5.7,5.7,0,1,0,15.2,41c0-3.24-2.6-4.64-5.2-5.72l-2.08-.88C4.48,32.93,1.36,31,1.36,26.77c0-4.88,4.32-7.8,8.88-7.8A8.6,8.6,0,0,1,18,23.53Z"/><path class="cls-1" d="M35.2,49.77H31.44V23.05H24.28V19.61H42.36v3.44H35.2Z"/><path class="cls-1" d="M53.6,42.21l-3.44,7.56h-4l14.4-31.43,14.4,31.43h-4l-3.44-7.56Zm6.92-15.64-5.36,12.2H65.88Z"/><path class="cls-1" d="M100.2,49.77H95.64L86.76,37H85.2V49.77H81.44V19.61H86c2.68,0,5.56,0,8,1.4a8.35,8.35,0,0,1,4,7.2,8.21,8.21,0,0,1-7.24,8.44Zm-15-15.88h1.2c3.84,0,8-.72,8-5.52S89.92,23,86.2,23h-1Z"/><path class="cls-1" d="M115.28,49.77h-3.76V23.05h-7.16V19.61h18.08v3.44h-7.16Z"/><path class="cls-1" d="M43.64,4.78c-1,.75-1.47,1.1-1.7,1.78h3.68v1H40.76c.15-1.69.46-2.06,2.28-3.47,1.21-.94,1.52-1.26,1.52-1.91A1.14,1.14,0,0,0,43.29,1C42.06,1,42,2.06,42,2.61H40.94A3.09,3.09,0,0,1,41.41.92,2.32,2.32,0,0,1,43.36,0a2.14,2.14,0,0,1,2.29,2.16C45.65,3.24,45.1,3.71,43.64,4.78Z"/><path class="cls-1" d="M52.44,6.69a2.17,2.17,0,0,1-3.76,0,6.16,6.16,0,0,1-.58-2.81,6.3,6.3,0,0,1,.58-2.81,2.19,2.19,0,0,1,3.76,0A6.27,6.27,0,0,1,53,3.88,6.17,6.17,0,0,1,52.44,6.69ZM50.56.91c-1.18,0-1.4,1.34-1.4,3s.17,3,1.4,3,1.4-1.33,1.4-3S51.78.91,50.56.91Z"/><path class="cls-1" d="M57.69,7.53V2.31H56.13v-.7C57.7,1.54,57.92.77,58.06.23h.69v7.3Z"/><path class="cls-1" d="M64.86,7.53H63.74a12.9,12.9,0,0,1,2.95-6.3h-4v-1h5.08v1A10.61,10.61,0,0,0,64.86,7.53Z"/><path class="cls-1" d="M70.56,7.53V6.34h1.19V7.53Z"/><path class="cls-1" d="M76.83,7.77a2,2,0,0,1-2.16-1.9h1a1.06,1.06,0,0,0,1.16,1c1.38,0,1.56-1.56,1.62-2.53A2,2,0,0,1,76.85,5a2.22,2.22,0,0,1-2.28-2.42A2.35,2.35,0,0,1,77,0c2.43,0,2.48,2.62,2.48,3.63S79.4,7.77,76.83,7.77ZM77,.91c-.56,0-1.39.27-1.39,1.62A1.33,1.33,0,0,0,76.93,4a1.36,1.36,0,0,0,1.42-1.54A1.42,1.42,0,0,0,77,.91Z"/></g></g></svg>