<svg xmlns="http://www.w3.org/2000/svg" width="88.63mm" height="13.04mm" viewBox="0 0 251.24 36.97"><defs><style>.cls-1{fill:#231815;}</style></defs><title>img_slide_10_title</title><g id="レイヤー_2" data-name="レイヤー 2"><g id="文字"><path class="cls-1" d="M19.29,18.84a15.61,15.61,0,0,1-7.54-6.19v.6c0,1.47.06,6,.2,7.28H9.31c.06-.68.15-1.61.17-3.65,0-.51,0-2.51.07-2.89,0-.19,0-.41,0-.5v-.6A22.24,22.24,0,0,1,2.07,19L.37,17.16A15.25,15.25,0,0,0,5.5,14.28a20.76,20.76,0,0,0,3.37-3.85H8.05c-1.8,0-3.61,0-5.39.18V8.45c1.85.15,4.55.18,5.39.18H9.57V5.57H7.5c-2.16,0-4.31,0-6.47.2V3.59c2.22.15,5.48.19,6.47.19H9.55c0-2.22-.05-2.42-.11-3.23l2.33.18c.24,0,.68.08.68.37s-.06.24-.61.59c0,.93-.05,1.13-.07,2.09h2.11c2.18,0,4.36,0,6.54-.19V5.77c-2.82-.2-6.3-.2-6.54-.2H11.75V8.63h1.63c1.82,0,3.65,0,5.45-.18v2.16c-2.35-.18-5.26-.18-5.45-.18h-.69a13.91,13.91,0,0,0,8.12,6.29Z"/><path class="cls-1" d="M32.08,13.16a11.51,11.51,0,0,1-1.92-2.8v3c0,3.63.11,5.56.2,7.17H28c.22-3.23.29-4.4.29-7.13V11.27a15.14,15.14,0,0,1-2.38,4L24,14.48a18,18,0,0,0,4.11-7.66h-.48A20,20,0,0,0,24.9,7V4.84A18.61,18.61,0,0,0,27.59,5h.66c0-1.39-.07-3.11-.14-4.49l2.36.22c.11,0,.35,0,.35.24s-.35.4-.51.44c0,.51,0,.68,0,2.4,0,.79,0,.84,0,1.19a18.21,18.21,0,0,0,2.68-.18V7a19.79,19.79,0,0,0-2.59-.18,11.89,11.89,0,0,0,3.54,5.35Zm3.67-7.33a17.09,17.09,0,0,0-3-4.16L34.32.35a30.73,30.73,0,0,1,3.15,4.23ZM44.24,10v8c0,2-.68,2.63-3.28,2.79l-1.38-2.51a14,14,0,0,0,2.13.24c.6,0,.6-.33.6-.77V15.27H36c0,.88,0,3.48.15,5.24H34c0-.46.09-2.27.11-3.06,0-1,0-2.4,0-2.71V10.36c0-1.29-.06-3-.13-4.33.84.11,2.49.18,3.35.18h.72V3.54c0-.75,0-1.74-.06-2.48,0-.27,0-.36-.07-.6l2.2.16c.13,0,.44,0,.44.24s-.31.35-.48.42c0,1.1-.07,1.84-.07,2.33v2.6h1.12A16.17,16.17,0,0,0,44.27,6C44.24,6.91,44.24,7.22,44.24,10ZM42.31,8H36V9.79h6.34Zm0,3.56H36v2h6.34ZM44.7,1.74a18.8,18.8,0,0,1-2.39,4.14L40.63,4.8A15.4,15.4,0,0,0,43,.42l2.18.83c.09,0,.15.07.15.18C45.32,1.69,45,1.72,44.7,1.74Z"/><path class="cls-1" d="M62.13,19.34H56.6c-2.22,0-3.38,0-7.5.22V17.3l2,.08v-7c0-1.87,0-2.35-.11-6.25,3.48.16,3.79.18,5.28.2a12.33,12.33,0,0,0,.86-3.5l2.69.35c.13,0,.33.07.33.25s-.24.35-.57.46a17.54,17.54,0,0,1-1.13,2.44H61.4c1.37,0,3.7-.11,5.72-.2C67,8.14,67,8.52,67,10.47V17.3c1-.05,1.06-.05,2.11-.12v2.18ZM55.7,6.21H53.28V17.47H55.7Zm4.56,0H57.84V17.47h2.42Zm4.6,0H62.39V17.47h2.47Z"/><path class="cls-1" d="M90.13,4.18H88.68a6.68,6.68,0,0,1,.79,1.76l-2,.66a7.59,7.59,0,0,0-1-2.42H85.25a14.78,14.78,0,0,1-1.32,1.65l.46.09c.2,0,.4.06.4.26s-.27.33-.44.4a2.82,2.82,0,0,0,0,.42h1.91c1.56,0,5.06-.11,6.56-.2a28,28,0,0,0,.08,4.38H90.66c0-.42.09-2.31.11-2.69H76c.05,1.46.07,2.38.11,2.78H73.7A9.07,9.07,0,0,0,73.87,9a11.64,11.64,0,0,0-.11-2.11c1.9.06,4.6.13,6.54.13h2c0-.4,0-.9-.07-1.26l-.7-.33A7.44,7.44,0,0,0,82.7,4.29c-.51,0-1.59-.11-2.07-.11h-.79a6.9,6.9,0,0,1,.79,1.72l-1.89.7a7.51,7.51,0,0,0-.95-2.42h-.73a11.48,11.48,0,0,1-1.87,2.13l-1.87-1A9.62,9.62,0,0,0,76.4.53l2.29.64c.16,0,.35.13.35.28s-.33.31-.66.35a8.36,8.36,0,0,1-.39.77h2.64c.48,0,1.52,0,2.24-.11V4.11A10,10,0,0,0,84.68.53l2.22.61c.22.07.33.16.33.29s-.18.26-.64.4c-.09.19-.13.24-.37.68h3.91A23.21,23.21,0,0,0,93,2.33v2A20.77,20.77,0,0,0,90.13,4.18ZM87.45,20.49c0-.11.07-.66.07-.78H79.31a6.18,6.18,0,0,0,.09.78H77.09c0-.69.06-.69.15-2a18,18,0,0,0,.09-1.93V12.78c0-1.07,0-2.17-.07-3.25.51,0,3.19.11,3.77.11h3.85c.41,0,3.05-.09,3.82-.11,0,.13-.06,1.56-.06,1.56v1.45c0,.38,0,.9.09,1.65-1.17-.06-2.86-.13-5.2-.13H79.29v1.06h4.88c2.22,0,3.63-.07,5.55-.14,0,.36-.07,1.48-.07,1.85v1.23c0,.4.09,2.1.09,2.43Zm-.86-9.29h-7.3v1.41h7.3Zm1,5.43H79.29v1.61h8.27Z"/><path class="cls-1" d="M112.88,18.5a22.48,22.48,0,0,0-5.63-6,23.26,23.26,0,0,1-8.14,6.07l-1.65-2a18.46,18.46,0,0,0,5.72-3.1,19.92,19.92,0,0,0,6-8.45h-3.91a47.21,47.21,0,0,0-5.33.24V3.08c.7.07,3.41.18,4.31.18h3.24a13.81,13.81,0,0,0,2.64-.11,2.37,2.37,0,0,0,1.08-.51l1.62,1.8c-.41.29-.55.4-1.05.77a46.2,46.2,0,0,1-3.26,5.66,27.5,27.5,0,0,1,6.18,6.05Z"/><path class="cls-1" d="M130.72,9.79h-1.05c0,.9-.22,5-2.27,7.24a10.44,10.44,0,0,1-4.62,2.77l-2-1.74a7.51,7.51,0,0,0,4.79-2.33c.77-.75,1.85-2.2,1.85-5.94H125c-1.93,0-3.87.05-5.81.2V7.7c2,.16,4.93.2,5.81.2h5.72c.2,0,3.5,0,5.88-.2V10C134.64,9.84,132.68,9.79,130.72,9.79Zm-1.05-5.5H126a35.6,35.6,0,0,0-3.74.2V2.05c1.24.15,3.15.19,3.74.19h3.68a35.49,35.49,0,0,0,3.78-.19V4.49A35.69,35.69,0,0,0,129.67,4.29Z"/><path class="cls-1" d="M143.68,18.33c0,.09-.15.44-.2.51a.26.26,0,0,1-.24.13c-.15,0-.22-.09-.46-.53l-1.19-2.29c3.39-.46,11.31-3.92,15.49-9.31L158,9C153.65,14.06,146.72,17,143.68,18.33ZM146.74,7a18.21,18.21,0,0,0-4.8-3l1.21-2A16,16,0,0,1,148,5Z"/><path class="cls-1" d="M171.84,14.13a19.28,19.28,0,0,0-6.51-4.56v3.65c0,1.3.09,5.15.24,6.28h-2.66a30.18,30.18,0,0,0,.18-3.24c0-.51.08-2.73.08-3.19V7.33c0-.86-.06-3.22-.13-4a8.67,8.67,0,0,0-.22-1.45l2.93.2c.13,0,.42,0,.42.33s-.25.37-.73.66c-.09,1.36-.11,2.73-.11,4.07V9.55l1-2a22.56,22.56,0,0,1,6.93,4.8Z"/><path class="cls-1" d="M191.86,7.88a21,21,0,0,1-5.78,9.26,17.32,17.32,0,0,1-4.38,2.75l-2-1.5a15.7,15.7,0,0,0,7-5.08,20,20,0,0,0,3.43-7.41H183.5a22.62,22.62,0,0,1-4.46,5L177.3,9.55a18.58,18.58,0,0,0,6.18-8.41l2.29,1s.46.2.46.44,0,.26-1,.53c-.42.7-.46.77-.64,1H188c1.94,0,2.18,0,2.46,0a1.84,1.84,0,0,0,1.11-.29l1.69,1.74A3.89,3.89,0,0,0,191.86,7.88ZM190.94,3c-1.1-1-1.23-1.08-2.29-1.9l1.17-1a12.57,12.57,0,0,1,2.33,2Zm3.48.08A11.57,11.57,0,0,0,192.26,1l1.25-1a7.21,7.21,0,0,1,2.16,2.07Z"/><path class="cls-1" d="M214.17,10.14a19.63,19.63,0,0,1-3.65,5.46c-1.76,1.78-3.46,2.71-6.78,4.18l-1.76-2a12,12,0,0,0,5.3-2.24,14.52,14.52,0,0,0,5.22-7h-7c-1.65,0-4.68.09-6.27.26V6.42a7.88,7.88,0,0,0,1.17.18c1.06.07,3.1.09,4,.09h5.26c.7,0,2.22,0,2.86-.11a2.63,2.63,0,0,0,1.39-.48l1.71,1.73A8.07,8.07,0,0,0,214.17,10.14ZM209,3.63H205.5a26.76,26.76,0,0,0-3.58.2V1.65c1.23.15,3,.2,3.58.2H209a29.71,29.71,0,0,0,3.64-.2V3.83A33.15,33.15,0,0,0,209,3.63Z"/><path class="cls-1" d="M234.83,5.3c-.73,2.91-1.52,6.08-4.77,9.53a16.55,16.55,0,0,1-6.12,4.07l-2-1.89a13,13,0,0,0,8.78-6.6,11.66,11.66,0,0,0,1.9-5.53h-5.26c-1.24,0-5.61.2-7.2.31V3c1.48.14,4.36.18,5.57.18h3.7A28.11,28.11,0,0,0,232.5,3a1.37,1.37,0,0,0,1-.5l2,1.56Z"/><path class="cls-1" d="M249.79,14.13a19.28,19.28,0,0,0-6.51-4.56v3.65c0,1.3.08,5.15.24,6.28h-2.66a29.64,29.64,0,0,0,.17-3.24c0-.51.09-2.73.09-3.19V7.33c0-.86-.07-3.22-.13-4a9.84,9.84,0,0,0-.22-1.45l2.92.2c.14,0,.42,0,.42.33s-.24.37-.72.66c-.09,1.36-.11,2.73-.11,4.07V9.55l1-2a22.56,22.56,0,0,1,6.93,4.8Z"/><path class="cls-1" d="M1.42,32.77A3.55,3.55,0,0,0,0,32l.36-.73A3.84,3.84,0,0,1,1.8,32Zm-.29,3.7a1.19,1.19,0,0,0,0,.15c0,.07,0,.14-.1.14a.14.14,0,0,1-.1-.06l-.73-.61a11.24,11.24,0,0,0,1.56-3.28l.56.69A18.86,18.86,0,0,1,1.13,36.47Zm.88-6a3.59,3.59,0,0,0-1.4-.87l.4-.73a4.46,4.46,0,0,1,1.4.84Zm5.44,6.44a3.24,3.24,0,0,1-1.88-1.32A8.19,8.19,0,0,1,3.1,36.65l-.77-.73a6.45,6.45,0,0,0,2.06-.59,6.19,6.19,0,0,0,.76-.39,6.88,6.88,0,0,1-.51-1.32l-1.09.26c-.65.18-.73.2-.89.23l-.18-.86c.67-.08,1.33-.18,2-.31-.06-.29-.08-.39-.12-.69-.73.16-.81.18-1.38.33l-.13-.85a8.9,8.9,0,0,0,1.41-.18c0-.21,0-.41,0-.6l-1.62.35-.13-.82a10.51,10.51,0,0,0,1.72-.22c0-.19,0-1,0-1.16s0-.2,0-.43l1,.15c.07,0,.16,0,.16.1s-.08.11-.22.19a6.12,6.12,0,0,0-.06,1l1.13-.18.45-.07a3.06,3.06,0,0,0-.86-.69l.49-.53a3.31,3.31,0,0,1,1,.76l-.44.42a10.25,10.25,0,0,0,1.15-.28l.11.76c-.58.07-.67.08-1.84.29L5,30.81c0,.13,0,.44.06.59l1-.18c.49-.08,1.17-.24,1.56-.35l.11.78c-.4.06-1,.15-1.51.24l-1.11.2c0,.22.08.5.11.7l1.26-.25.93-.22.71-.17.1.78-1.58.28-1.26.25a4,4,0,0,0,.4,1,3.81,3.81,0,0,0,1-1.2l.82.5s.09.06.09.11-.1.1-.29.11a10.41,10.41,0,0,1-1.18,1.13c.4.54.82.82,1,.82s.3-.22.38-.52a6.15,6.15,0,0,0,.16-.7l.59.69C8.18,36.33,7.94,36.91,7.45,36.91Z"/><path class="cls-1" d="M17.48,36.76a7.29,7.29,0,0,1-2.08-1.42,5.81,5.81,0,0,1-1.32-2,5.72,5.72,0,0,1-1.35,2.17,5.25,5.25,0,0,1-2,1.32l-.62-.78a4.54,4.54,0,0,0,2.52-1.75,5.07,5.07,0,0,0,.94-2.48h-.77c-.85,0-1.69,0-2.54.07V31c.87.07,2.14.08,2.54.08h.84c0-.44,0-.81,0-1.22s0-.77,0-1l1,.11c.1,0,.26,0,.26.16s-.22.2-.34.25,0,.29,0,1.26c0,.23,0,.33,0,.44h.85c.85,0,1.7,0,2.56-.08v.89c-1.1-.07-2.47-.07-2.56-.07h-.82a5,5,0,0,0,3.54,4.09Z"/><path class="cls-1" d="M27.91,36.68H25.42c-1.21,0-1.45-.32-1.64-.54a5.82,5.82,0,0,1-.6.44s0,.08,0,.12,0,.14-.09.14-.06,0-.11-.06l-.49-.63c0,.39-.1.78-.79.78H21.5l-.42-.84a2.41,2.41,0,0,0,.49.08c.17,0,.2-.18.2-.29V33.8H21.1A7.38,7.38,0,0,1,20.38,37l-.69-.41a7.11,7.11,0,0,0,.69-3.44V29.91c0-.1,0-.56,0-.93a4.6,4.6,0,0,0,.72,0h.85c.2,0,.38,0,.59,0,0,.4,0,1.39,0,1.48v4.9c0,.09,0,.56,0,.66a3.83,3.83,0,0,0,.75-.32V33.18a4.64,4.64,0,0,0-.57,0v-.79a2,2,0,0,0,.49,0h.29l.6,0c0,.38,0,.77,0,1.15v1.65c0,.59.58.74,1.3.74h1.53a10.06,10.06,0,0,0,1.34-.08Zm-6.14-6.95h-.66v1.36h.66Zm0,2h-.66v1.4h.66ZM23.64,31a5.25,5.25,0,0,0-1-1.29l.53-.43a7.22,7.22,0,0,1,1.08,1.29Zm4.48,2.24a.36.36,0,0,1-.19-.05,6.72,6.72,0,0,1-.88.47,5,5,0,0,0,1.14,1.39l-.75.49a5.54,5.54,0,0,1-1-1.43c0,.11,0,.23-.07.62a12.48,12.48,0,0,1-1.7.63c0,.17-.09.23-.13.23s-.08,0-.14-.13l-.32-.67a4.33,4.33,0,0,0,.5-.1V30.28c0-.34,0-.83,0-1.36h3.21c0,.35,0,.71,0,1.06v1.6c0,.12,0,.68,0,.8-.35,0-.47,0-.79,0h-.35a3.39,3.39,0,0,0,.16.7,3.69,3.69,0,0,0,.85-.53l.48.49c.09.1.11.15.11.17S28.15,33.27,28.12,33.27ZM27,29.64H25.34v.68H27ZM27,31H25.34v.73H27Zm-1.14,1.41h-.5v2.15a5,5,0,0,0,1.09-.4A5,5,0,0,1,25.84,32.36Z"/><path class="cls-1" d="M37.36,36.17c-.14.34-.35.65-1.42.59l-.39-.95a3.13,3.13,0,0,0,.66.08c.31,0,.48,0,.63-.82a23.91,23.91,0,0,0,.25-3.57h-.65a9.24,9.24,0,0,1-.56,3.23,5.1,5.1,0,0,1-1.49,2.08l-.91-.43a4.58,4.58,0,0,0,.7-.53c-1.67.26-2.24.33-3.89.52,0,.12-.11.26-.23.26s-.13-.08-.14-.17l-.08-.88a13.48,13.48,0,0,0,2.1-.11v-.58h-.4c-.27,0-1,0-1.52,0v-.69c.5,0,1.18,0,1.52,0h.4v-.46h-.17c-.3,0-1,0-1.33,0,0-.22,0-.77,0-1v-.68c0-.14,0-.76,0-.93l1.16,0h.34V30.9h-.42c-.15,0-.86,0-1.56.05v-.71c.51,0,1.23.05,1.56.05h.42v-.45c-.39,0-.63,0-.85,0l-.63,0-.38-.71a4.8,4.8,0,0,0,1,.09,7,7,0,0,0,2.79-.49l.45.59a.21.21,0,0,1,0,.12c0,.06,0,.11-.12.11a.76.76,0,0,1-.27-.1,5.67,5.67,0,0,1-1.36.28v.54H33c.32,0,1,0,1.55-.05V31c-.48,0-1.24-.05-1.55-.05h-.3v.38h.28l1.32,0c0,.18,0,.66,0,.73v.92c0,.16,0,.69,0,1-.4,0-.8,0-1.39,0h-.21v.46h.16c.31,0,1,0,1.51,0v.69c-.47,0-1.22,0-1.51,0h-.16v.51c.62-.07,1.23-.13,1.75-.23l-.09.56c1.23-1.26,1.32-3.43,1.36-4.23-.51,0-.83,0-1.05,0v-.78c.27,0,.7,0,1.07,0a9.79,9.79,0,0,0-.1-1.95l1,.07c.08,0,.15,0,.15.11s-.14.17-.24.24v.31c0,.19,0,1.05,0,1.22h.18c.26,0,.72,0,1.21-.07C37.85,32.33,37.83,35.05,37.36,36.17Zm-5.42-4.33h-.76v.43h.76Zm0,1h-.76v.47h.76Zm1.58-1h-.87v.43h.87Zm0,1h-.87v.47h.87Z"/><path class="cls-1" d="M47.22,36.68c-1-1-1.84-1.91-1.78-5l-.35.05v2.49c0,.15,0,2,.06,2.48h-.88c0-.5.06-2,.06-2.48v-2.4a4.33,4.33,0,0,1-.44,0V33A6.76,6.76,0,0,1,43,36.7l-.6-.36c-.17.35-.54.43-1.24.42l-.43-.84a4.13,4.13,0,0,0,.65.07c.25,0,.3,0,.3-.23V33.9h-.81a6.78,6.78,0,0,1-.57,2.78l-.87-.25A3.66,3.66,0,0,0,40,35.06a10.14,10.14,0,0,0,.14-1.81V30.73c0-.43,0-1.29,0-1.71.14,0,.61,0,.75,0h.81a8.42,8.42,0,0,0,.87,0c0,.44,0,1.3,0,1.74v2.81c0,.37,0,2,0,2.36a6.07,6.07,0,0,0,.59-3V30.71c0-.41,0-1,0-1.36a4.05,4.05,0,0,0,.72,0,7.22,7.22,0,0,0,1.89-.23,2.67,2.67,0,0,0,1-.44l.72.65a.18.18,0,0,1,.06.1c0,.05-.05.09-.12.09a.65.65,0,0,1-.22,0,10.42,10.42,0,0,1-3.22.67v1a7,7,0,0,0,3.17-.82l.63.58a.19.19,0,0,1,.07.12c0,.05-.07.07-.12.07l-.2,0a6.18,6.18,0,0,1-1.24.44,3.87,3.87,0,0,0,0,.42c0,.12,0,.5,0,.91a3.79,3.79,0,0,0,1.07-.76l.64.64a.19.19,0,0,1,.06.11s-.06.09-.13.09l-.19,0a5.54,5.54,0,0,1-1.34.71A3.87,3.87,0,0,0,48,36.09Zm-5.5-6.9h-.81v1.29h.81Zm0,2h-.81v1.3h.81Z"/><path class="cls-1" d="M56.77,35.37a23.81,23.81,0,0,1-2.91-3c-.6-.74-.91-1.13-1.21-1.13s-.3.07-.69.58a15.27,15.27,0,0,0-1.32,1.87.6.6,0,0,1,.08.27.14.14,0,0,1-.14.16.27.27,0,0,1-.17-.06l-.81-.61c.19-.23,1-1.22,1.21-1.44s.93-1.17,1.11-1.36a1,1,0,0,1,.76-.35c.48,0,.65.2,1.34,1a19.52,19.52,0,0,0,3.51,3.31Z"/><path class="cls-1" d="M64.09,36.28l-.68-.75a3.78,3.78,0,0,0,2-1,3.22,3.22,0,0,0,.68-2,2.55,2.55,0,0,0-2.63-2.37,15.3,15.3,0,0,1-1.12,4.37c-.18.37-.63,1.34-1.14,1.34a1.14,1.14,0,0,1-.76-.31,3.06,3.06,0,0,1-1.1-2.42,3.56,3.56,0,0,1,1-2.47,3.81,3.81,0,0,1,3-1.27,3.62,3.62,0,0,1,2.83,1.12,3.21,3.21,0,0,1,.81,2.15A3.69,3.69,0,0,1,64.09,36.28Zm-1.68-6.07a3,3,0,0,0-2.27,2.88c0,.8.49,1.65.87,1.65s.55-.54.66-.78a12.6,12.6,0,0,0,1-3.77Z"/><path class="cls-1" d="M75,36.06a9.25,9.25,0,0,0-2.31-2.46,9.37,9.37,0,0,1-3.33,2.48l-.67-.8A7.55,7.55,0,0,0,71.06,34a8.26,8.26,0,0,0,2.44-3.46H71.89a19.88,19.88,0,0,0-2.18.1v-.9c.29,0,1.4.08,1.77.08H72.8a4.85,4.85,0,0,0,1.08,0,.91.91,0,0,0,.44-.21l.67.74-.43.32a19.6,19.6,0,0,1-1.33,2.31,11.3,11.3,0,0,1,2.53,2.48Z"/><path class="cls-1" d="M82.32,32.5h-.43a5.07,5.07,0,0,1-.92,3,4.34,4.34,0,0,1-1.9,1.14l-.82-.72A3,3,0,0,0,81,32.5H80c-.79,0-1.58,0-2.37.08v-.94c.8.07,2,.08,2.37.08h2.34c.09,0,1.44,0,2.41-.08v.94C83.93,32.52,83.13,32.5,82.32,32.5Zm-.43-2.25h-1.5c-.48,0-1.07,0-1.53.08v-1c.5.06,1.29.08,1.53.08h1.5a14.17,14.17,0,0,0,1.55-.08v1A15,15,0,0,0,81.89,30.25Z"/><path class="cls-1" d="M87.62,36a1.31,1.31,0,0,1-.08.21s-.05,0-.1,0-.09,0-.18-.21l-.49-.94a11.74,11.74,0,0,0,6.34-3.81l.36.88A16,16,0,0,1,87.62,36Zm1.26-4.64a7.67,7.67,0,0,0-2-1.25l.5-.81a6.4,6.4,0,0,1,2,1.26Z"/><path class="cls-1" d="M99.15,34.27a8,8,0,0,0-2.67-1.86V33.9c0,.53,0,2.11.1,2.57H95.49a12.47,12.47,0,0,0,.07-1.32c0-.21,0-1.12,0-1.31V31.49c0-.35,0-1.31,0-1.65a3.45,3.45,0,0,0-.1-.59l1.2.08c.06,0,.17,0,.17.14s-.1.15-.29.27c0,.55,0,1.11,0,1.66v1l.42-.8a9.4,9.4,0,0,1,2.84,2Z"/><path class="cls-1" d="M107.34,31.72A8.62,8.62,0,0,1,105,35.51a7.19,7.19,0,0,1-1.79,1.12l-.81-.61a6.49,6.49,0,0,0,2.85-2.08,8.15,8.15,0,0,0,1.41-3h-2.71a9.5,9.5,0,0,1-1.83,2l-.71-.54A7.67,7.67,0,0,0,103.91,29l.93.42s.19.09.19.18,0,.11-.39.22c-.18.29-.19.32-.26.42h2.38a.73.73,0,0,0,.45-.12l.69.71A1.59,1.59,0,0,0,107.34,31.72Zm-.38-2A12.09,12.09,0,0,0,106,29l.48-.41a4.84,4.84,0,0,1,1,.82Zm1.42,0a4.89,4.89,0,0,0-.88-.88l.51-.4a3,3,0,0,1,.88.85Z"/><path class="cls-1" d="M116.46,32.64A8.19,8.19,0,0,1,115,34.88a8.14,8.14,0,0,1-2.77,1.71l-.73-.8a4.89,4.89,0,0,0,2.17-.92A6,6,0,0,0,115.78,32h-2.86c-.67,0-1.91,0-2.56.1v-1a2.36,2.36,0,0,0,.48.07c.43,0,1.27,0,1.63,0h2.15c.29,0,.91,0,1.17-.05a1,1,0,0,0,.56-.19l.71.71A3.28,3.28,0,0,0,116.46,32.64ZM114.37,30h-1.45a12,12,0,0,0-1.47.08v-.89c.5.06,1.24.08,1.47.08h1.45a12.23,12.23,0,0,0,1.48-.08v.89A13.77,13.77,0,0,0,114.37,30Z"/><path class="cls-1" d="M124.91,30.66a7.68,7.68,0,0,1-2,3.9,6.84,6.84,0,0,1-2.5,1.67l-.83-.78a5.32,5.32,0,0,0,3.59-2.7,4.77,4.77,0,0,0,.78-2.26h-2.16c-.5,0-2.29.08-2.94.13v-.89c.6.05,1.78.07,2.28.07h1.51a12.7,12.7,0,0,0,1.27-.07.57.57,0,0,0,.41-.21l.8.64C125.11,30.28,125.07,30.37,124.91,30.66Z"/><path class="cls-1" d="M131,34.27a7.87,7.87,0,0,0-2.66-1.86V33.9c0,.53,0,2.11.1,2.57h-1.09a12.47,12.47,0,0,0,.07-1.32c0-.21,0-1.12,0-1.31V31.49c0-.35,0-1.31-.06-1.65a3.48,3.48,0,0,0-.09-.59l1.2.08c.05,0,.17,0,.17.14s-.1.15-.3.27c0,.55,0,1.11,0,1.66v1l.42-.8a9.53,9.53,0,0,1,2.84,2Z"/></g></g></svg>