<svg xmlns="http://www.w3.org/2000/svg" width="366.25" height="130.78" viewBox="0 0 366.25 130.78"><title>img_slide_14_title</title><g id="レイヤー_2" data-name="レイヤー 2"><g id="レイヤー_1-2" data-name="レイヤー 1"><path d="M7.58,126.84c1.32-.14,2.73-.34,4.18-.59a10.19,10.19,0,0,0-.22,1.13l-.08.45a13.91,13.91,0,0,0,2.81-5.52,33.93,33.93,0,0,0,.81-6.27c-1.45,0-2,0-2.12,0s-.29,0-.29-.27V114c0-.25,0-.27.29-.27s.69,0,2.22,0c0-.64,0-1.28,0-2a24,24,0,0,0-.17-3.47c.88,0,1.6.07,2.46.17.24,0,.37.12.37.27a2,2,0,0,1-.15.59,10.47,10.47,0,0,0-.15,2.51c0,.67,0,1.28,0,1.9h1.4c1.89,0,2.53,0,2.68,0s.3,0,.3.29c-.05.84-.05,1.55-.05,2.34a75.5,75.5,0,0,1-.72,11.27c-.32,1.85-1.23,2.71-3.12,2.71-.52,0-.93,0-1.35-.05s-.57-.05-.64-.86a5.89,5.89,0,0,0-.49-1.65,13.58,13.58,0,0,0,2,.2c.74,0,1.15-.39,1.33-1.55A70,70,0,0,0,19.53,116H17.46a42.85,42.85,0,0,1-.91,7.06,15.6,15.6,0,0,1-3.64,7c-.24.24-.39.37-.51.37s-.25-.13-.47-.35A4.54,4.54,0,0,0,10.36,129c.27-.25.54-.49.78-.76a1.7,1.7,0,0,1-.46.09c-2.61.52-5.81,1-8.59,1.28a3.56,3.56,0,0,0-.91.18,1,1,0,0,1-.42.14c-.14,0-.27-.14-.34-.41-.15-.64-.3-1.43-.42-2.17a24.51,24.51,0,0,0,2.58,0c.86-.05,1.8-.1,2.78-.2v-1.43H3.91c-2.14,0-2.85,0-3,0s-.27,0-.27-.25V124c0-.25,0-.27.27-.27s.86,0,3,0H5.36v-1.06h-1c-2.09,0-2.81.05-2.95.05s-.3,0-.3-.27.05-.74.05-2v-2.63c0-1.33-.05-1.9-.05-2s0-.27.3-.27.86,0,3,0h1v-1.08H3.54c-2.21,0-3,.05-3.12.05s-.27,0-.27-.27v-1.46c0-.24,0-.27.27-.27s.91,0,3.12,0H5.36v-1.11c-1.06.1-2.11.2-3.17.25-.69,0-.71,0-.91-.54a5.15,5.15,0,0,0-.76-1.33,46.38,46.38,0,0,0,8.7-.94,9.4,9.4,0,0,0,1.36-.41,10.75,10.75,0,0,1,1.4,1.35.59.59,0,0,1,.2.44c0,.15-.2.25-.52.25a7.74,7.74,0,0,0-1.11.17c-1,.2-2,.37-3,.49v1.38H9c2.19,0,2.95,0,3.1,0s.25,0,.25.27v1.46c0,.24,0,.27-.2.27s-1-.05-3.15-.05H7.58v1.08H8.63c2.07,0,2.78,0,3,0s.27,0,.27.27,0,.69,0,2v2.63c0,1.31,0,1.9,0,2s0,.27-.27.27-.89-.05-3-.05H7.58v1.06h.91c2.11,0,2.85,0,3,0s.27,0,.27.27v1.47c0,.23,0,.25-.27.25s-.89,0-3,0H7.58ZM5.36,118.4v-1.28h-2v1.28Zm0,2.73v-1.3h-2v1.3Zm2.22-4v1.28H9.72v-1.28Zm2.14,2.71H7.58v1.3H9.72Z"/><path d="M38.08,117.17c-.54.1-1.11.17-1.65.25a51.24,51.24,0,0,1-.64,8,15.65,15.65,0,0,1-1.65,4.78c-.2.34-.32.54-.47.54s-.27-.15-.51-.4a5.65,5.65,0,0,0-1.08-.91,1.52,1.52,0,0,1-.3.37,3.41,3.41,0,0,1-2,.52c-.76.05-.76.05-.93-.74a5.7,5.7,0,0,0-.62-1.65,10.63,10.63,0,0,0,1.43,0c.32,0,.56-.25.56-.84v-4.38H28a22.14,22.14,0,0,1-1.36,7.46c-.09.3-.19.42-.32.42s-.24-.1-.41-.32A5.44,5.44,0,0,0,24.5,129c1.06-2.22,1.5-5.2,1.5-11.64v-4c0-2.56-.05-3.88-.05-4.06s0-.27.27-.27.59,0,2,0h1.87c1.45,0,1.87,0,2,0s.25,0,.25.27,0,1.5,0,4.06v10.91c0,1.16,0,2.44,0,3.44,0,.27,0,.52,0,.72a12.6,12.6,0,0,0,1.32-4.14,53,53,0,0,0,.47-7.63v-2.26A42.81,42.81,0,0,0,34,110a14.76,14.76,0,0,1,2.27.76,30.27,30.27,0,0,0,6.39-1.65,7.21,7.21,0,0,0,1.6-.79,22,22,0,0,1,1.85,1.5.55.55,0,0,1,.19.42c0,.15-.12.27-.37.3a3.14,3.14,0,0,0-1,.24,44.24,44.24,0,0,1-8.53,2.15v2.38a38.42,38.42,0,0,0,6.69-1.55,7,7,0,0,0,1.57-.73,11.89,11.89,0,0,1,1.75,1.42.52.52,0,0,1,.2.4c0,.14-.13.29-.37.29a2.9,2.9,0,0,0-.94.22c-.64.22-1.25.42-1.87.59.08,1.18.23,2.29.4,3.33.22-.25.39-.47.54-.67a7.25,7.25,0,0,0,.76-1.23,17.51,17.51,0,0,1,1.62,1.21c.2.19.3.34.3.49s-.15.27-.27.34a3.57,3.57,0,0,0-.81.72c-.4.39-.94.93-1.65,1.55a18.47,18.47,0,0,0,3,6.4,8.41,8.41,0,0,0-1.23,1.82c-.15.27-.27.39-.39.39s-.27-.12-.42-.37c-2.27-3.56-3.62-7.75-4-13.44l-1,.25V127c0,2.17,0,3.23,0,3.38s0,.24-.29.24H38.3c-.25,0-.27,0-.27-.24s0-1.21,0-3.38Zm-7.83,3.32V117H28.09v.49c0,1.11,0,2.12,0,3Zm-2.16-9.1v3.34h2.16v-3.34Z"/><path d="M67,115c2.32,0,3.15,0,3.32,0s.27,0,.27.27,0,.52,0,1.06v.86c0,1.87,0,2.22,0,2.36s0,.27-.27.27H68.38c-.25,0-.27,0-.27-.27v-2.56H52.81v2.56c0,.25,0,.27-.29.27H50.6c-.25,0-.27,0-.27-.27s.05-.49.05-2.36v-.71c0-.69-.05-1.06-.05-1.21s0-.27.27-.27,1,0,3.32,0H59a9.05,9.05,0,0,0-.17-1.65c.81,0,1.62,0,2.26.1l-.19-.17a5.65,5.65,0,0,0-1.33-.72l.44-.49c-.19,0-.86,0-2.83,0a11.68,11.68,0,0,1,.72,1.5c.1.25.1.3-.25.37l-1.62.32c-.35.08-.4.08-.47-.2a18,18,0,0,0-.76-2H53.28a11.6,11.6,0,0,1-1.8,2c-.27.25-.42.4-.56.4s-.25-.15-.52-.45a5.41,5.41,0,0,0-1.25-1,11.53,11.53,0,0,0,3.05-3.72,5,5,0,0,0,.44-1.15c.79.1,1.72.24,2.26.37.25,0,.37.09.37.29a.42.42,0,0,1-.2.35,1.87,1.87,0,0,0-.41.59l-.18.34h2.64c2.06,0,2.73,0,2.87,0s.3,0,.3.27v1.5a10.35,10.35,0,0,0,1.52-2.46,6.3,6.3,0,0,0,.42-1.23c.74.1,1.6.25,2.12.37.27,0,.39.12.39.3a.38.38,0,0,1-.2.34,2.62,2.62,0,0,0-.46.81L64,110h3.57c2.51,0,3.37,0,3.52,0s.27,0,.27.27v1.53c0,.25,0,.27-.27.27s-1,0-3.52,0h-.42a9.1,9.1,0,0,1,.74,1.5c.1.25.1.3-.25.37l-1.6.3c-.34.07-.39,0-.46-.2a17.94,17.94,0,0,0-.82-2H62.94a9.61,9.61,0,0,1-.88,1.26,1.45,1.45,0,0,1-.37.34.32.32,0,0,1,0,.15.87.87,0,0,1-.14.39,2,2,0,0,0-.1.84Zm-3.76,3.08c2.16,0,3.17,0,3.32,0s.27,0,.27.27,0,.61,0,1.7v1.23c0,1.08,0,1.55,0,1.72s0,.25-.27.25-1.16-.05-3.32-.05H56.43v1.35h8.16c2.24,0,3.37,0,3.54,0s.28,0,.28.3,0,.64,0,1.87v2c0,1.23,0,1.7,0,1.82s0,.27-.28.27h-2c-.24,0-.27,0-.27-.27v-.66H56.43v.71c0,.25,0,.27-.27.27H54.21c-.24,0-.27,0-.27-.27s.05-.94.05-2.83v-6.52c0-1.9-.05-2.74-.05-2.88s0-.27.27-.27,1.28,0,3.5,0Zm1.08,1.82H56.43v1.42h7.89Zm-7.89,6.47v1.57h9.44v-1.57Z"/><path d="M81.34,108.9c1.63,0,2.34-.05,2.49-.05s.24,0,.24.27,0,.86,0,2.36v2.91c0,1.5,0,2.19,0,2.34s0,.27-.24.27-.86,0-2.49,0h-4v8.22c0,3.44,0,5.14,0,5.32s0,.27-.27.27H75c-.25,0-.27,0-.27-.27s0-1.88,0-5.32V114.49c0-3.45,0-5.2,0-5.37s0-.27.27-.27,1.1.05,2.92.05Zm-4,1.82v1.4h4.3v-1.4Zm4.3,3h-4.3v1.43h4.3Zm2,11a9.32,9.32,0,0,1-.18,1.06,8,8,0,0,1-2.33,4.13c-.25.23-.37.35-.47.35s-.27-.15-.57-.45a6.6,6.6,0,0,0-1.45-1,5.7,5.7,0,0,0,2.63-3.62l0-.44-2.68,0c-.24,0-.27,0-.27-.3V123c0-.25,0-.27.27-.27s.84,0,2.81,0c0-.62,0-1.38,0-2.24-1.48,0-2,.05-2.17.05s-.29,0-.29-.28v-1.5c0-.24,0-.27.29-.27s.89.05,3.08.05h5.26c2.19,0,2.93-.05,3.07-.05s.28,0,.28.27v1.5c0,.25,0,.28-.28.28s-.73,0-2.26-.05v2.24c1.94,0,2.68,0,2.81,0s.27,0,.27.27v1.47c0,.28,0,.3-.27.3s-.87,0-2.81,0V127c0,1.7,0,2.51,0,2.66s0,.29-.27.29H86.46c-.25,0-.27,0-.27-.29s0-1,0-2.66v-2.29Zm2.58-1.94v-2.24H83.85c0,.83,0,1.6,0,2.24Zm9.1.24c0,1.73.1,3.3.1,4.51s-.15,1.77-.72,2.26-1.27.67-3.24.67c-.76,0-.79,0-.91-.77a6.36,6.36,0,0,0-.57-1.8,12.17,12.17,0,0,0,1.8.13c.81,0,1-.22,1-1V117h-4c-1.92,0-2.56,0-2.7,0s-.3,0-.3-.27,0-.69,0-2.14v-3.3c0-1.43,0-2,0-2.17s0-.27.3-.27.78.05,2.7.05h3.62c1.92,0,2.58-.05,2.73-.05s.27,0,.27.27,0,1.21,0,3.37Zm-7.11-12.33v1.4h4.58v-1.4Zm4.58,3H88.23v1.43h4.58Z"/><path d="M103.06,116.19a26.28,26.28,0,0,0,1.73-2.84H102c-2.17,0-2.91.05-3,.05s-.27,0-.27-.27v-1.87c0-.24,0-.27.27-.27s.88.05,3,.05h3.86c.12-.32.24-.64.34-1a9.94,9.94,0,0,0,.45-2.09c.81.1,1.79.27,2.58.42.29.07.47.19.47.37a.81.81,0,0,1-.3.54,3.24,3.24,0,0,0-.61,1.25,2.19,2.19,0,0,1-.18.47h8.81c2.16,0,2.9-.05,3-.05s.27,0,.27.27v1.87c0,.25,0,.27-.27.27s-.86-.05-3-.05h-9.77a28.69,28.69,0,0,1-3,4.93v8.83c0,2.14,0,3.23,0,3.35s0,.27-.27.27h-2.07c-.24,0-.27,0-.27-.27s.05-1.21.05-3.35v-5.88a22.44,22.44,0,0,1-1.87,1.77c-.27.2-.41.32-.54.32s-.22-.14-.42-.51a6.76,6.76,0,0,0-1.15-1.63,22.9,22.9,0,0,0,3.93-3.74c0-.47-.07-.86-.12-1.3Zm6.57,7.67c-2.34,0-3.17,0-3.32,0s-.27,0-.27-.27v-1.79c0-.25,0-.27.27-.27s1,0,3.32,0h2.51a13.57,13.57,0,0,0-.17-2.14l1.1.1a21.23,21.23,0,0,0,2.22-1.79h-4.48c-2.16,0-2.9,0-3,0s-.27,0-.27-.27v-1.77c0-.22,0-.25.27-.25s.89,0,3,0h6a1.2,1.2,0,0,0,.5-.07.89.89,0,0,1,.29-.1c.2,0,.44.1,1.06.64s.76.84.76,1.06-.15.37-.39.47a4.37,4.37,0,0,0-1,.66,24.35,24.35,0,0,1-3.34,2.69v.68h2.21c2.36,0,3.18,0,3.32,0s.25,0,.25.27v1.79c0,.25,0,.27-.25.27s-1,0-3.32,0h-2.21v1.23c0,1,0,1.78,0,2.93a2.11,2.11,0,0,1-.79,1.95c-.54.39-1.52.56-3.57.56-.78,0-.78,0-1-.73a5.59,5.59,0,0,0-.76-1.78,20.3,20.3,0,0,0,2.46.15c.86,0,1.06-.2,1.06-.93v-3.38Z"/><path d="M129,116.78a36.84,36.84,0,0,1-.66,7.7,16,16,0,0,1-2.51,5.69c-.2.29-.34.44-.47.44s-.29-.15-.51-.44a6.64,6.64,0,0,0-1.43-1.36,11.57,11.57,0,0,0,2.66-5.34,17.2,17.2,0,0,0,.34-2.07c-.59.35-1.2.67-1.74,1a4.32,4.32,0,0,0-.77.54.49.49,0,0,1-.39.2c-.15,0-.25-.07-.32-.27-.22-.64-.39-1.45-.59-2.26a13.44,13.44,0,0,0,2-.64c.71-.3,1.4-.62,2-.91,0-.72,0-1.46,0-2.24,0-4,0-5.76,0-5.91s0-.27.28-.27,1,.05,3.39.05h4.06v-.59a9.63,9.63,0,0,0-.17-2c.91,0,1.74,0,2.63.13.24,0,.39.12.39.24a1.08,1.08,0,0,1-.15.47,3.06,3.06,0,0,0-.12,1.11v.59h4.82c2.39,0,3.2-.05,3.32-.05s.27,0,.27.27v1.82c0,.25,0,.27-.27.27s-.93,0-3.32,0H129Zm-4.55-4.41c.3-.12.35-.15.47.07a21.8,21.8,0,0,1,1.43,3.67c.07.25.07.32-.25.49l-1.25.74a.8.8,0,0,1-.32.12c-.08,0-.1-.07-.15-.22a27.65,27.65,0,0,0-1.4-3.89c-.08-.19-.1-.29.17-.41Zm9.3,4.9c-2.36,0-3.17,0-3.32,0s-.27,0-.27-.27v-1.83c0-.26,0-.29.27-.29s1,0,3.32,0h7.16c2.36,0,3.17,0,3.32,0s.27,0,.27.29v1.83c0,.24,0,.27-.27.27s-1,0-3.32,0h-2.21v3.64h2.48c1.53,0,2,0,2.14,0s.27,0,.27.27v1.8c0,.25,0,.27-.27.27s-.61,0-2.14,0h-2.48v4.48h2.8c2.41,0,3.27,0,3.39,0s.27,0,.27.27v1.8c0,.27,0,.29-.27.29s-1-.05-3.39-.05h-9.54c-2.41,0-3.28.05-3.42.05s-.27,0-.27-.29v-1.8c0-.24,0-.27.27-.27s.86,0,2.7,0v-4.48a17.68,17.68,0,0,0-.19-3.3c.93,0,1.67.08,2.5.18.28,0,.4.14.4.26a1,1,0,0,1-.15.5,6.5,6.5,0,0,0-.15,2.14v4.7h2.59V117.27Z"/><path d="M149.92,118.57c.81-.64,2.58-2.16,4.4-3.81a3.1,3.1,0,0,1,2.14-1,3,3,0,0,1,2.14.91c1.85,1.48,2.9,2.47,5.32,4.24a57.7,57.7,0,0,0,5.8,3.62c.25.09.37.29.25.51a10.25,10.25,0,0,1-1.21,2.32c-.12.17-.22.24-.32.24a.56.56,0,0,1-.34-.12c-1.18-.69-3.86-2.66-5.32-3.79-1.77-1.33-3.54-2.91-5.16-4.36a1.59,1.59,0,0,0-1.08-.56c-.27,0-.52.22-.84.51-1.2,1.21-3,2.91-4.13,4.06a6.53,6.53,0,0,0-.89,1.09.53.53,0,0,1-.44.29.65.65,0,0,1-.47-.22,25.21,25.21,0,0,1-2-2.56A8.25,8.25,0,0,0,149.92,118.57Z"/><path d="M185,113.75a30.91,30.91,0,0,1-3.08,10.61c-1.06,1.84-2.34,2.83-4.18,2.83-2.16,0-4.35-2.32-4.35-6.33a9,9,0,0,1,2.78-6.4,10.73,10.73,0,0,1,8-3.15c5.9,0,9.37,3.65,9.37,8.54,0,4.58-2.58,7.46-7.57,9-.52.15-.74.05-1.06-.44a5.17,5.17,0,0,0-1.72-1.55c4.15-1,7.42-2.71,7.42-7.36a5.59,5.59,0,0,0-5.51-5.71Zm-7.06,2.39a7.06,7.06,0,0,0-1.92,4.55c0,2.26.91,3.52,1.67,3.52s1.18-.32,1.85-1.5a28.33,28.33,0,0,0,2.6-8.81A7.32,7.32,0,0,0,177.94,116.14Z"/><path d="M205,114.3c.1-1.2.15-2,.17-3.32A9.26,9.26,0,0,0,205,109a19.34,19.34,0,0,1,3.2.51.51.51,0,0,1,.42.52,1,1,0,0,1-.13.47,2.31,2.31,0,0,0-.32,1.16c-.07.78-.09,1.37-.22,2.58h3.74c1.13,0,2.29,0,3.42,0,.39,0,.52.07.52.35s-.05,1.3-.1,2.6a41.91,41.91,0,0,1-.91,8.1c-.49,1.9-1.33,2.93-2.9,3.32a10.3,10.3,0,0,1-2.49.28.61.61,0,0,1-.59-.5,5.14,5.14,0,0,0-1.43-2.24,9.84,9.84,0,0,0,3.35-.22c.66-.22,1-.61,1.28-1.72a35.06,35.06,0,0,0,.74-7.39h-5a18.31,18.31,0,0,1-2.19,6.82,15.77,15.77,0,0,1-5.22,5.07,1,1,0,0,1-.56.2.62.62,0,0,1-.47-.25,6.11,6.11,0,0,0-2.07-1.42,13.76,13.76,0,0,0,5.79-5,14.61,14.61,0,0,0,1.77-5.32H202.4c-1.2,0-2.38,0-3.54.12-.25,0-.34-.12-.37-.42-.1-.59-.15-1.47-.2-2.38,1.55.09,2.66.09,4.09.09Z"/><path d="M233.49,118.56a14,14,0,0,1-1.45,6.28,12.35,12.35,0,0,1-4.33,4.65,1.51,1.51,0,0,1-.73.3.73.73,0,0,1-.52-.25,6.33,6.33,0,0,0-2.19-1.3,11,11,0,0,0,4.89-4.39,10.45,10.45,0,0,0,1.26-5.29h-4.67c-1.23,0-2.44.08-3.69.15-.23,0-.3-.15-.32-.47a14,14,0,0,1-.2-2.36c1.38.12,2.75.12,4.18.12h11.05c1.91,0,3.34,0,4.79-.14.25,0,.27.14.27.49s0,1.57,0,1.89-.15.42-.37.42c-1.28,0-3-.1-4.67-.1Zm-4.87-5.71c-1.13,0-2.11.05-3.49.1-.32,0-.39-.12-.42-.42-.07-.59-.1-1.47-.17-2.36,1.72.1,3,.12,4.08.12h5.51c1.38,0,2.93,0,4.16-.1.25,0,.29.15.29.47a10.82,10.82,0,0,1,0,1.8c0,.34,0,.47-.31.47-1.33-.05-2.78-.08-4.14-.08Z"/><path d="M251.13,121a19.43,19.43,0,0,0-3.62.3c-.29,0-.49-.15-.56-.52a27.5,27.5,0,0,1-.37-3,31.1,31.1,0,0,0,5.31.3h7.92c1.87,0,3.77-.05,5.66-.07.37,0,.44,0,.44.34a17.81,17.81,0,0,1,0,2.31c0,.3-.1.4-.44.37-1.85,0-3.67,0-5.49,0Z"/><path d="M282.69,118.56a14.09,14.09,0,0,1-1.45,6.28,12.51,12.51,0,0,1-4.33,4.65,1.54,1.54,0,0,1-.74.3.77.77,0,0,1-.52-.25,6.24,6.24,0,0,0-2.19-1.3,10.92,10.92,0,0,0,4.9-4.39,10.35,10.35,0,0,0,1.25-5.29h-4.67c-1.23,0-2.43.08-3.69.15-.22,0-.29-.15-.32-.47a15.13,15.13,0,0,1-.2-2.36c1.38.12,2.76.12,4.19.12h11c1.92,0,3.35,0,4.8-.14.24,0,.27.14.27.49s0,1.57,0,1.89-.15.42-.37.42c-1.28,0-3-.1-4.68-.1Zm-4.87-5.71c-1.13,0-2.12.05-3.49.1-.32,0-.4-.12-.42-.42-.08-.59-.1-1.47-.18-2.36,1.73.1,3,.12,4.09.12h5.51c1.38,0,2.92,0,4.15-.1.25,0,.3.15.3.47a10.82,10.82,0,0,1,0,1.8c0,.34,0,.47-.32.47-1.33-.05-2.78-.08-4.13-.08Z"/><path d="M302.54,113c.42.13.47.42.32.77a3.55,3.55,0,0,0-.3,1.67,18.3,18.3,0,0,1-1.33,7.24,12.52,12.52,0,0,1-3.49,4.62,1.07,1.07,0,0,1-.64.32.87.87,0,0,1-.47-.19,8.48,8.48,0,0,0-2.09-1,12.21,12.21,0,0,0,4.09-4.89c.69-1.68,1-3,1-7a6.57,6.57,0,0,0-.25-2.07A21.74,21.74,0,0,1,302.54,113ZM308,123.44a25.5,25.5,0,0,0,3.49-2.29A23.8,23.8,0,0,0,315.8,117a6.9,6.9,0,0,0,.76,2.49,1.26,1.26,0,0,1,.15.42c0,.17-.1.34-.37.61a30.68,30.68,0,0,1-3.64,3.23,42,42,0,0,1-4.38,3,7.44,7.44,0,0,0-.71.52.8.8,0,0,1-.5.19,1,1,0,0,1-.51-.19,7.25,7.25,0,0,1-1.48-1.5,1,1,0,0,1-.22-.52.71.71,0,0,1,.1-.37c.17-.32.15-.62.15-1.87v-7.71a19.32,19.32,0,0,0-.25-4.28,24.71,24.71,0,0,1,3.07.52c.32.07.45.22.45.42a1.58,1.58,0,0,1-.2.61c-.22.47-.22,1-.22,2.73Z"/><path d="M320.22,114.8c.2-.25.3-.25.52-.13a18.91,18.91,0,0,1,3.44,2.49.3.3,0,0,1,.15.2c0,.07-.05.14-.15.29l-1.08,1.48c-.22.29-.29.34-.49.15a17.28,17.28,0,0,0-3.44-2.66c-.1-.08-.18-.12-.18-.2a.75.75,0,0,1,.18-.27Zm.13,12.25a40,40,0,0,0,2.41-5.9,11,11,0,0,0,1.42,1.25c.37.27.52.37.52.59a2.51,2.51,0,0,1-.15.59,41.22,41.22,0,0,1-2.26,5.52,3.91,3.91,0,0,0-.37.93c-.05.2-.15.32-.32.32a.92.92,0,0,1-.44-.15,12.3,12.3,0,0,1-2-1.35A10.32,10.32,0,0,0,320.35,127.05Zm.91-18.43c.19-.27.27-.27.49-.15a24,24,0,0,1,3.47,2.61c.19.17.17.2,0,.49L324.13,113c-.24.27-.29.3-.49.13a17.71,17.71,0,0,0-3.42-2.76c-.22-.15-.17-.17,0-.44Zm14.88,2.66c.24-.2.27-.2.47,0a32.33,32.33,0,0,1,4.79,6.13c.13.22.15.27-.15.49l-1.45,1a.71.71,0,0,1-.32.17c-.07,0-.12-.07-.19-.2-.32-.61-.67-1.2-1-1.77-3.89.44-7.38.84-11.44,1.13a2.72,2.72,0,0,0-1.06.2.83.83,0,0,1-.41.15c-.15,0-.23-.15-.3-.37a20.3,20.3,0,0,1-.47-2.49,22.21,22.21,0,0,0,2.59,0h.14a48.66,48.66,0,0,0,2.54-6.1,8.43,8.43,0,0,0,.37-1.7,20.12,20.12,0,0,1,2.7.54c.25.07.47.22.47.4a.64.64,0,0,1-.27.46,3.92,3.92,0,0,0-.67,1.13c-.83,1.9-1.55,3.52-2.41,5.12,2.39-.17,4.6-.37,6.74-.59a21.27,21.27,0,0,0-2-2.33c-.17-.2-.17-.23.12-.45ZM327,130.45c-.24,0-.27,0-.27-.27s.05-.81.05-4.48v-2.21c0-2.24-.05-3-.05-3.11s0-.27.27-.27,1,0,3.2,0h5.73c2.24,0,3,0,3.15,0s.27,0,.27.27-.05.87-.05,2.71v2.51c0,3.62.05,4.31.05,4.46s0,.27-.27.27H337c-.27,0-.29,0-.29-.27v-.94h-7.33v1.06c0,.25,0,.27-.28.27Zm2.37-3.59h7.33v-4.43h-7.33Z"/><path d="M360,115.73a9,9,0,0,0,1.53,1.63,11.63,11.63,0,0,0,.93-.86,4.1,4.1,0,0,0,.57-.74c.42.24,1,.66,1.45,1,.2.14.22.24.22.34a.35.35,0,0,1-.25.3,2.31,2.31,0,0,0-.73.51l-.64.55a14.27,14.27,0,0,0,3.15,1.3,5.9,5.9,0,0,0-.82,1.33c-.19.44-.29.61-.46.61a1.49,1.49,0,0,1-.59-.22,14.23,14.23,0,0,1-1.87-1v2.39c0,1.25.05,1.85.05,2s0,.27-.3.27-1.18,0-3.22,0h-.79v1.06c0,.91,0,1.55,0,2.34,0,.94-.25,1.38-.84,1.68a5.22,5.22,0,0,1-2.68.36c-.76,0-.76,0-.94-.73a5.15,5.15,0,0,0-.51-1.46,14.18,14.18,0,0,0,1.69.08c.74,0,.89-.2.89-.72v-2.61h-1c-2,0-3.07,0-3.22,0s-.27,0-.27-.27.05-.86.05-2.26v-1.77l-1.28.83a.93.93,0,0,1-.42.2c-.12,0-.2-.1-.34-.34s-.42-.57-.59-.79a26.13,26.13,0,0,1-.45,3.42,15.58,15.58,0,0,1-2.46,5.71c-.19.27-.32.42-.46.42s-.25-.12-.47-.42a6.49,6.49,0,0,0-1.4-1.35,11.72,11.72,0,0,0,2.58-5.34c.12-.55.22-1.14.3-1.75-.47.27-.94.51-1.41.76a3.29,3.29,0,0,0-.76.49.43.43,0,0,1-.37.2c-.15,0-.24-.07-.29-.27a21.07,21.07,0,0,1-.64-2.22,14,14,0,0,0,2-.61c.62-.25,1.16-.52,1.68-.79,0-1,.05-2,.05-3.25,0-3.76-.05-5.44-.05-5.59s0-.29.27-.29,1,.05,3.39.05h4.43v-.17a8.72,8.72,0,0,0-.2-1.9c.94,0,1.75,0,2.64.12.24,0,.39.13.39.28a1.28,1.28,0,0,1-.15.44,2.43,2.43,0,0,0-.12,1v.27H362c2.39,0,3.2-.05,3.35-.05s.24,0,.24.29v1.61c0,.24,0,.27-.24.27s-1,0-3.35,0h-6.25c.67.09,1.38.22,2,.34.25,0,.39.15.39.3a.55.55,0,0,1-.22.44,2.19,2.19,0,0,0-.54.81h4.26c2.41,0,3.24,0,3.39,0s.27,0,.27.27v1.46c0,.22,0,.24-.27.24s-1,0-3.39,0Zm-15.4-3.49c.32-.18.4-.15.5.07a25,25,0,0,1,1.4,3.59c.07.25.05.32-.25.5l-1.08.64a1,1,0,0,1-.32.12c-.07,0-.12,0-.17-.2a26.13,26.13,0,0,0-1.38-3.74c-.12-.22-.12-.24.2-.42Zm9.43,13.9c.19.13.29.25.29.4s-.12.24-.32.37a3,3,0,0,0-.54.46,13.4,13.4,0,0,1-3,2.29,1.29,1.29,0,0,1-.59.25c-.17,0-.29-.15-.59-.49a5.78,5.78,0,0,0-1.18-1.11,12.88,12.88,0,0,0,3.27-1.92,4.36,4.36,0,0,0,1-1.11C353,125.58,353.63,125.9,354.05,126.14Zm-.69-10.41c-2.41,0-3.25,0-3.4,0s-.27,0-.27-.24v-1.46c0-.24,0-.27.27-.27s1,0,3.4,0H355a6.83,6.83,0,0,0,.56-1.89H349v4.2c0,1.41,0,2.66-.09,3.77a20.42,20.42,0,0,0,2.16-1.33,12.44,12.44,0,0,0-1.38-1.48c-.19-.19-.12-.27.1-.44l.84-.71a.39.39,0,0,1,.24-.12.24.24,0,0,1,.22.12,16,16,0,0,1,1.46,1.4,9.08,9.08,0,0,0,1.42-1.65Zm.24,3.87v1.1h6.67v-1.1Zm6.67,2.75H353.6v1h6.67Zm-1-4.53a10.07,10.07,0,0,1-1.52-2.09h-1.36a11.9,11.9,0,0,1-1.5,2.09Zm1.53,7.81c.27-.18.32-.23.51,0a12.24,12.24,0,0,0,4,2.36,7,7,0,0,0-1.06,1.35c-.25.4-.37.57-.54.57a1.72,1.72,0,0,1-.59-.25,16.64,16.64,0,0,1-3.59-2.75c-.18-.18-.15-.3.12-.47Z"/><path d="M60.09,74.56h-9L44,51.3H17.87L10.52,74.56H2.08L25.62,1.29H36.55ZM36.65,26.74C34.76,20.58,33.27,14.91,31.48,8H30c-1.69,7-3.18,12.53-5.06,18.69l-5.37,17.9H42.11Z"/><path d="M96.45,1.29c21.56,0,34.67,11.63,34.67,36.29s-14.51,37-36.06,37H73.8V1.29Zm-14,66.21H94.76c16.29,0,27.22-9.15,27.22-29.82S112,8.35,95.56,8.35H82.44Z"/><path d="M203.83,37.88c0,24-12.71,38.07-30.2,38.07s-30.19-13.82-30.19-37.88S156.25,0,173.63,0C191.22,0,203.83,13.72,203.83,37.88ZM152.57,38c0,20.19,8.65,30.82,21.06,30.82S194.69,58.16,194.69,38,186.15,7.16,173.63,7.16,152.57,17.7,152.57,38Z"/><path d="M250,74.56h-8.45V1.29H250Zm27.71,0H269.3V1.29h8.44Z"/></g></g></svg>