<svg height="17.78mm" viewBox="0 0 122.44 50.41" width="43.19mm" xmlns="http://www.w3.org/2000/svg"><g fill="#231815"><path d="m15 25.33a5.17 5.17 0 0 0 -4.84-2.84c-2.4 0-5 1.64-5 4.28 0 2.36 2.32 3.6 4.2 4.32l2.16.84c4.24 1.68 7.48 4.07 7.48 9.07a9.3 9.3 0 0 1 -9.64 9.4 9.4 9.4 0 0 1 -9.36-8.4l3.8-.8a5.7 5.7 0 1 0 11.4-.2c0-3.24-2.6-4.64-5.2-5.72l-2.08-.88c-3.44-1.47-6.56-3.4-6.56-7.63 0-4.88 4.32-7.8 8.88-7.8a8.6 8.6 0 0 1 7.76 4.56z"/><path d="m35.2 49.77h-3.76v-26.72h-7.16v-3.44h18.08v3.44h-7.16z"/><path d="m53.6 42.21-3.44 7.56h-4l14.4-31.44 14.35 31.44h-4l-3.44-7.56zm6.92-15.64-5.36 12.2h10.72z"/><path d="m100.2 49.77h-4.56l-8.88-12.77h-1.56v12.77h-3.76v-30.16h4.56c2.68 0 5.56 0 8 1.4a8.35 8.35 0 0 1 4 7.2 8.21 8.21 0 0 1 -7.24 8.44zm-15-15.88h1.2c3.84 0 8-.72 8-5.52s-4.48-5.37-8.2-5.37h-1z"/><path d="m115.28 49.77h-3.76v-26.72h-7.16v-3.44h18.08v3.44h-7.16z"/><path d="m43.64 4.78c-1 .75-1.47 1.1-1.7 1.78h3.68v1h-4.86c.15-1.69.46-2.06 2.28-3.47 1.21-.94 1.52-1.26 1.52-1.91a1.15 1.15 0 0 0 -1.27-1.18c-1.23 0-1.29 1.06-1.29 1.61h-1.06a3.09 3.09 0 0 1 .47-1.69 2.32 2.32 0 0 1 2-.92 2.14 2.14 0 0 1 2.29 2.16c-.05 1.08-.6 1.55-2.06 2.62z"/><path d="m52.44 6.69a2.18 2.18 0 0 1 -3.76 0 6.16 6.16 0 0 1 -.58-2.81 6.31 6.31 0 0 1 .58-2.81 2.19 2.19 0 0 1 3.76 0 6.28 6.28 0 0 1 .56 2.81 6.17 6.17 0 0 1 -.56 2.81zm-1.88-5.78c-1.18 0-1.4 1.34-1.4 3s.17 3 1.4 3 1.4-1.33 1.4-3-.18-3-1.4-3z"/><path d="m57.69 7.53v-5.22h-1.56v-.7c1.57-.07 1.79-.84 1.93-1.38h.69v7.3z"/><path d="m65.28 7.77a2.21 2.21 0 0 1 -2.46-2.3 2 2 0 0 1 1.18-1.95 1.64 1.64 0 0 1 -1-1.58c0-1.3 1-1.94 2.28-1.94s2.24.68 2.24 1.94a1.65 1.65 0 0 1 -1 1.58 2 2 0 0 1 1.17 1.93 2.22 2.22 0 0 1 -2.41 2.32zm0-3.74a1.32 1.32 0 0 0 -1.4 1.37 1.4 1.4 0 1 0 2.8 0 1.31 1.31 0 0 0 -1.4-1.4zm0-3.12a1 1 0 0 0 -1.18 1.09 1.18 1.18 0 0 0 2.36 0 1.05 1.05 0 0 0 -1.18-1.09z"/><path d="m70.56 7.53v-1.19h1.19v1.19z"/><path d="m78.6 5.89v1.64h-1v-1.64h-3.1v-1.06l3.18-4.6h.92v4.77h1v.94zm-1-4-2.19 3.11h2.16z"/></g></svg>