<svg xmlns="http://www.w3.org/2000/svg" width="103.23mm" height="10.23mm" viewBox="0 0 292.63 29"><defs><style>.cls-1{fill:#fff;}</style></defs><title>img_title</title><g id="レイヤー_2" data-name="レイヤー 2"><g id="文字"><path class="cls-1" d="M.8,28.56H0V0H.8V13.28h20V0h.8V28.56h-.8V14.08H.8Z"/><path class="cls-1" d="M26.06,22.3a9.1,9.1,0,0,0,1.42,3.1A6.8,6.8,0,0,0,30,27.48a8.19,8.19,0,0,0,3.72.76,8.4,8.4,0,0,0,5.38-1.7,7.68,7.68,0,0,0,2.66-5.1h.8A8.18,8.18,0,0,1,39.68,27a9,9,0,0,1-5.92,2,9.19,9.19,0,0,1-4.1-.76A7.24,7.24,0,0,1,26.88,26a10,10,0,0,1-1.6-3.44,16.58,16.58,0,0,1-.52-4.26,12.67,12.67,0,0,1,.76-4.56,10.7,10.7,0,0,1,2-3.38,8.42,8.42,0,0,1,2.88-2.1,8.26,8.26,0,0,1,3.36-.72,8.78,8.78,0,0,1,4.14.92,8.12,8.12,0,0,1,2.84,2.44,10.09,10.09,0,0,1,1.6,3.48,14.51,14.51,0,0,1,.42,4.08H25.56A16.69,16.69,0,0,0,26.06,22.3Zm15.38-8.24a9,9,0,0,0-1.54-3,7.3,7.3,0,0,0-2.54-2,8,8,0,0,0-3.52-.74A7.67,7.67,0,0,0,30.7,9a7.53,7.53,0,0,0-2.56,1.86,9.54,9.54,0,0,0-1.78,2.94,12.49,12.49,0,0,0-.8,3.88H42A12.06,12.06,0,0,0,41.44,14.06Z"/><path class="cls-1" d="M46.52,11.66A6.25,6.25,0,0,1,48,9.48,7,7,0,0,1,50.42,8a9.64,9.64,0,0,1,3.34-.52,11.27,11.27,0,0,1,2.58.28,5.53,5.53,0,0,1,2.14,1A5.12,5.12,0,0,1,60,10.6a6.71,6.71,0,0,1,.6,2.8V26.48a1.34,1.34,0,0,0,.24.88,1.19,1.19,0,0,0,.64.38,3,3,0,0,0,.86.08c.31,0,.59,0,.86-.06v.8H62a2.8,2.8,0,0,1-1.54-.42,1.73,1.73,0,0,1-.66-1.58V23.88h-.08a6.16,6.16,0,0,1-1,1.92,7.5,7.5,0,0,1-1.76,1.64,9,9,0,0,1-2.42,1.14,10,10,0,0,1-3,.42,8.25,8.25,0,0,1-5-1.38,4.81,4.81,0,0,1-1.88-4.14,6.58,6.58,0,0,1,.62-3.08,4.86,4.86,0,0,1,1.62-1.82,6.4,6.4,0,0,1,2.28-.92,18.71,18.71,0,0,1,2.56-.34l3.64-.22a11.46,11.46,0,0,0,2.5-.4,2.76,2.76,0,0,0,1.44-.92A2.93,2.93,0,0,0,59.76,14a11.84,11.84,0,0,0-.16-1.92,4.23,4.23,0,0,0-.78-1.84A4.46,4.46,0,0,0,57,8.86a8,8,0,0,0-3.24-.54,7.41,7.41,0,0,0-5,1.58,6.21,6.21,0,0,0-2,4.46h-.8A8.05,8.05,0,0,1,46.52,11.66Zm13.16,4.82a2.53,2.53,0,0,1-1.24.86,10.41,10.41,0,0,1-1.92.46,20.43,20.43,0,0,1-2.34.2q-1.26,0-2.46.12a17.81,17.81,0,0,0-2.34.3,5.56,5.56,0,0,0-2,.8,4.12,4.12,0,0,0-1.4,1.6,5.83,5.83,0,0,0-.52,2.66,5.22,5.22,0,0,0,.3,1.74,3.72,3.72,0,0,0,1,1.52,5.56,5.56,0,0,0,1.86,1.08,8.22,8.22,0,0,0,2.82.42A8.9,8.9,0,0,0,55,27.56a8.09,8.09,0,0,0,2.62-1.78,7.25,7.25,0,0,0,1.6-2.54,8.38,8.38,0,0,0,.54-3v-3.8Z"/><path class="cls-1" d="M65.2,28.56V8H66v5.08h.08A8.11,8.11,0,0,1,67,10.9a6.13,6.13,0,0,1,1.6-1.78,7.71,7.71,0,0,1,2.38-1.2,9.89,9.89,0,0,1,3.22-.4v.8a7.68,7.68,0,0,0-3.66.58A6.93,6.93,0,0,0,68,10.82a7.93,7.93,0,0,0-1.48,2.82A11.37,11.37,0,0,0,66,16.92V28.56Z"/><path class="cls-1" d="M77.76,24.56a4.83,4.83,0,0,0,.26,1.8,2.21,2.21,0,0,0,.66,1,1.74,1.74,0,0,0,.88.38,7.73,7.73,0,0,0,1,.06l1.08,0a2.32,2.32,0,0,0,.68-.1v.8l-.7.08a12,12,0,0,1-1.26,0,3.55,3.55,0,0,1-2.38-.82,3.77,3.77,0,0,1-1-3V8.8H73.2V8H77V1.52h.8V8H82.4v.8H77.76Z"/><path class="cls-1" d="M112.28,13.28v.8H97.08V28.56h-.8V0h17.6V.8H97.08V13.28Z"/><path class="cls-1" d="M116.12,11.66a6,6,0,0,1,1.5-2.18A7,7,0,0,1,120,8a9.6,9.6,0,0,1,3.34-.52,11.4,11.4,0,0,1,2.58.28,5.6,5.6,0,0,1,2.14,1,5.23,5.23,0,0,1,1.48,1.82,6.71,6.71,0,0,1,.6,2.8V26.48a1.34,1.34,0,0,0,.24.88,1.19,1.19,0,0,0,.64.38,3,3,0,0,0,.86.08c.3,0,.59,0,.86-.06v.8h-1.2a2.8,2.8,0,0,1-1.54-.42,1.73,1.73,0,0,1-.66-1.58V23.88h-.08a6.6,6.6,0,0,1-1,1.92,7.7,7.7,0,0,1-1.76,1.64,9.15,9.15,0,0,1-2.42,1.14,10,10,0,0,1-3,.42,8.25,8.25,0,0,1-5-1.38,4.79,4.79,0,0,1-1.88-4.14,6.46,6.46,0,0,1,.62-3.08,4.86,4.86,0,0,1,1.62-1.82,6.25,6.25,0,0,1,2.28-.92,18.51,18.51,0,0,1,2.56-.34L125,17.1a11.56,11.56,0,0,0,2.5-.4,2.76,2.76,0,0,0,1.44-.92,3,3,0,0,0,.46-1.78,13.08,13.08,0,0,0-.16-1.92,4.23,4.23,0,0,0-.78-1.84,4.53,4.53,0,0,0-1.82-1.38,8,8,0,0,0-3.24-.54,7.41,7.41,0,0,0-5,1.58,6.21,6.21,0,0,0-2,4.46h-.8A8.05,8.05,0,0,1,116.12,11.66Zm13.16,4.82a2.53,2.53,0,0,1-1.24.86,10.41,10.41,0,0,1-1.92.46,20.43,20.43,0,0,1-2.34.2q-1.26,0-2.46.12a17.81,17.81,0,0,0-2.34.3,5.49,5.49,0,0,0-2,.8,4,4,0,0,0-1.4,1.6,5.83,5.83,0,0,0-.52,2.66,5.22,5.22,0,0,0,.3,1.74,3.72,3.72,0,0,0,1,1.52,5.56,5.56,0,0,0,1.86,1.08,8.22,8.22,0,0,0,2.82.42,8.9,8.9,0,0,0,3.56-.68,8.09,8.09,0,0,0,2.62-1.78,7.4,7.4,0,0,0,1.6-2.54,8.38,8.38,0,0,0,.54-3v-3.8Z"/><path class="cls-1" d="M134.8,4V0h.8V4Zm0,24.52V8h.8V28.56Z"/><path class="cls-1" d="M140.8,0V28.56H140V0Z"/><path class="cls-1" d="M160,28.56V23.48h-.08a7.14,7.14,0,0,1-2.46,4,7.56,7.56,0,0,1-5,1.56,8.87,8.87,0,0,1-2.93-.46,6.11,6.11,0,0,1-3.84-3.72,8.69,8.69,0,0,1-.54-3.18V8h.8V21.52a8.16,8.16,0,0,0,.51,3.06,5.68,5.68,0,0,0,1.43,2.08,5.52,5.52,0,0,0,2.07,1.2,8.22,8.22,0,0,0,2.5.38,7.09,7.09,0,0,0,3.24-.7,6.76,6.76,0,0,0,2.34-1.88,8,8,0,0,0,1.42-2.74,11.08,11.08,0,0,0,.49-3.28V8h.79V28.56Z"/><path class="cls-1" d="M165.2,28.56V8h.8v5.08h.08A7.51,7.51,0,0,1,167,10.9a6.24,6.24,0,0,1,1.59-1.78,7.66,7.66,0,0,1,2.39-1.2,9.89,9.89,0,0,1,3.22-.4v.8a7.64,7.64,0,0,0-3.66.58A6.93,6.93,0,0,0,168,10.82a7.77,7.77,0,0,0-1.48,2.82,11.37,11.37,0,0,0-.48,3.28V28.56Z"/><path class="cls-1" d="M175.65,22.3a9.1,9.1,0,0,0,1.42,3.1,6.8,6.8,0,0,0,2.48,2.08,8.25,8.25,0,0,0,3.72.76,8.39,8.39,0,0,0,5.38-1.7,7.63,7.63,0,0,0,2.66-5.1h.8A8.18,8.18,0,0,1,189.27,27a9,9,0,0,1-5.92,2,9.22,9.22,0,0,1-4.1-.76A7.24,7.24,0,0,1,176.47,26a10,10,0,0,1-1.6-3.44,17,17,0,0,1-.52-4.26,12.9,12.9,0,0,1,.76-4.56,10.89,10.89,0,0,1,2-3.38A8.42,8.42,0,0,1,180,8.24a8.33,8.33,0,0,1,3.36-.72,8.78,8.78,0,0,1,4.14.92,8.12,8.12,0,0,1,2.84,2.44,9.91,9.91,0,0,1,1.6,3.48,13.81,13.81,0,0,1,.42,4.08h-17.2A17.25,17.25,0,0,0,175.65,22.3ZM191,14.06a8.79,8.79,0,0,0-1.54-3,7.21,7.21,0,0,0-2.54-2,8,8,0,0,0-3.52-.74,7.7,7.7,0,0,0-3.14.64,7.62,7.62,0,0,0-2.56,1.86A9.74,9.74,0,0,0,176,13.76a12.49,12.49,0,0,0-.8,3.88h16.4A12.06,12.06,0,0,0,191,14.06Z"/><path class="cls-1" d="M203.83,0h21.32V.8H214.88V28.56h-.81V.8H203.83Z"/><path class="cls-1" d="M226.77,22.3a9.1,9.1,0,0,0,1.42,3.1,6.8,6.8,0,0,0,2.48,2.08,8.25,8.25,0,0,0,3.72.76,8.39,8.39,0,0,0,5.38-1.7,7.63,7.63,0,0,0,2.66-5.1h.8A8.18,8.18,0,0,1,240.39,27a9,9,0,0,1-5.92,2,9.17,9.17,0,0,1-4.09-.76A7.2,7.2,0,0,1,227.59,26a10.2,10.2,0,0,1-1.6-3.44,17,17,0,0,1-.52-4.26,12.9,12.9,0,0,1,.76-4.56,10.89,10.89,0,0,1,2-3.38,8.42,8.42,0,0,1,2.88-2.1,8.33,8.33,0,0,1,3.36-.72,8.76,8.76,0,0,1,4.14.92,8.24,8.24,0,0,1,2.85,2.44,10.08,10.08,0,0,1,1.59,3.48,13.81,13.81,0,0,1,.42,4.08h-17.2A17.25,17.25,0,0,0,226.77,22.3Zm15.38-8.24a8.79,8.79,0,0,0-1.54-3,7.21,7.21,0,0,0-2.54-2,8,8,0,0,0-3.52-.74,7.55,7.55,0,0,0-5.7,2.5,9.74,9.74,0,0,0-1.78,2.94,12.49,12.49,0,0,0-.8,3.88h16.4A12.06,12.06,0,0,0,242.15,14.06Z"/><path class="cls-1" d="M247.23,11.66a6.25,6.25,0,0,1,1.5-2.18A7.18,7.18,0,0,1,251.13,8a9.64,9.64,0,0,1,3.34-.52,11.27,11.27,0,0,1,2.58.28,5.46,5.46,0,0,1,2.14,1,5,5,0,0,1,1.48,1.82,6.41,6.41,0,0,1,.6,2.8V26.48a1.34,1.34,0,0,0,.24.88,1.23,1.23,0,0,0,.64.38,3,3,0,0,0,.86.08q.47,0,.87-.06v.8h-1.21a2.82,2.82,0,0,1-1.54-.42,1.73,1.73,0,0,1-.66-1.58V23.88h-.08a6.34,6.34,0,0,1-1,1.92,7.55,7.55,0,0,1-1.77,1.64,8.86,8.86,0,0,1-2.42,1.14,9.94,9.94,0,0,1-3,.42,8.28,8.28,0,0,1-5-1.38,4.81,4.81,0,0,1-1.88-4.14A6.58,6.58,0,0,1,246,20.4a5,5,0,0,1,1.62-1.82,6.37,6.37,0,0,1,2.29-.92,18.57,18.57,0,0,1,2.55-.34l3.64-.22a11.35,11.35,0,0,0,2.5-.4,2.68,2.68,0,0,0,1.44-.92,2.93,2.93,0,0,0,.46-1.78,11.84,11.84,0,0,0-.16-1.92,4,4,0,0,0-.78-1.84,4.46,4.46,0,0,0-1.82-1.38,8,8,0,0,0-3.24-.54,7.41,7.41,0,0,0-5,1.58,6.25,6.25,0,0,0-2,4.46h-.8A8.57,8.57,0,0,1,247.23,11.66Zm13.16,4.82a2.49,2.49,0,0,1-1.24.86,10.21,10.21,0,0,1-1.92.46,20.43,20.43,0,0,1-2.34.2q-1.26,0-2.46.12a17.81,17.81,0,0,0-2.34.3,5.56,5.56,0,0,0-2,.8,4.2,4.2,0,0,0-1.4,1.6,6,6,0,0,0-.52,2.66,5,5,0,0,0,.31,1.74,3.6,3.6,0,0,0,1,1.52,5.66,5.66,0,0,0,1.86,1.08,8.22,8.22,0,0,0,2.82.42,8.86,8.86,0,0,0,3.56-.68,8,8,0,0,0,2.62-1.78,7.25,7.25,0,0,0,1.6-2.54,8.38,8.38,0,0,0,.54-3v-3.8Z"/><path class="cls-1" d="M266.71,8v5.08h.08a7.74,7.74,0,0,1,.88-2.2,7.37,7.37,0,0,1,1.48-1.76,6.82,6.82,0,0,1,1.94-1.18,6.09,6.09,0,0,1,2.26-.42,5.89,5.89,0,0,1,4,1.22,6.16,6.16,0,0,1,2.14,3.58h.08A6.37,6.37,0,0,1,282,8.84a6.75,6.75,0,0,1,4.16-1.32,7.61,7.61,0,0,1,3.12.56,5.09,5.09,0,0,1,2,1.54A5.9,5.9,0,0,1,292.31,12a13.19,13.19,0,0,1,.32,3.06V28.56h-.8V15a13.08,13.08,0,0,0-.26-2.76,5.24,5.24,0,0,0-.92-2.12,4.23,4.23,0,0,0-1.76-1.36,7,7,0,0,0-2.78-.48,6,6,0,0,0-4.72,2.16,7.18,7.18,0,0,0-1.28,2.3,8.6,8.6,0,0,0-.44,2.74v13h-.8V15.36a15.69,15.69,0,0,0-.22-2.72,6,6,0,0,0-.82-2.24,4.2,4.2,0,0,0-1.68-1.52,6.11,6.11,0,0,0-2.8-.56,5.5,5.5,0,0,0-2.76.7,6.72,6.72,0,0,0-2.1,1.88,9.05,9.05,0,0,0-1.32,2.74,11.76,11.76,0,0,0-.46,3.28V28.56h-.8V8Z"/></g></g></svg>