<svg xmlns="http://www.w3.org/2000/svg" width="609.1" height="128.18" viewBox="0 0 609.1 128.18">
  <title>img_slide_16_title</title>
  <g id="レイヤー_2" data-name="レイヤー 2">
    <g id="レイヤー_1-2" data-name="レイヤー 1">
      <g>
        <path d="M13.11,28.88a36.55,36.55,0,0,0,1.28-7,67.54,67.54,0,0,1,8.31,2.8c.88.4,1.36.8,1.36,1.28a1.55,1.55,0,0,1-.64,1.28,7.88,7.88,0,0,0-1.52,3.2A84.34,84.34,0,0,1,9.27,57c-.72,1-1.12,1.52-1.52,1.52s-.88-.4-1.75-1.12a23.87,23.87,0,0,0-6-3.6A67.15,67.15,0,0,0,13.11,28.88Zm28.3,18.4c0,5.6.32,12,.32,15.92,0,4.48-1,6.72-2.88,8.08-2.16,1.44-5.12,1.92-13,2-2.48,0-2.48.08-3-2.48a22.78,22.78,0,0,0-2.4-7,62.37,62.37,0,0,0,8.48.48c2.56,0,3.52-.56,3.52-3.12V16A68.51,68.51,0,0,0,31.9,4.56c3,.08,6.55.32,9.27.64.8.08,1.36.48,1.36.88A4.15,4.15,0,0,1,42,7.84c-.48,1-.56,2.56-.56,8Zm16-25.2c1.12-.4,1.2-.4,1.44.48a89.41,89.41,0,0,0,15,30.32,32.06,32.06,0,0,0-6,4.24c-.88.8-1.36,1.2-1.76,1.2s-.8-.48-1.44-1.52A123.31,123.31,0,0,1,50.68,25.6c-.24-1-.08-1,1.12-1.44Z"/>
        <path d="M99.45,55.28A44.87,44.87,0,0,1,89,71.28c-.72.8-1.12,1.2-1.52,1.2S86.66,72,85.94,71a18.15,18.15,0,0,0-4.88-4.72c5.84-5,8.64-9,10.88-14.48,1.59-3.92,2.55-9,2.55-17.52,0-4.16-.16-6.56-.16-7.28-2.79,1.52-5.75,3-8.79,4.4a4.25,4.25,0,0,1-1.76.56c-.72,0-1-.64-1.6-2.16A13,13,0,0,0,79,25c13.19-5.12,24.7-12.48,30.93-19.28a22,22,0,0,0,3.28-4.32c3,.4,6.08.88,8.39,1.44,1,.16,1.44.4,1.44.88s-.4.72-1.28,1.12c8,7.68,20.07,14.72,33.58,19.28a14.9,14.9,0,0,0-3,5c-.56,1.6-.8,2.24-1.52,2.24a6,6,0,0,1-1.76-.56,112,112,0,0,1-21-11.68v3c0,.8-.08.88-.88.88-.48,0-1.92-.16-6.72-.16h-6.71c-4.8,0-6.24.16-6.72.16-.79,0-.87-.08-.87-.88V19.44a107.27,107.27,0,0,1-10.72,6.88c.88.08,3.6.16,10.4.16h22.38c7.51,0,10.15-.16,10.63-.16.8,0,.88.08.88.8,0,.56-.16,2.24-.16,6.8V43.6c0,4.48.16,6.24.16,6.72,0,.72-.08.8-.88.8-.48,0-3.12-.16-10.63-.16H100.81a28.06,28.06,0,0,1-1.2,3.92c.24-.16.32-.16.8-.16s3.2.16,10.71.16h21.51c7.51,0,10.23-.16,10.71-.16.88,0,1,.08,1,.88,0,.48-.16,2.16-.16,4.72v4.4c0,7.84.16,9.28.16,9.68,0,.8-.08.88-1,.88h-6.8c-.8,0-.88-.08-.88-.88V72.72H107.84V74.8c0,.8-.08.88-.88.88h-6.55c-.88,0-1-.08-1-.88,0-.56.16-1.92.16-9.84V61.2c0-3.44-.16-5-.16-5.6ZM131.51,41.2h-29.1c-.08,1.44-.24,2.72-.4,4h29.5Zm-28.86-9.12v3.68h28.86V32.08Zm5.19,34.32h27.82V61.12H107.84Zm12.63-49c2.4,0,3.92,0,5-.08A65.41,65.41,0,0,1,117,9.84a81.51,81.51,0,0,1-8.08,7.52Z"/>
        <path d="M181.31,23.92c-5.19,0-9.75.24-13.19.4-1,.08-1.36-.48-1.52-1.6-.24-1.6-.56-5.76-.72-8.08a139.9,139.9,0,0,0,15.35.56h28.54c2.4,0,3.28-.16,4.4-.8a2.55,2.55,0,0,1,1.36-.48,1.87,1.87,0,0,1,1.36.56A29.42,29.42,0,0,1,222.32,20a2.72,2.72,0,0,1,.64,1.6,2.19,2.19,0,0,1-.8,1.52,9.63,9.63,0,0,0-1.84,3.12,94.15,94.15,0,0,1-15.5,26,89.67,89.67,0,0,1-22.71,19A3.87,3.87,0,0,1,180,72a2.8,2.8,0,0,1-2-.88,23.79,23.79,0,0,0-7.44-4.4c11.67-5.92,18.79-11.44,26.14-20a67.31,67.31,0,0,0,13.51-22.8ZM236.55,8.56a8.63,8.63,0,0,1-17.26,0A8.43,8.43,0,0,1,227.92,0,8.53,8.53,0,0,1,236.55,8.56Zm-13.35,0a4.72,4.72,0,1,0,9.44,0,4.72,4.72,0,1,0-9.44,0Z"/>
        <path d="M256.54,60.08V64.8c0,1.36-.32,1.52-1.76,1.6-2,.08-4.31.08-6.31,0-1.36-.08-1.76-.24-1.68-1.2.08-4.16.24-9.84.24-15.92V29.68c0-4.32.08-8.64-.16-13.28,0-.8.32-1.12.88-1.12,4.24.24,8.95.24,14.31.24h19c5.2,0,11.28,0,15-.16.88,0,1.12.4,1,1.6,0,3.92-.08,8.24-.08,13V49c0,7,.24,10.88.4,15.2,0,1.12-.4,1.36-1.52,1.36-2.4.08-4.95.08-7.35,0-1,0-1-.16-1-1.28V60.08Zm31-36.08h-31.1V51.6h31.1Z"/>
        <path d="M344.56,28.32c9.75,3,17.51,6.16,25.42,10.88.88.48,1.28,1,.88,2.08a47,47,0,0,1-3.44,7c-.32.56-.64.88-1,.88a1.23,1.23,0,0,1-.88-.4,88.32,88.32,0,0,0-21-10.24V56.16c0,5.2.16,9.92.32,15.68.08,1-.32,1.2-1.44,1.2a52.72,52.72,0,0,1-7.11,0c-1.12,0-1.52-.24-1.52-1.2.24-5.92.32-10.64.32-15.76V16.72a61,61,0,0,0-.8-11.84,59.06,59.06,0,0,1,10,1.28c1.12.24,1.52.72,1.52,1.36a4.21,4.21,0,0,1-.64,1.84c-.56,1-.56,3-.56,7.52Z"/>
        <path d="M437.93,25.92H410a110.1,110.1,0,0,0-12,.48c-.87,0-1.19-.4-1.19-1.36-.24-2.16-.4-5.92-.4-8.56A114.17,114.17,0,0,0,409.8,17h23.74c4.16,0,8.39-.16,12.63-.32,1.28,0,1.68.32,1.6,1.36,0,4.24-.16,8.4-.16,12.64V49.84c0,5.84.24,12.24.32,14.48,0,.8-.32,1-1.44,1.12a51.69,51.69,0,0,1-7,0c-1.28-.08-1.52-.16-1.52-1.36v-3.2H410.44c-5,0-9.28.24-13.11.32-.72,0-1-.32-1.12-1.2a75.85,75.85,0,0,1-.4-8.32c3.75.24,8.39.4,14.7.4h27.42Z"/>
        <path d="M480.71,44.72a63.65,63.65,0,0,0-11.75,1c-1,0-1.6-.48-1.84-1.68a86.83,86.83,0,0,1-1.2-9.68c5.19.8,9.19,1,17.27,1h25.74c6.07,0,12.23-.16,18.38-.24,1.2-.08,1.44.16,1.44,1.12a59,59,0,0,1,0,7.52c0,1-.32,1.28-1.44,1.2-6-.08-11.91-.16-17.82-.16Z"/>
        <path d="M563.05,18.72c1.36.4,1.52,1.36,1,2.48a11.54,11.54,0,0,0-1,5.44c-.16,10-1.68,17.6-4.32,23.52a41.17,41.17,0,0,1-11.35,15,3.63,3.63,0,0,1-2.08,1,2.72,2.72,0,0,1-1.52-.64,28.08,28.08,0,0,0-6.79-3.36c6.23-4.72,10.47-9.6,13.27-15.92,2.24-5.44,3.28-9.84,3.36-22.64a21.52,21.52,0,0,0-.8-6.72A64.72,64.72,0,0,1,563.05,18.72ZM580.8,52.56a81.83,81.83,0,0,0,11.35-7.44,77.05,77.05,0,0,0,14-13.6,23.06,23.06,0,0,0,2.48,8.08A4,4,0,0,1,609.1,41c0,.56-.32,1.12-1.2,2a101.12,101.12,0,0,1-11.84,10.48A132.45,132.45,0,0,1,581.84,63a26.56,26.56,0,0,0-2.32,1.68,2.54,2.54,0,0,1-1.6.64,3.41,3.41,0,0,1-1.68-.64,23.1,23.1,0,0,1-4.8-4.88,3.19,3.19,0,0,1-.72-1.68A2.46,2.46,0,0,1,571,57c.56-1,.48-2,.48-6.08v-25c0-7,0-10.24-.8-13.92a76.34,76.34,0,0,1,10,1.68c1,.24,1.44.72,1.44,1.36a5.12,5.12,0,0,1-.64,2c-.72,1.52-.72,3.12-.72,8.88Z"/>
      </g>
      <g>
        <path d="M61.5,120.31c0,1.68,0,3.67,0,4.84s-.14,1.85-.77,2.31-1.08.5-2.68.5c-.75,0-.75,0-.91-.74a6.43,6.43,0,0,0-.65-1.8,17.79,17.79,0,0,0,1.94.07c.48,0,.63-.12.63-.72V119.9l-1.23.41a2.35,2.35,0,0,0-.79.36.84.84,0,0,1-.38.14c-.15,0-.24-.07-.32-.29a23.55,23.55,0,0,1-.55-2.35,20.31,20.31,0,0,0,2.21-.46c.31-.07.67-.16,1.06-.28V113h-.41c-1.73,0-2.26,0-2.38,0s-.29,0-.29-.26V111c0-.24,0-.26.29-.26s.65,0,2.38,0h.41V109.6a19.83,19.83,0,0,0-.2-3.41c.91,0,1.73.07,2.52.17.24,0,.39.14.39.26a1.26,1.26,0,0,1-.15.51,7.55,7.55,0,0,0-.14,2.42v1.23c1.15,0,1.58,0,1.7,0s.24,0,.24.26v1.83c0,.24,0,.26-.24.26l-1.7,0v3.6c.93-.33,1.89-.72,2.73-1.08a15.66,15.66,0,0,0-.09,1.66c0,.77,0,.74-.7,1.06s-1.27.52-1.94.79Zm6.83-3.84c0,6.79-.86,8.92-4,11.2a1.32,1.32,0,0,1-.65.32c-.19,0-.33-.17-.55-.53a4.17,4.17,0,0,0-1.29-1.32c3.57-2,4.07-3.75,4.07-10,0-1,0-1.59,0-1.73s0-.27.28-.27.65,0,2.33,0h2.73c1.68,0,2.21,0,2.38,0s.26,0,.26.27,0,1.08,0,2.9v7.42c0,.45,0,.62.13.69a1.37,1.37,0,0,0,.74.12c.57,0,.81-.07,1-.33s.24-.77.26-3.7a6.59,6.59,0,0,0,1.66.82c.6.19.6.26.57.89-.09,2.32-.24,3.38-.83,3.93a4.2,4.2,0,0,1-2.76.7,4.75,4.75,0,0,1-2.59-.41c-.46-.26-.7-.84-.7-1.78v-9.16Zm-.86-4.3c-2.33,0-3.12,0-3.26,0s-.29,0-.29-.27v-1.82c0-.24,0-.26.29-.26s.93,0,3.26,0h1.37V109a16.46,16.46,0,0,0-.17-2.76c.94,0,1.73.07,2.52.16.24,0,.41.1.41.24a1.41,1.41,0,0,1-.15.51,7,7,0,0,0-.14,1.82v1h2.76c2.32,0,3.12,0,3.26,0s.29,0,.29.26V112c0,.24,0,.27-.29.27s-.94,0-3.26,0Z"/>
        <path d="M83.13,126.59c-2.06,0-2.78,0-2.93,0s-.24,0-.24-.26v-1.87c0-.27,0-.29.24-.29s.63,0,1.92,0v-9.89c0-2.28,0-3.43,0-3.6s0-.27.26-.27,1,0,3.28,0h2a25.93,25.93,0,0,0,1.29-2.78,9.82,9.82,0,0,0,.43-1.64,20,20,0,0,1,2.62.51.32.32,0,0,1,.26.31.56.56,0,0,1-.17.38,2.64,2.64,0,0,0-.43.68c-.31.67-.79,1.68-1.25,2.54h5.74c2.32,0,3.12,0,3.28,0s.27,0,.27.27,0,1.32,0,3.6v9.89c1.32,0,1.82,0,1.94,0s.27,0,.27.29v1.87c0,.24,0,.26-.27.26s-.84,0-2.92,0Zm4-2.32V112.82H84.69v11.45Zm5,0V112.82h-2.5v11.45Zm2.44-11.45v11.45H97V112.82Z"/>
        <path d="M119.35,116.61v3h1.44c2.13,0,2.8,0,2.95,0s.26,0,.26.27v1.68c0,.24,0,.26-.26.26s-.82,0-2.95,0h-1.44v3.48H122c2.33,0,3.15,0,3.29,0s.24,0,.24.26v1.7c0,.24,0,.27-.24.27s-1,0-3.29,0H114.6c-2.35,0-3.14,0-3.29,0s-.24,0-.24-.27v-1.7c0-.24,0-.26.24-.26s.94,0,3.29,0H117v-3.48H116c-2.11,0-2.78,0-2.92,0s-.27,0-.27-.26v-1.68c0-.24,0-.27.27-.27s.81,0,2.92,0H117v-3h-.7c-2,0-2.66,0-2.8,0s-.27,0-.27-.27v-1.48l-.36.26c-.29.22-.45.34-.57.34s-.24-.17-.46-.56a4.68,4.68,0,0,0-1.08-1.27,10.83,10.83,0,0,0,1-.65c-.26,0-.84,0-2,0a16.34,16.34,0,0,0,2.76,4.68,7.54,7.54,0,0,0-.91,1.44c-.12.26-.19.4-.29.4s-.19-.12-.33-.38a14.2,14.2,0,0,1-1.37-2.95c0,6.26.17,11.33.17,11.73,0,.24,0,.27-.29.27h-1.94c-.24,0-.27,0-.27-.27,0-.4.15-5.16.17-10.8a20.83,20.83,0,0,1-2.33,5.31c-.14.24-.26.38-.36.38s-.19-.14-.28-.41a8.17,8.17,0,0,0-.84-1.82,20.46,20.46,0,0,0,3.59-7.58h-.36c-1.67,0-2.2,0-2.35,0s-.26,0-.26-.28v-1.68c0-.24,0-.27.26-.27s.68,0,2.35,0h.51v-1.37a18.69,18.69,0,0,0-.19-3.26,23.51,23.51,0,0,1,2.39.16c.24,0,.41.1.41.24a1.17,1.17,0,0,1-.14.51c-.15.29-.17.67-.17,2.33v1.39c1.58,0,2.11,0,2.26,0s.26,0,.26.27v1.68a16.77,16.77,0,0,0,4.32-5,6.13,6.13,0,0,0,.64-1.59,21.75,21.75,0,0,1,2.33.39c.22,0,.34.17.34.33s-.08.27-.29.41a16.6,16.6,0,0,0,6.67,5.81,5.53,5.53,0,0,0-.94,1.63c-.14.41-.24.58-.38.58a1.31,1.31,0,0,1-.55-.27l-.65-.4v1.72c0,.24,0,.27-.27.27s-.79,0-2.8,0Zm1.15-2.11c1.94,0,2.61,0,2.78,0a18.25,18.25,0,0,1-5.08-5.14,20.49,20.49,0,0,1-4.49,5.16c.34,0,1.08,0,2.54,0Z"/>
        <path d="M131.75,122.8c-2.19,0-2.93,0-3.08,0s-.26,0-.26-.26V121c0-.24,0-.27.26-.27s.89,0,3.08,0h5.68v-1.34h-.05c-1.7,0-2.21,0-2.37,0s-.27,0-.27-.28,0-.72,0-2v-2.86c0-1.32,0-1.9,0-2.06s0-.27.27-.27.6,0,1.87,0a5.47,5.47,0,0,0,.26-.65,3.86,3.86,0,0,0,.24-1.08c.79.1,1.46.19,2.06.31.27.05.41.12.41.27s0,.19-.19.33a1.8,1.8,0,0,0-.36.56c-.05.09-.07.19-.12.26h.89c1.61,0,2.16,0,2.3,0s.26,0,.26.27,0,.74,0,2.06v2.86c0,1.32,0,1.89,0,2s0,.28-.26.28-.69,0-2.3,0h-.19v1.34h6c2.18,0,2.92,0,3.07,0s.26,0,.26.27v1.56c0,.24,0,.26-.26.26s-.89,0-3.07,0H142a21.1,21.1,0,0,0,8,2.91,7.58,7.58,0,0,0-.95,1.53c-.34.67-.36.67-1.11.48a19.75,19.75,0,0,1-8.08-4.27c0,2.69.12,4,.12,4.44,0,.24,0,.26-.27.26h-2.06c-.24,0-.26,0-.26-.26,0-.41.09-1.63.12-4.3a17.94,17.94,0,0,1-7.68,4.18c-.72.19-.74.17-1.1-.48a6.74,6.74,0,0,0-.94-1.37,19.09,19.09,0,0,0,7.58-3.12Zm2.44-14.93a13.6,13.6,0,0,0-.14-1.65c.74,0,1.68.07,2.32.14.22,0,.32.1.32.22a.7.7,0,0,1-.12.33,2.17,2.17,0,0,0-.12,1h4.48a12.36,12.36,0,0,0-.14-1.65c.81,0,1.68.07,2.32.14.2,0,.32.1.32.22s-.08.21-.12.36a2,2,0,0,0-.12.93h2.68c2.43,0,3.29,0,3.43,0s.27,0,.27.26v1.56c0,.24,0,.26-.27.26s-1,0-3.43,0h-2.68c0,.64,0,1,0,1.08,0,.26,0,.28-.26.28h-1.82c-.24,0-.27,0-.27-.28,0-.1,0-.44.05-1.08h-4.48c0,.64,0,1,0,1.08s0,.26-.26.26h-1.82c-.24,0-.27,0-.27-.26s0-.44.05-1.08H131.7c-2.31,0-3.12,0-3.27,0s-.26,0-.26-.26v-1.56c0-.24,0-.26.26-.26s1,0,3.27,0Zm-.26,8.69c.19.75.19.75-.43,1.13-1,.62-2,1.1-3.05,1.63a1.8,1.8,0,0,0-.67.46.49.49,0,0,1-.36.21c-.12,0-.24-.09-.34-.28-.26-.58-.55-1.3-.84-2a8.39,8.39,0,0,0,1.39-.46,21.94,21.94,0,0,0,4-2.14A14,14,0,0,0,133.93,116.56Zm-4.06-5.3c.17-.19.27-.17.48-.05a20.51,20.51,0,0,1,2.93,2.11c.1.1.14.14.14.24a.38.38,0,0,1-.14.24l-1,1.23c-.24.28-.29.28-.48.12a17.11,17.11,0,0,0-2.88-2.26c-.09-.07-.14-.12-.14-.19s0-.15.14-.27Zm7,2.4v1.25h3.72v-1.25Zm3.72,2.88h-3.72v1.29h3.72Zm3.72-1c.12-.17.16-.24.28-.22-.07-.1-.14-.19-.24-.36a7.31,7.31,0,0,0-1-1.13,12.25,12.25,0,0,0,2.92-2,6,6,0,0,0,.7-.79,17.7,17.7,0,0,1,1.63,1.32c.17.17.22.26.22.41s-.1.24-.29.31a3.07,3.07,0,0,0-.65.45,23.79,23.79,0,0,1-2.47,1.71,3.17,3.17,0,0,1-.46.26,27.89,27.89,0,0,1,4,2.4c.12.08.17.12.17.2a.63.63,0,0,1-.12.26l-.89,1.34c-.19.32-.24.34-.45.17a30.39,30.39,0,0,0-4.13-2.66c-.12-.07-.17-.12-.17-.19a.44.44,0,0,1,.12-.27Z"/>
        <path d="M160.57,121.94c0,1.13.05,2.35.05,3.31a2.39,2.39,0,0,1-.69,2,3.09,3.09,0,0,1-2,.52c-.75,0-.79,0-.94-.72a5.12,5.12,0,0,0-.55-1.58,9.48,9.48,0,0,0,1.49,0c.53,0,.65-.24.65-.76v-4.4h-3a19,19,0,0,1-1.73,7.16c-.14.28-.24.4-.38.4s-.22-.09-.41-.31a5.7,5.7,0,0,0-1.44-1.22c1.32-2.09,2-4.9,2-11.31v-3.93c0-2.5,0-3.8,0-3.94s0-.29.29-.29.58,0,2.06,0h2.33c1.46,0,1.92,0,2.06,0s.29,0,.29.29-.05,1.44-.05,3.94Zm-2-3.79v-3.44H155.7v.39c0,1.13,0,2.13,0,3.05Zm-2.84-8.91v3.26h2.84v-3.26Zm14.56,6a1.08,1.08,0,0,0,.65-.12,1.27,1.27,0,0,1,.36-.09c.17,0,.43.17,1,.72s.72.77.72,1a.49.49,0,0,1-.19.38,1.65,1.65,0,0,0-.38.89,17.35,17.35,0,0,1-2.14,5.26,14.06,14.06,0,0,0,3.65,2.61,4.9,4.9,0,0,0-.94,1.63c-.17.39-.24.58-.41.58s-.26-.1-.52-.26a16.19,16.19,0,0,1-3.15-2.62,15,15,0,0,1-2.54,2.5c-.24.19-.36.31-.48.31s-.22-.17-.43-.51a6.61,6.61,0,0,0-1-1.27c0,1,0,1.63,0,1.71,0,.24,0,.26-.27.26h-1.87c-.26,0-.29,0-.29-.26s0-1.76,0-5v-10.4c0-3.29,0-4.92,0-5.09s0-.26.29-.26,1.15,0,3.1,0h4.29c2,0,2.71,0,2.86,0s.28,0,.28.29-.09.84-.12,1.22a12.42,12.42,0,0,1-.64,4,2.38,2.38,0,0,1-2.5,1.37c-.5,0-1,0-1.44,0-.72,0-.72,0-.86-.77a6.67,6.67,0,0,0-.41-1.37,14.45,14.45,0,0,0,2.18.12c.63,0,.87-.14,1-.65a11.11,11.11,0,0,0,.24-2h-5.92v5.88Zm-5.8,10.73a12.83,12.83,0,0,0,3-2.69,16.93,16.93,0,0,1-2.27-6h-.7Zm2.78-8.66a13.91,13.91,0,0,0,1.51,4,14.44,14.44,0,0,0,1.39-4Z"/>
        <path d="M196.31,122c0,1.11.05,2.33.05,3.32a2.31,2.31,0,0,1-.79,1.94c-.46.41-1.18.62-3.17.62-.74,0-.72,0-.89-.69a6,6,0,0,0-.67-1.83c1,.08,1.44.1,2.23.1.55,0,.77-.24.77-.79v-4H188.2v2.86c0,2.33.05,3.41.05,3.55s0,.27-.26.27h-2.07c-.24,0-.26,0-.26-.27s.05-1.22.05-3.55v-2.86h-5.47a15,15,0,0,1-2.09,6.65c-.19.34-.31.48-.43.48s-.24-.12-.5-.38a6.3,6.3,0,0,0-1.71-1.23c1.75-2.25,2.47-5.11,2.47-10.89V111.4c0-2.49,0-3.79,0-3.94s0-.28.28-.28,1,0,3.29,0h11.27c2.33,0,3.15,0,3.31,0s.27,0,.27.28-.05,1.45-.05,3.94Zm-10.6-3.55V115.1h-5.23v.26c0,1.15,0,2.19-.07,3.12Zm0-5.61v-3.34h-5.23v3.34Zm2.49-3.34v3.34h5.64v-3.34Zm5.64,9V115.1H188.2v3.38Z"/>
        <path d="M200.29,126.07c-.29-.2-.26-.29-.14-.46a12.54,12.54,0,0,0,2.2-4.18c.1-.26.12-.28.43-.12l1.49.68c.29.14.31.19.24.43a15.83,15.83,0,0,1-2.28,4.58c-.07.1-.12.15-.19.15s-.17-.05-.31-.15Zm9.14-18a13.77,13.77,0,0,0-.19-1.88c.86,0,1.63,0,2.44.15.24,0,.36.14.36.26a1,1,0,0,1-.12.46,3.16,3.16,0,0,0-.14,1h3.55c2.35,0,3.19,0,3.36,0s.26,0,.26.26,0,.53,0,1.54v1.58c0,1,0,1.37,0,1.52s0,.26-.26.26-1,0-3.36,0h-3.55v1.32h4.39c2.3,0,3.12-.05,3.28-.05s.27,0,.27.27-.05.53-.05,1.49v1.53c0,1,.05,1.39.05,1.54s0,.29-.27.29-1,0-3.28,0H211.8c0,.55,0,.86,0,.93,0,.22,0,.24-.27.24h-.05a17.08,17.08,0,0,1,1.9,2.12c.14.16.17.24-.07.4l-1.3,1c-.14.1-.21.15-.29.15s-.12-.07-.19-.22a10.55,10.55,0,0,0-1.82-2.28c-.17-.19-.14-.26.12-.43l1-.7h-1.27c-.22,0-.24,0-.24-.24,0-.07,0-.38,0-.93h-4c-2.3,0-3.12,0-3.29,0s-.26,0-.26-.29.05-.53.05-1.54v-1.53c0-1-.05-1.35-.05-1.49s0-.27.26-.27,1,.05,3.29.05h4v-1.32h-3.24c-2.35,0-3.14,0-3.29,0s-.26,0-.26-.26.05-.56.05-1.52v-1.58c0-1-.05-1.39-.05-1.54s0-.26.26-.26,1,0,3.34,0Zm0,9.65v-1.54h-5.18v1.54Zm0-6.37v-1.53H205v1.53Zm-1,13c0,.48.09.82.38,1a7.5,7.5,0,0,0,2.42.22,5.92,5.92,0,0,0,2.64-.26c.41-.22.62-1.13.67-2.28a6.3,6.3,0,0,0,1.73.72c.6.19.65.19.55.84a3.15,3.15,0,0,1-1.37,2.56c-.88.51-2.2.58-4.41.58s-3.48-.1-4.15-.48-.89-.82-.89-2.06V123a9.85,9.85,0,0,0-.12-1.9,19.64,19.64,0,0,1,2.38.22c.29,0,.43.12.43.21a.84.84,0,0,1-.12.44,1.76,1.76,0,0,0-.14.84Zm8.15-14.54h-4.77v1.53h4.77Zm.77,6.36h-5.54v1.54h5.54Zm1.08,5a.67.67,0,0,1,.29-.12c.07,0,.12,0,.21.14a18,18,0,0,1,2.62,4.22c.09.24.09.32-.19.48l-1.52.82c-.33.17-.4.19-.48,0a13.8,13.8,0,0,0-2.42-4.34c-.14-.19-.12-.27.17-.43Z"/>
        <path d="M229.33,120c-1.17.53-2.35,1.06-3.57,1.54a2.3,2.3,0,0,1-.53.17c-.19,0-.29-.17-.53-.6a5.64,5.64,0,0,0-1-1.4,49.08,49.08,0,0,0,9.64-4.17h-5.95c-2.11,0-2.83,0-3,0s-.27,0-.27-.26v-1.73c0-.21,0-.24.27-.24s.86,0,3,0h5.09v-2.3h-2.18c-2.16,0-2.91,0-3.05,0s-.27,0-.27-.27v-1.7c0-.24,0-.27.27-.27s.89,0,3.05,0h2.18v-.33a11.85,11.85,0,0,0-.19-2.48c.91,0,1.77.07,2.59.17.24,0,.38.1.38.24a1.21,1.21,0,0,1-.12.48,4.42,4.42,0,0,0-.17,1.66V109h.72c2.16,0,2.88,0,3,0s.29,0,.29.27V111a21.21,21.21,0,0,0,1.73-1.94,6.79,6.79,0,0,0,1.08-1.78,13.6,13.6,0,0,1,2.06,1.2c.22.15.29.29.29.43a.41.41,0,0,1-.26.34,2.68,2.68,0,0,0-1,.89,34.77,34.77,0,0,1-3.28,3.26h2.71c2.11,0,2.85,0,3,0s.23,0,.23.24v1.73c0,.24,0,.26-.23.26s-.89,0-3,0h-5.16c-1,.67-1.92,1.29-2.93,1.89h4.68c2,0,3.07,0,3.21,0s.29,0,.29.28,0,.87,0,3.24v2.4c0,3.56,0,4.25,0,4.4s0,.24-.29.24h-2c-.24,0-.26,0-.26-.24V127h-8v.86c0,.24,0,.27-.26.27h-2c-.24,0-.26,0-.26-.27s0-.93,0-4.51Zm2.47-.57v1.75h8v-1.75Zm8,5.52v-1.83h-8V125Zm-1.18-13.8c-.14,0-.86,0-3,0h-.72v2.3h1.35a22.69,22.69,0,0,0,2.54-2.25Z"/>
        <path d="M260.3,111.52a30,30,0,0,1-3,10.35c-1,1.8-2.28,2.76-4.08,2.76-2.11,0-4.24-2.26-4.24-6.17a8.82,8.82,0,0,1,2.71-6.24,10.46,10.46,0,0,1,7.79-3.08c5.76,0,9.14,3.56,9.14,8.33,0,4.47-2.52,7.28-7.39,8.74-.5.14-.72.05-1-.43a5,5,0,0,0-1.68-1.51c4.06-1,7.25-2.64,7.25-7.18a5.45,5.45,0,0,0-5.38-5.57Zm-6.89,2.33a6.92,6.92,0,0,0-1.87,4.44c0,2.21.89,3.43,1.63,3.43s1.15-.31,1.8-1.46a27.16,27.16,0,0,0,2.54-8.59A7.19,7.19,0,0,0,253.41,113.85Z"/>
        <path d="M278.69,126.07c-.24,0-.26,0-.26-.27s.05-.67.05-3.43v-1.2c0-1.37-.05-1.94-.05-2.11s0-.24.26-.24.77.05,2.57.05h3.16c1.8,0,2.4-.05,2.57-.05s.26,0,.26.24,0,.69,0,1.75v1.37c0,2.42,0,3,0,3.24.6,0,1.18,0,1.64,0s.76-.27.76-.82V109.53H276.39v5.59c0,6.65-.7,9.6-2.3,12.43-.2.32-.27.48-.39.48s-.19-.14-.41-.4a5.9,5.9,0,0,0-1.72-1.4c1.65-2.61,2.28-5.13,2.28-11v-3.87c0-2.47-.05-3.74-.05-3.91s0-.26.26-.26,1,0,3.31,0h11.32c2.31,0,3.12,0,3.29,0s.26,0,.26.26,0,1.44,0,3.91v10.71c0,1.1,0,2.33,0,3.31a2.29,2.29,0,0,1-.69,1.94c-.46.41-1.1.63-3.17.63-.74,0-.77,0-.91-.72a6,6,0,0,0-.53-1.49h-1.7c-.24,0-.26,0-.26-.26v-.6h-4.25v.93c0,.24,0,.27-.26.27ZM284,113.78v1.7h1.46c2.11,0,2.79,0,2.93,0s.26,0,.26.29v1.51c0,.24,0,.27-.26.27s-.82,0-2.93,0h-5c-2.09,0-2.79,0-2.93,0s-.26,0-.26-.27v-1.51c0-.26,0-.29.26-.29s.84,0,2.93,0h1.27v-1.7h-.63c-1.91,0-2.54,0-2.68,0s-.27,0-.27-.29v-1.49c0-.24,0-.26.27-.26s.77,0,2.68,0h.63a13.47,13.47,0,0,0-.17-1.87,19,19,0,0,1,2.35.19c.26,0,.38.17.38.29a.73.73,0,0,1-.12.41,1.86,1.86,0,0,0-.14,1h.79c1.9,0,2.55,0,2.69,0s.26,0,.26.26v1.49c0,.26,0,.29-.26.29s-.79,0-2.69,0ZM280.73,123H285v-2.21h-4.25Z"/>
        <path d="M305.34,109.46a17,17,0,0,0-.19-3.15c.91,0,1.7,0,2.47.15.21,0,.36.14.36.26a1.37,1.37,0,0,1-.15.5,8.77,8.77,0,0,0-.12,2.24v1.75h.36c1.85,0,2.4,0,2.54,0s.29,0,.29.26V113s.1,0,.24,0,.58,0,2,0h2.28c1.49,0,1.89,0,2,0s.26,0,.26.27V115c0,.26,0,.29-.26.29s-.53,0-1.8,0v5c0,2.54.05,3.72.05,4.7a2.71,2.71,0,0,1-.79,2.35c-.53.41-1.35.48-3.15.48-.74,0-.74,0-.86-.76a6.31,6.31,0,0,0-.48-1.71,15.28,15.28,0,0,0,2,.15c.69,0,.86-.2.86-.94v-9.31h-.17c-1.46,0-1.89,0-2,0s-.29,0-.29-.29v-1.52a.47.47,0,0,1-.24,0c-.14,0-.69,0-2.54,0h-.36v10c0,2.74,0,4.13,0,4.28s0,.26-.24.26h-2c-.22,0-.24,0-.24-.26s0-1.54,0-4.28v-10H305c-1.85,0-2.43,0-2.57,0s-.26,0-.26-.26a.71.71,0,0,1-.24.19,2.22,2.22,0,0,0-.65.81,17.77,17.77,0,0,1-1.06,1.66v9c0,1.92.05,2.83.05,3s0,.27-.26.27h-1.92c-.24,0-.26,0-.26-.27s0-1,0-3v-3.53c0-.76,0-1.8,0-2.71-.38.39-.77.77-1.17,1.11a.87.87,0,0,1-.44.24c-.12,0-.19-.15-.26-.46a6.2,6.2,0,0,0-.7-1.8,17.28,17.28,0,0,0,4.15-5,9.59,9.59,0,0,0,.58-1.28,16.92,16.92,0,0,1,1.77,1.16.82.82,0,0,1,.32.33v-1.49c0-.23,0-.26.26-.26s.72,0,2.57,0h.36Zm-3.41-2.26c.22.14.34.29.34.46a.36.36,0,0,1-.24.31,2,2,0,0,0-.72.7,22.18,22.18,0,0,1-4.06,4c-.26.17-.4.29-.55.29s-.24-.17-.36-.55a4.71,4.71,0,0,0-.93-1.66,14.76,14.76,0,0,0,3.91-3.62,5.18,5.18,0,0,0,.64-1.11A12.71,12.71,0,0,1,301.93,107.2Zm.29,10.44a10.94,10.94,0,0,0,0-1.82c.75.07,1.44.17,2.11.29.29,0,.41.19.41.36a.6.6,0,0,1-.17.36,1.81,1.81,0,0,0-.21.91,26.53,26.53,0,0,1-1.25,6.26c-.09.31-.17.46-.34.46a1.69,1.69,0,0,1-.47-.17,6.44,6.44,0,0,0-1.54-.46A23.5,23.5,0,0,0,302.22,117.64Zm7-10.61c.24-.14.31-.14.45,0a19.11,19.11,0,0,1,1.47,2.2c.12.22.07.32-.17.46l-1,.67c-.14.1-.21.15-.28.15s-.12-.08-.19-.2a13.94,13.94,0,0,0-1.42-2.28c-.14-.16-.14-.26.12-.43Zm.65,8.67c.23-.1.28-.08.38.17a33.09,33.09,0,0,1,1.37,6.4c0,.24,0,.32-.29.41l-1.37.48c-.33.12-.41.12-.43-.12a36.05,36.05,0,0,0-1.22-6.55c-.08-.24,0-.31.26-.41Zm5.37-8c1.34,0,1.73,0,1.87,0s.24,0,.24.26v1.83c0,.24,0,.26-.24.26s-.53-.05-1.87-.05h-1.61c-1.34,0-1.73.05-1.87.05s-.26,0-.26-.26v-1.83c0-.24,0-.26.26-.26s.53,0,1.87,0Z"/>
        <path d="M321.69,127.79c-.24.17-.38.27-.52.27s-.29-.15-.53-.43a5.75,5.75,0,0,0-1.25-1.18,11,11,0,0,0,3.12-2.66,5.24,5.24,0,0,0,.57-.94,14.86,14.86,0,0,1,1.85.84c.24.12.34.22.34.36s-.07.24-.27.34-.31.31-.52.6A15.71,15.71,0,0,1,321.69,127.79Zm1.35-5.13c-2.14,0-2.86,0-3,0s-.26,0-.26-.27v-1.63c0-.24,0-.26.26-.26s.6,0,1.92,0V111.3l-1.58,0c-.27,0-.29,0-.29-.24v-1.65c0-.24,0-.27.29-.27.09,0,.52,0,1.58,0v-.41a13.17,13.17,0,0,0-.15-2.49c.75,0,1.61.07,2.28.14.19,0,.34.07.34.22a1,1,0,0,1-.15.45,6.06,6.06,0,0,0-.11,1.66v.43h3.3v-.45a13.61,13.61,0,0,0-.14-2.5c.74,0,1.56.07,2.26.17.21,0,.33.09.33.21a1.42,1.42,0,0,1-.12.46,5.73,5.73,0,0,0-.14,1.68v.43c.84,0,1.25,0,1.34,0s.24,0,.24.27v1.65c0,.22,0,.24-.24.24s-.5,0-1.34,0v9.26l1.37,0c.21,0,.23,0,.23.26v1.63c0,.24,0,.27-.23.27s-.87,0-2.93,0Zm4.43-9.51V111.3h-3.3v1.85Zm0,3.7v-1.8h-3.3v1.8Zm0,3.74v-1.84h-3.3v1.84Zm.24,2.4a.94.94,0,0,1,.29-.14c.07,0,.12.05.19.17a15.07,15.07,0,0,0,2,2.09,6.56,6.56,0,0,0-1.32,1.17c-.19.24-.28.36-.4.36s-.22-.09-.41-.29a12.45,12.45,0,0,1-1.73-2.23c-.14-.21-.09-.31.1-.43Zm12.86-1c0,1.13.07,2.35.07,3.31a2.4,2.4,0,0,1-.69,2c-.51.41-1.15.63-2.95.63-.77,0-.75,0-.94-.75a5.12,5.12,0,0,0-.64-1.7c.74,0,1.46.07,2.06.07s.74-.24.74-.84v-4.32h-3.86a14.76,14.76,0,0,1-2.28,7.22c-.19.32-.31.46-.43.46s-.24-.12-.48-.36a6.24,6.24,0,0,0-1.49-1.13c2-2.64,2.57-4.87,2.57-11.42v-4c0-2.5-.05-3.82-.05-4s0-.29.26-.29.75,0,2.47,0h2.95c1.76,0,2.33,0,2.48,0s.26,0,.26.29-.05,1.46-.05,4Zm-2.35-3.77v-3.5h-3.64v.43c0,1.13,0,2.16-.08,3.07Zm-3.64-9v3.41h3.64v-3.41Z"/>
        <path d="M361.1,112.72c2.26,0,3.07,0,3.24,0s.26,0,.26.27-.05.5-.05,1v.84c0,1.82.05,2.16.05,2.3s0,.27-.26.27h-1.9c-.24,0-.26,0-.26-.27v-2.49H347.26v2.49c0,.24,0,.27-.29.27H345.1c-.24,0-.26,0-.26-.27s.05-.48.05-2.3v-.7c0-.67-.05-1-.05-1.17s0-.27.26-.27,1,0,3.24,0h5a8.71,8.71,0,0,0-.17-1.61c.79,0,1.58,0,2.21.1l-.19-.17a5.75,5.75,0,0,0-1.3-.7l.43-.47c-.19,0-.84-.05-2.76-.05a12.49,12.49,0,0,1,.7,1.46c.1.24.1.29-.24.36l-1.58.31c-.34.08-.39.08-.46-.19a15.4,15.4,0,0,0-.74-1.94h-1.51a11.78,11.78,0,0,1-1.75,2c-.27.24-.41.38-.56.38s-.24-.14-.5-.43a5.45,5.45,0,0,0-1.22-1,11.16,11.16,0,0,0,3-3.62,4.84,4.84,0,0,0,.43-1.13c.77.1,1.68.24,2.21.36.24,0,.36.1.36.29a.4.4,0,0,1-.19.33,1.76,1.76,0,0,0-.41.58l-.17.34h2.57c2,0,2.66-.05,2.8-.05s.29,0,.29.26v1.47a10.28,10.28,0,0,0,1.49-2.4,7.29,7.29,0,0,0,.41-1.2c.72.09,1.56.24,2.06.36.26,0,.38.12.38.28a.39.39,0,0,1-.19.34,2.49,2.49,0,0,0-.45.79l-.08.15h3.48c2.45,0,3.29-.05,3.43-.05s.27,0,.27.26v1.49c0,.24,0,.27-.27.27s-1-.05-3.43-.05h-.4a9,9,0,0,1,.71,1.46c.1.24.1.29-.24.36l-1.55.29c-.34.07-.39,0-.46-.19a19,19,0,0,0-.79-1.92h-1.78a9.78,9.78,0,0,1-.86,1.22,1.46,1.46,0,0,1-.36.34.28.28,0,0,1,0,.14.91.91,0,0,1-.14.39,1.81,1.81,0,0,0-.1.81Zm-3.67,3c2.11,0,3.1,0,3.24,0s.26,0,.26.27-.05.6-.05,1.65v1.2c0,1.06.05,1.52.05,1.68s0,.24-.26.24-1.13,0-3.24,0h-6.64V122h8c2.18,0,3.29,0,3.45,0s.27,0,.27.29-.05.62-.05,1.82v2c0,1.2.05,1.66.05,1.78s0,.26-.27.26h-1.94c-.24,0-.26,0-.26-.26v-.65h-9.21v.7c0,.24,0,.26-.27.26h-1.89c-.24,0-.27,0-.27-.26s.05-.92.05-2.76v-6.36c0-1.85-.05-2.67-.05-2.81s0-.27.27-.27,1.25,0,3.4,0Zm1.06,1.78h-7.7v1.39h7.7Zm-7.7,6.31v1.54H360v-1.54Z"/>
        <path d="M373,120.59c.84-.38,1.65-.76,2.49-1.22,0,.41,0,1,0,1.56,0,.79,0,.79-.6,1.15a46.7,46.7,0,0,1-5.18,2.31,3.58,3.58,0,0,0-.74.36.53.53,0,0,1-.38.16c-.12,0-.22-.07-.32-.31-.21-.62-.4-1.39-.6-2.25a17.14,17.14,0,0,0,2.26-.58l.69-.24v-5.21c-1.51,0-2,.05-2.11.05s-.26,0-.26-.26v-1.73c0-.27,0-.29.26-.29s.6,0,2.11,0v-4.23h-.14c-1.61,0-2.11,0-2.25,0s-.24,0-.24-.26v-1.76c0-.26,0-.28.24-.28s.64,0,2.25,0H373c1.63,0,2.13,0,2.25,0s.26,0,.26.28v1.76c0,.24,0,.26-.26.26s-.62,0-2.23,0v4.23c1.32,0,1.77,0,1.92,0s.24,0,.24.29v1.73c0,.24,0,.26-.24.26s-.6-.05-1.92-.05Zm4.39,6.44c-2.38,0-3.19,0-3.34,0s-.26,0-.26-.26v-1.7c0-.24,0-.27.26-.27s1,0,3.34,0h3.64v-2.35h-1.48c-2.21,0-2.95,0-3.1,0s-.26,0-.26-.27v-1.65c0-.24,0-.27.26-.27s.89,0,3.1,0h1.48v-2.06H379.5c-2.19,0-3,0-3.12,0s-.29,0-.29-.24.05-.91.05-2.66V110.2c0-1.7-.05-2.45-.05-2.62s0-.26.29-.26.93.05,3.12.05h5.7c2.21,0,3-.05,3.15-.05s.26,0,.26.26-.05.92-.05,2.62v5.33c0,1.75.05,2.52.05,2.66s0,.24-.26.24-.94,0-3.15,0h-1.75v2.06h1.83c2.18,0,3,0,3.09,0s.26,0,.26.27v1.65c0,.24,0,.27-.26.27s-.91,0-3.09,0h-1.83v2.35h2.76c2.35,0,3.19,0,3.31,0s.27,0,.27.27v1.7c0,.24,0,.26-.27.26s-1,0-3.31,0Zm3.64-15.2v-2.42h-2.66v2.42Zm0,4.54V113.8h-2.66v2.57Zm2.4-7v2.42h2.83v-2.42Zm2.83,4.39h-2.83v2.57h2.83Z"/>
        <path d="M400.17,112.43c.09-1.17.14-1.94.17-3.24a9.45,9.45,0,0,0-.17-1.89,18.51,18.51,0,0,1,3.12.5.49.49,0,0,1,.4.5,1.07,1.07,0,0,1-.11.46,2.22,2.22,0,0,0-.32,1.13c-.07.77-.09,1.34-.21,2.52h3.64c1.11,0,2.23,0,3.34,0,.38,0,.5.07.5.34s0,1.27-.1,2.54a41.09,41.09,0,0,1-.88,7.9c-.48,1.85-1.3,2.85-2.83,3.24a10.42,10.42,0,0,1-2.43.26.58.58,0,0,1-.57-.48,5,5,0,0,0-1.39-2.18,9.86,9.86,0,0,0,3.26-.22c.65-.21,1-.6,1.25-1.68a34.22,34.22,0,0,0,.72-7.2h-4.85a18,18,0,0,1-2.13,6.65,15.47,15.47,0,0,1-5.09,4.94,1.09,1.09,0,0,1-.55.2.67.67,0,0,1-.46-.24,6.14,6.14,0,0,0-2-1.4,13.38,13.38,0,0,0,5.64-4.89,14,14,0,0,0,1.72-5.19h-2.16c-1.17,0-2.32,0-3.45.12-.24,0-.34-.12-.36-.4-.1-.58-.14-1.44-.19-2.33,1.51.09,2.59.09,4,.09Zm9-4.39c.12-.1.22-.07.36,0a10.8,10.8,0,0,1,2.28,2.57.24.24,0,0,1-.07.38l-1,.75a.24.24,0,0,1-.4-.08,11.94,11.94,0,0,0-2.43-2.78Zm2.14-1.56c.14-.1.21-.07.36,0a10,10,0,0,1,2.28,2.47.28.28,0,0,1-.07.43l-1,.75c-.2.14-.32.07-.41-.07a11.45,11.45,0,0,0-2.4-2.77Z"/>
        <path d="M429.38,121.75c0,1.65,0,3.07.07,5,0,.31-.09.41-.36.41-.76,0-1.63,0-2.4,0-.26,0-.36-.1-.33-.39,0-1.73.1-3.29.1-4.92v-5.59a41.77,41.77,0,0,1-6.6,4.61.69.69,0,0,1-.36.09.65.65,0,0,1-.5-.24,9.11,9.11,0,0,0-2.07-1.41,40.61,40.61,0,0,0,12.67-9.94,7.14,7.14,0,0,0,1.51-2.47,21.64,21.64,0,0,1,2.66,1.68.41.41,0,0,1,.19.36.69.69,0,0,1-.33.53,7.32,7.32,0,0,0-1.44,1.32,39.11,39.11,0,0,1-2.81,3Z"/>
        <path d="M449.31,113.9a34.05,34.05,0,0,1,7.63,3.26c.26.15.38.31.26.63a13.43,13.43,0,0,1-1,2.08c-.09.17-.19.27-.31.27a.38.38,0,0,1-.26-.12,26.51,26.51,0,0,0-6.31-3.07v5.3c0,1.56,0,3,.09,4.7,0,.29-.09.36-.43.36a15.14,15.14,0,0,1-2.13,0c-.34,0-.46-.07-.46-.36.07-1.77.1-3.19.1-4.72V110.42a19.16,19.16,0,0,0-.24-3.56,18.55,18.55,0,0,1,3,.39c.34.07.46.21.46.41a1.28,1.28,0,0,1-.19.55,6.15,6.15,0,0,0-.17,2.25ZM454.9,108c.12-.09.22-.07.36.05a11.23,11.23,0,0,1,2.28,2.57.25.25,0,0,1-.07.38l-1,.75a.26.26,0,0,1-.41-.07,12,12,0,0,0-2.42-2.79Zm2.13-1.56c.15-.09.22-.07.36,0a9.79,9.79,0,0,1,2.28,2.47.27.27,0,0,1-.07.43l-1,.75a.25.25,0,0,1-.41-.07,10.82,10.82,0,0,0-2.4-2.76Z"/>
        <path d="M470.68,115.7c-1.2,0-2.4,0-3.6.09-.21,0-.31-.14-.36-.45a18.65,18.65,0,0,1-.26-2.43,40.74,40.74,0,0,0,4.41.2h8.23a2.58,2.58,0,0,0,1.27-.27.56.56,0,0,1,.31-.14.6.6,0,0,1,.36.17,13.2,13.2,0,0,1,1.61,1.48.71.71,0,0,1,.24.51.56.56,0,0,1-.27.45,2.75,2.75,0,0,0-.81,1.13c-2.4,5.11-5.16,8.11-9.79,10.61a1.07,1.07,0,0,1-.48.17.79.79,0,0,1-.52-.29,7,7,0,0,0-2.23-1.25c4.43-2.06,8.34-5.37,10.07-10Zm1.61-5.16c-1.08,0-2.28,0-3.29.09-.24,0-.31-.14-.33-.52a19.14,19.14,0,0,1-.13-2.31,34.06,34.06,0,0,0,3.94.17h4.32c1.56,0,2.83-.07,3.76-.12.22,0,.29.12.29.38a11.8,11.8,0,0,1,0,1.88c0,.4-.07.5-.43.47-.79,0-1.92,0-3.38,0Z"/>
        <path d="M501.33,121.75c0,1.65,0,3.07.07,5,0,.31-.09.41-.36.41-.76,0-1.63,0-2.4,0-.26,0-.35-.1-.33-.39,0-1.73.1-3.29.1-4.92v-5.59a41.77,41.77,0,0,1-6.6,4.61.69.69,0,0,1-.36.09.65.65,0,0,1-.5-.24,9.11,9.11,0,0,0-2.07-1.41,40.61,40.61,0,0,0,12.67-9.94,7.14,7.14,0,0,0,1.51-2.47,21.64,21.64,0,0,1,2.66,1.68.41.41,0,0,1,.19.36.69.69,0,0,1-.33.53,7.62,7.62,0,0,0-1.44,1.32,39.11,39.11,0,0,1-2.81,3Z"/>
        <path d="M515.48,109.41a.46.46,0,0,1,.34-.19.58.58,0,0,1,.31.12,25.14,25.14,0,0,1,4.58,3.41c.14.14.21.24.21.33a.47.47,0,0,1-.14.31c-.36.48-1.15,1.44-1.49,1.8-.12.12-.19.2-.28.2s-.2-.08-.32-.2a25.76,25.76,0,0,0-4.89-3.91C514.33,110.63,515,109.89,515.48,109.41Zm2.09,12.65a35.63,35.63,0,0,0,6.91-4.47,36.24,36.24,0,0,0,6.57-6.52,10.55,10.55,0,0,0,.67,2.8,1.26,1.26,0,0,1,.12.46,1.2,1.2,0,0,1-.38.72,39.79,39.79,0,0,1-5.52,5.09,51.54,51.54,0,0,1-7.25,4.7,8,8,0,0,0-1.6,1.11.7.7,0,0,1-.43.24.62.62,0,0,1-.41-.27,16.05,16.05,0,0,1-1.92-2.66A14.59,14.59,0,0,0,517.57,122.06Z"/>
      </g>
    </g>
  </g>
</svg>
